<svg enable-background="new 0 0 2127.035 1987.522" height="1988" viewBox="0 0 2127.035 1987.522" width="2128" xmlns="http://www.w3.org/2000/svg"><path d="m1083.075 1807.483c.538-.538-76.934.539-77.472 0-201.211-78.548-109.214-441.696 6.456-1284.201h62.408c111.365 817.757 210.895 1197.045 8.608 1284.201z" fill="#fbb348"/><path d="m1012.777 1810.143c-6.236 0-7.713-.072-8.421-.464-171.449-67.312-132.085-337.351-45.888-928.535 15.548-106.641 33.172-227.51 51.115-358.202.17-1.238 1.227-2.16 2.477-2.16h62.408c1.25 0 2.309.924 2.477 2.163 18.82 138.196 37.536 265.456 54.048 377.735 41.717 283.666 71.858 488.619 71.217 636.382-.332 76.487-9.239 134.688-27.231 177.926-18.975 45.602-48.713 76.609-90.915 94.791-.517.223-1.076.259-1.591.13-2.538-.171-21.087-.042-37.501.072-9.723.068-19.498.135-26.875.153-2.08.005-3.835.009-5.32.009zm-5.416-4.438c.003.003.007.007.01.01-.003-.003-.006-.006-.01-.01zm-.012-.011c.003.003.006.006.009.009-.002-.003-.006-.006-.009-.009zm-.011-.011c.002.003.005.005.008.008-.002-.003-.005-.005-.008-.008zm-.011-.01c.002.002.004.004.007.006-.002-.002-.004-.004-.007-.006zm-.011-.011c.002.002.004.004.006.006-.001-.002-.004-.004-.006-.006zm-1.067-.611c2.761.18 22.63.042 38.688-.07 9.558-.066 19.065-.132 26.197-.15 6.203-.016 9.565-.023 11.454.137 40.684-17.673 69.397-47.74 87.774-91.902 17.736-42.625 26.518-100.204 26.847-176.027.64-147.386-29.479-352.183-71.165-635.632-16.428-111.709-35.036-238.233-53.761-375.625h-58.045c-17.843 129.886-35.358 250.018-50.823 356.083-85.813 588.557-124.991 857.36 42.834 923.186z"/><path d="m242.796 333.886-.065.794c-.789 9.619.182 18.973 2.637 27.746 8.646 30.96 35.812 54.758 69.721 57.538s64.589-16.274 78.163-45.412l672.982 55.186 3.693-45.041-683.117-56.016c-9.609-.788-19.919 5.924-22.134 19.777-1.654 10.34-4.992 16.908-11.674 23.874-8.762 9.16-21.392 13.36-35.012 12.243s-25.266-8.388-32.419-18.852c-5.458-7.962-8.301-17.782-7.452-28.141l.016-.193c.831-9.605-6.093-18.119-15.702-18.907l-1.105-.091c-9.372-.768-17.667 6.13-18.532 15.495z" fill="#fbb348"/><path d="m1066.233 432.239c-.068 0-.136-.003-.204-.008l-671.267-55.045c-14.706 29.865-46.577 48.002-79.878 45.271-33.881-2.778-62.785-26.632-71.924-59.358-2.6-9.294-3.516-18.925-2.721-28.623l.065-.794c.001-.008.001-.017.002-.025.986-10.67 10.508-18.636 21.227-17.756l1.105.091c5.223.428 9.962 2.869 13.344 6.873 3.462 4.1 5.112 9.335 4.644 14.741l-.015.182c-.769 9.376 1.725 18.795 7.022 26.523 7.027 10.28 18.165 16.758 30.561 17.774 13.167 1.08 24.887-2.998 33-11.48 6.481-6.757 9.465-12.865 11.012-22.54 1.876-11.727 10.996-23.006 24.808-21.874l683.116 56.017c1.376.113 2.4 1.32 2.287 2.696l-3.693 45.041c-.054.661-.369 1.273-.875 1.702-.452.383-1.026.592-1.616.592zm-672.983-60.186c.068 0 .137.003.205.008l670.491 54.982 3.285-40.057-680.624-55.813c-7.917-.649-17.371 4.608-19.461 17.68-1.706 10.662-5.165 17.73-12.339 25.209-9.174 9.59-22.322 14.21-37.02 13.005-13.905-1.14-26.399-8.406-34.278-19.933-5.943-8.67-8.742-19.238-7.88-29.756l.016-.194c.353-4.082-.884-8.018-3.482-11.095-2.517-2.98-6.044-4.797-9.933-5.116l-1.105-.091c-7.999-.657-15.103 5.279-15.839 13.23l-.063.771c-.747 9.105.112 18.145 2.553 26.868 8.579 30.72 35.712 53.112 67.518 55.72 31.803 2.608 62.223-15.064 75.693-43.976.411-.884 1.298-1.442 2.263-1.442z"/><path d="m1895.358 469.4-.065.794c-.789 9.619-3.271 18.69-7.122 26.946-13.574 29.137-44.254 48.192-78.163 45.412-33.909-2.781-61.075-26.579-69.721-57.538l-672.982-55.186 3.693-45.041 683.116 56.017c9.609.788 18.688 9.09 18.617 23.119-.053 10.471 2.171 17.495 7.629 25.457 7.153 10.465 18.93 16.667 32.549 17.784 13.62 1.117 26.295-4.16 35.057-13.319 6.682-6.966 11.087-16.192 11.937-26.551l.016-.193c.745-9.612 8.963-16.884 18.572-16.096l1.105.091c9.373.765 16.434 8.923 15.762 18.304z" fill="#fbb348"/><path d="m1816.413 545.313c-2.196 0-4.396-.089-6.609-.271-33.3-2.731-61.791-25.818-71.436-57.679l-671.268-55.045c-1.376-.113-2.4-1.32-2.287-2.696l3.693-45.041c.054-.661.369-1.273.875-1.702.505-.429 1.162-.639 1.821-.585l683.117 56.017c10.452.857 20.991 9.934 20.912 25.623-.049 9.798 1.899 16.311 7.191 24.03 6.625 9.694 17.524 15.626 30.691 16.705 12.398 1.016 24.441-3.56 33.046-12.556 6.488-6.764 10.483-15.652 11.252-25.027l.016-.19c.418-5.402 2.899-10.298 6.983-13.779 3.988-3.4 9.063-5.035 14.285-4.607l1.104.091c10.719.879 18.817 10.289 18.051 20.977 0 .008-.001.017-.002.025l-.065.794c-.795 9.698-3.268 19.051-7.348 27.799-13.409 28.787-42.601 47.117-74.022 47.117zm-746.412-117.774 670.491 54.981c1.043.086 1.922.811 2.204 1.819 8.579 30.719 35.712 53.111 67.517 55.719 31.806 2.608 62.223-15.064 75.692-43.976 3.83-8.21 6.15-16.989 6.896-26.095l.063-.774c.566-7.963-5.476-14.974-13.473-15.63l-1.104-.091c-3.891-.319-7.665.899-10.634 3.429-3.064 2.612-4.926 6.294-5.242 10.368l-.017.202c-.863 10.52-5.346 20.492-12.625 28.08-9.649 10.088-23.162 15.221-37.065 14.081-14.699-1.205-26.918-7.905-34.409-18.865-5.857-8.545-8.119-16.082-8.065-26.88.067-13.239-8.414-19.966-16.321-20.615l-680.625-55.813zm825.357 41.861h.01z"/><path d="m1086.096 275.265h-85.666c-6.651 0-12.043 5.392-12.043 12.043v236.306c0 6.651 5.392 12.043 12.043 12.043h85.666c6.651 0 12.043-5.392 12.043-12.043v-236.307c0-6.65-5.392-12.042-12.043-12.042z" fill="#fbb348"/><path d="m1086.096 538.156h-85.666c-8.019 0-14.542-6.524-14.542-14.543v-236.306c0-8.019 6.524-14.543 14.542-14.543h85.666c8.019 0 14.542 6.524 14.542 14.543v236.306c0 8.019-6.523 14.543-14.542 14.543zm-85.666-260.391c-5.262 0-9.542 4.281-9.542 9.543v236.306c0 5.262 4.281 9.543 9.542 9.543h85.666c5.262 0 9.542-4.281 9.542-9.543v-236.307c0-5.262-4.281-9.543-9.542-9.543h-85.666z"/><path d="m1148.591 1852.553h-213.672v-3.876c0-28.167 22.833-51 51-51h111.672c28.167 0 51 22.833 51 51z" fill="#fbb348"/><path d="m1148.591 1855.053h-213.672c-1.381 0-2.5-1.119-2.5-2.5v-3.876c0-29.5 24-53.5 53.5-53.5h111.672c29.5 0 53.5 24 53.5 53.5v3.876c0 1.381-1.119 2.5-2.5 2.5zm-211.172-5h208.672v-1.376c0-26.743-21.757-48.5-48.5-48.5h-111.672c-26.743 0-48.5 21.757-48.5 48.5z"/><path d="m1218.175 1906.474h-352.84v-3.8c0-27.614 22.386-50 50-50h252.84c27.614 0 50 22.386 50 50z" fill="#fbb348"/><path d="m1218.175 1908.974h-352.84c-1.381 0-2.5-1.119-2.5-2.5v-3.8c0-28.949 23.551-52.5 52.5-52.5h252.84c28.949 0 52.5 23.551 52.5 52.5v3.8c0 1.381-1.119 2.5-2.5 2.5zm-350.34-5h347.84v-1.3c0-26.192-21.309-47.5-47.5-47.5h-252.84c-26.191 0-47.5 21.308-47.5 47.5z"/><path d="m1368.589 1985.022h-653.668v-5.56c0-40.406 32.755-73.161 73.161-73.161h507.345c40.406 0 73.161 32.755 73.161 73.161v5.56z" fill="#fbb348"/><path d="m1368.589 1987.522h-653.668c-1.381 0-2.5-1.119-2.5-2.5v-5.56c0-41.72 33.942-75.661 75.662-75.661h507.345c41.72 0 75.661 33.942 75.661 75.661v5.56c-0 1.381-1.12 2.5-2.5 2.5zm-651.168-5h648.667v-3.06c0-38.963-31.698-70.661-70.661-70.661h-507.344c-38.963 0-70.662 31.698-70.662 70.661z"/><circle cx="1043.263" cy="405.46" fill="#fbb348" r="103.834"/><path d="m1043.263 511.794c-58.633 0-106.334-47.701-106.334-106.334s47.701-106.334 106.334-106.334c58.632 0 106.333 47.701 106.333 106.334s-47.701 106.334-106.333 106.334zm0-207.667c-55.876 0-101.334 45.458-101.334 101.334s45.458 101.334 101.334 101.334c55.875 0 101.333-45.458 101.333-101.334s-45.458-101.334-101.333-101.334z"/><circle cx="1043.263" cy="405.46" fill="#fbb348" r="29.59"/><path d="m1043.263 437.55c-17.695 0-32.09-14.395-32.09-32.09 0-17.694 14.395-32.09 32.09-32.09 17.694 0 32.09 14.395 32.09 32.09s-14.396 32.09-32.09 32.09zm0-59.18c-14.938 0-27.09 12.152-27.09 27.09 0 14.937 12.153 27.09 27.09 27.09s27.09-12.152 27.09-27.09c0-14.937-12.153-27.09-27.09-27.09z"/><path d="m1042.187 2.5c-53.262 91.46-105.986 235.643-36.046 272.227h72.092c68.863-33.356 15.064-185.071-36.046-272.227z" fill="#fbb348"/><path d="m1078.233 277.227h-72.092c-.404 0-.801-.098-1.159-.285-15.221-7.962-25.606-21.251-30.869-39.5-17.512-60.727 24.562-165.194 65.914-236.201.447-.768 1.268-1.241 2.156-1.242h.004c.887 0 1.708.47 2.157 1.235 22.167 37.802 41.962 82.517 54.309 122.68 18.992 61.782 16.095 97.43 10.321 116.456-5.252 17.304-15.228 29.619-29.65 36.605-.341.166-.714.252-1.091.252zm-71.471-5h70.89c12.842-6.397 21.769-17.6 26.536-33.308 7.991-26.328 4.424-65.587-10.315-113.535-11.834-38.499-30.578-81.225-51.681-117.898-22.062 38.474-40.634 80.001-52.467 117.383-14.676 46.364-18.414 84.811-10.808 111.187 4.807 16.669 14.174 28.835 27.845 36.171z"/><path d="m2044.039 1524.505h-462.01c-17.121 0-31-13.879-31-31v-2.356h524.01v2.356c0 17.121-13.879 31-31 31z" fill="#92acef"/><path d="m2044.039 1527.005h-462.01c-18.472 0-33.5-15.028-33.5-33.5v-2.356c0-1.381 1.119-2.5 2.5-2.5h524.01c1.381 0 2.5 1.119 2.5 2.5v2.356c0 18.472-15.028 33.5-33.5 33.5zm-490.509-33.356c.078 15.649 12.833 28.356 28.5 28.356h462.01c15.667 0 28.422-12.707 28.5-28.356z" fill="#161616"/><path d="m2075.535 1491.687h-525.001c-27.062 0-49-21.938-49-49v-3.724h623.001v3.724c0 27.062-21.938 49-49 49z" fill="#92acef"/><path d="m2075.535 1494.187h-525.002c-13.756 0-26.688-5.357-36.416-15.084-9.727-9.727-15.084-22.66-15.084-36.416v-3.724c0-1.381 1.119-2.5 2.5-2.5h623.002c1.381 0 2.5 1.119 2.5 2.5v3.724c0 28.397-23.103 51.5-51.5 51.5zm-571.502-52.723v1.224c0 12.421 4.837 24.098 13.62 32.88 8.783 8.783 20.46 13.62 32.88 13.62h525.002c25.64 0 46.5-20.86 46.5-46.5v-1.224z" fill="#161616"/><path d="m1501.533 1441.464c-.267 0-.539-.043-.806-.134-1.307-.445-2.006-1.865-1.562-3.172l311.501-915.672c.345-1.013 1.296-1.695 2.367-1.695s2.022.681 2.367 1.695l311.501 915.672c.445 1.307-.254 2.727-1.562 3.172-1.306.444-2.727-.255-3.172-1.562l-309.134-908.715-309.133 908.716c-.354 1.04-1.326 1.695-2.367 1.695z"/><circle cx="1813.552" cy="519.09" fill="#fbb348" r="35.508"/><path d="m1813.615 557.101c-1.052 0-2.109-.043-3.169-.13-10.119-.83-19.308-5.55-25.876-13.292-6.568-7.741-9.728-17.577-8.898-27.696.83-10.118 5.55-19.308 13.292-25.876s17.581-9.728 27.695-8.898c10.118.83 19.308 5.55 25.876 13.291 6.568 7.742 9.728 17.577 8.898 27.696-.83 10.118-5.55 19.308-13.292 25.876-6.93 5.88-15.539 9.029-24.526 9.029zm-.118-71.021c-7.806 0-15.281 2.734-21.3 7.841-6.723 5.704-10.823 13.685-11.543 22.472-.721 8.787 2.023 17.329 7.728 24.052s13.685 10.822 22.472 11.543c8.789.721 17.33-2.024 24.052-7.728 6.723-5.704 10.823-13.685 11.543-22.472.721-8.787-2.024-17.329-7.728-24.052s-13.685-10.822-22.472-11.543c-.92-.076-1.839-.113-2.752-.113z"/><path d="m545.006 1386.311h-462.01c-17.121 0-31-13.879-31-31v-2.356h524.01v2.356c0 17.121-13.879 31-31 31z" fill="#92acef"/><path d="m82.996 1388.811c-18.472 0-33.5-15.028-33.5-33.5v-2.356c0-1.381 1.119-2.5 2.5-2.5h524.01c.663 0 1.299.263 1.768.732s.732 1.105.732 1.768v2.356c0 18.472-15.028 33.5-33.5 33.5zm-28.5-33.356c.078 15.649 12.833 28.356 28.5 28.356h462.01c15.667 0 28.422-12.707 28.5-28.356z" fill="#161616"/><path d="m576.502 1353.493h-525.002c-27.062 0-49-21.938-49-49v-3.724h623.001v3.724c0 27.062-21.938 49-48.999 49z" fill="#92acef"/><path d="m51.5 1355.993c-28.397 0-51.5-23.103-51.5-51.5v-3.724c0-1.381 1.119-2.5 2.5-2.5h623.001c.663 0 1.299.263 1.768.732s.732 1.105.732 1.768v3.724c0 28.397-23.103 51.5-51.5 51.5zm-46.5-52.724v1.224c0 25.64 20.86 46.5 46.5 46.5h525.002c25.64 0 46.5-20.86 46.5-46.5v-1.224z" fill="#161616"/><path d="m2.5 1303.27c-.267 0-.539-.043-.805-.134-1.307-.445-2.006-1.865-1.562-3.172l311.5-915.672c.344-1.013 1.296-1.695 2.367-1.695 1.07 0 2.022.682 2.367 1.695l311.5 915.672c.445 1.307-.254 2.727-1.562 3.172-1.305.444-2.727-.254-3.172-1.562l-309.132-908.715-309.134 908.715c-.354 1.041-1.326 1.696-2.367 1.696z"/><circle cx="314.518" cy="395.96" fill="#fbb348" r="35.508"/><path d="m314.546 433.969c-1.037 0-2.082-.042-3.134-.129-10.118-.83-19.308-5.55-25.876-13.292-6.568-7.741-9.728-17.577-8.898-27.696 1.713-20.887 20.098-36.487 40.987-34.774 10.118.83 19.308 5.55 25.876 13.291s9.728 17.577 8.898 27.696c-1.626 19.837-18.291 34.904-37.853 34.904zm-.052-71.018c-16.99 0-31.461 13.084-32.873 30.311-.721 8.787 2.024 17.329 7.728 24.052s13.685 10.822 22.472 11.543c.912.075 1.822.112 2.722.112 16.99.001 31.461-13.084 32.873-30.311.721-8.787-2.024-17.329-7.728-24.052s-13.685-10.822-22.472-11.543c-.912-.076-1.822-.112-2.722-.112z"/></svg>