<svg enable-background="new 0 0 2127.035 1987.522" height="1988" viewBox="0 0 2127.035 1987.522" width="2128" xmlns="http://www.w3.org/2000/svg"><path d="m1083.075 1807.483c.538-.538-76.934.539-77.472 0-201.211-78.548-109.214-441.696 6.456-1284.201h62.408c111.365 817.757 210.895 1197.045 8.608 1284.201z" fill="none" stroke="#161616" stroke-width="28" stroke-linejoin="round" stroke-linecap="round"/><path d="m242.796 333.886-.065.794c-.789 9.619.182 18.973 2.637 27.746 8.646 30.96 35.812 54.758 69.721 57.538s64.589-16.274 78.163-45.412l672.982 55.186 3.693-45.041-683.117-56.016c-9.609-.788-19.919 5.924-22.134 19.777-1.654 10.34-4.992 16.908-11.674 23.874-8.762 9.16-21.392 13.36-35.012 12.243s-25.266-8.388-32.419-18.852c-5.458-7.962-8.301-17.782-7.452-28.141l.016-.193c.831-9.605-6.093-18.119-15.702-18.907l-1.105-.091c-9.372-.768-17.667 6.13-18.532 15.495z" fill="none" stroke="#161616" stroke-width="28" stroke-linejoin="round" stroke-linecap="round"/><path d="m1895.358 469.4-.065.794c-.789 9.619-3.271 18.69-7.122 26.946-13.574 29.137-44.254 48.192-78.163 45.412-33.909-2.781-61.075-26.579-69.721-57.538l-672.982-55.186 3.693-45.041 683.116 56.017c9.609.788 18.688 9.09 18.617 23.119-.053 10.471 2.171 17.495 7.629 25.457 7.153 10.465 18.93 16.667 32.549 17.784 13.62 1.117 26.295-4.16 35.057-13.319 6.682-6.966 11.087-16.192 11.937-26.551l.016-.193c.745-9.612 8.963-16.884 18.572-16.096l1.105.091c9.373.765 16.434 8.923 15.762 18.304z" fill="none" stroke="#161616" stroke-width="28" stroke-linejoin="round" stroke-linecap="round"/><path d="m1086.096 275.265h-85.666c-6.651 0-12.043 5.392-12.043 12.043v236.306c0 6.651 5.392 12.043 12.043 12.043h85.666c6.651 0 12.043-5.392 12.043-12.043v-236.307c0-6.65-5.392-12.042-12.043-12.042z" fill="none" stroke="#161616" stroke-width="28" stroke-linejoin="round" stroke-linecap="round"/><path d="m1148.591 1852.553h-213.672v-3.876c0-28.167 22.833-51 51-51h111.672c28.167 0 51 22.833 51 51z" fill="none" stroke="#161616" stroke-width="28" stroke-linejoin="round" stroke-linecap="round"/><path d="m1218.175 1906.474h-352.84v-3.8c0-27.614 22.386-50 50-50h252.84c27.614 0 50 22.386 50 50z" fill="none" stroke="#161616" stroke-width="28" stroke-linejoin="round" stroke-linecap="round"/><path d="m1368.589 1985.022h-653.668v-5.56c0-40.406 32.755-73.161 73.161-73.161h507.345c40.406 0 73.161 32.755 73.161 73.161v5.56z" fill="none" stroke="#161616" stroke-width="28" stroke-linejoin="round" stroke-linecap="round"/><circle cx="1043.263" cy="405.46" fill="none" stroke="#161616" stroke-width="28" stroke-linejoin="round" stroke-linecap="round" r="103.834"/><circle cx="1043.263" cy="405.46" fill="none" stroke="#161616" stroke-width="28" stroke-linejoin="round" stroke-linecap="round" r="29.59"/><path d="m1042.187 2.5c-53.262 91.46-105.986 235.643-36.046 272.227h72.092c68.863-33.356 15.064-185.071-36.046-272.227z" fill="none" stroke="#161616" stroke-width="28" stroke-linejoin="round" stroke-linecap="round"/><path d="m2044.039 1524.505h-462.01c-17.121 0-31-13.879-31-31v-2.356h524.01v2.356c0 17.121-13.879 31-31 31z" fill="none" stroke="#161616" stroke-width="28" stroke-linejoin="round" stroke-linecap="round"/><path d="m2075.535 1491.687h-525.001c-27.062 0-49-21.938-49-49v-3.724h623.001v3.724c0 27.062-21.938 49-49 49z" fill="none" stroke="#161616" stroke-width="28" stroke-linejoin="round" stroke-linecap="round"/><path d="m1501.533 1441.464c-.267 0-.539-.043-.806-.134-1.307-.445-2.006-1.865-1.562-3.172l311.501-915.672c.345-1.013 1.296-1.695 2.367-1.695s2.022.681 2.367 1.695l311.501 915.672c.445 1.307-.254 2.727-1.562 3.172-1.306.444-2.727-.255-3.172-1.562l-309.134-908.715-309.133 908.716c-.354 1.04-1.326 1.695-2.367 1.695z" fill="none" stroke="#161616" stroke-width="16" stroke-linejoin="round" stroke-linecap="round"/><circle cx="1813.552" cy="519.09" fill="none" stroke="#161616" stroke-width="28" stroke-linejoin="round" stroke-linecap="round" r="35.508"/><path d="m545.006 1386.311h-462.01c-17.121 0-31-13.879-31-31v-2.356h524.01v2.356c0 17.121-13.879 31-31 31z" fill="none" stroke="#161616" stroke-width="28" stroke-linejoin="round" stroke-linecap="round"/><path d="m576.502 1353.493h-525.002c-27.062 0-49-21.938-49-49v-3.724h623.001v3.724c0 27.062-21.938 49-48.999 49z" fill="none" stroke="#161616" stroke-width="28" stroke-linejoin="round" stroke-linecap="round"/><path d="m2.5 1303.27c-.267 0-.539-.043-.805-.134-1.307-.445-2.006-1.865-1.562-3.172l311.5-915.672c.344-1.013 1.296-1.695 2.367-1.695 1.07 0 2.022.682 2.367 1.695l311.5 915.672c.445 1.307-.254 2.727-1.562 3.172-1.305.444-2.727-.254-3.172-1.562l-309.132-908.715-309.134 908.715c-.354 1.041-1.326 1.696-2.367 1.696z" fill="none" stroke="#161616" stroke-width="16" stroke-linejoin="round" stroke-linecap="round"/><circle cx="314.518" cy="395.96" fill="none" stroke="#161616" stroke-width="28" stroke-linejoin="round" stroke-linecap="round" r="35.508"/></svg>