<svg xmlns="http://www.w3.org/2000/svg" viewBox="0 0 2400 3000" width="2400" height="3000"><g transform="translate(324.0 159.0) rotate(0.0 858.0 1332.0) scale(3.005075004290463 3.0035684287075295)"><g><path d="M127.361 827.452c13.816 9.218 34.973 39.86 20.382 47.885s-73.528 5.345-81.106-6.327c-7.578-11.673-.294-37.908-.294-37.908" fill="#fff" fill-opacity="0.08"/><path d="M116.613 886.948c-4.288 0-8.529-.147-12.502-.403-16.395-1.055-37.222-4.292-43.346-13.725-9.035-13.917-2-40.596-1.168-43.592a6.997 6.997 0 0 1 8.618-4.872 7 7 0 0 1 4.872 8.617c-2.662 9.647-4.603 26.027-.58 32.224 1.429 1.829 11.455 6.104 33.168 7.418 19.011 1.15 34.125-.899 38.694-3.412.567-.312 1.211-.667 1.29-2.519.384-8.975-12.582-27.004-22.183-33.41a6.999 6.999 0 0 1-1.938-9.708 7 7 0 0 1 9.708-1.938c11.749 7.839 29.068 30.046 28.4 45.654-.269 6.27-3.298 11.309-8.53 14.187-7.358 4.047-21.146 5.478-34.504 5.478z" fill="#241f20"/><path d="M194.073 825.244c-3.35 13.842-10.879 43.381-5.666 49.173s70.663 7.53 75.297 0-14.621-54.371-14.621-54.371" fill="#fff" fill-opacity="0.08"/><path d="M229.596 886.43c-6.138 0-12.501-.202-18.494-.609-23.27-1.578-26.28-4.923-27.898-6.721-6.279-6.977-3.732-23.441 3.544-53.353l.522-2.15a7 7 0 0 1 13.607 3.293l-.526 2.167c-5.353 22-7.573 35.539-6.617 40.31 3.881 1.211 15.365 2.798 32.052 3.039 17.331.25 27.782-1.118 31.681-2.302-.201-7.281-7.465-29.404-14.858-47.396-1.47-3.576.238-7.666 3.813-9.135s7.665.237 9.136 3.812c.2.487 4.951 12.074 9.212 24.802 8.772 26.211 7.127 32.274 4.896 35.9-2.218 3.603-6.687 6.274-21.285 7.601-5.444.494-11.976.743-18.784.743zm-35.587-16.123h.01zm64.817-.745z" fill="#241f20"/><path d="M178.649 666.727c-.991 27.713-7.387 130.677 0 149.26 7.387 18.584 73.052 9.427 83.487-3.379 16.848-20.677 1.532-104.152 8.907-177.715 2.384-23.783 15.879-144.459 19.162-179.753s-8.971-64.604-8.971-64.604l-190.675 9.591s-5.841 156.776 1.237 226.371C73.367 659.26 59.49 768.491 56.231 788.228c-13.12 23.614-9.311 54.269 3.332 46.117 23.371-15.069 74.692 3.515 79.617-15.069s34.959-136.207 43.247-166.737c11.17-41.145 14.947-171.377 14.947-171.377" fill="#fff" fill-opacity="0.08"/><path d="M55.614 842.665c-2.988 0-5.836-1.104-8.173-3.292-9.336-8.742-8.284-33.941 2.069-53.438.434-2.732 1.027-6.763 1.753-11.694 5.248-35.664 17.383-118.136 33.356-149.176-6.722-70.215-1.293-218.844-1.056-225.2a7 7 0 0 1 6.644-6.73l190.675-9.59a7.003 7.003 0 0 1 6.81 4.291c.528 1.263 12.889 31.341 9.483 67.952-2.047 22.003-8.04 76.992-12.855 121.175-2.904 26.649-5.413 49.664-6.312 58.627-3.088 30.798-2.131 63.65-1.287 92.635 1.266 43.477 2.18 74.889-9.158 88.804-9.939 12.2-49.142 19.096-72.277 15.535-12.425-1.912-20.211-6.619-23.142-13.991-4.538-11.417-4.622-45.754-3.268-86.351-3.315 12.854-6.67 25.882-9.806 38.064-6.327 24.577-11.324 43.989-13.124 50.782-1.911 7.212-7.842 11.696-17.626 13.325-6.949 1.158-15.415.921-24.383.672-14.637-.409-31.228-.871-40.582 5.161-2.527 1.629-5.186 2.438-7.742 2.438zm-.344-13.936zm42.064-421.935c-.989 30.14-4.715 158.624 1.425 218.995a6.997 6.997 0 0 1-.863 4.14c-15.231 27.08-27.982 113.729-32.782 146.35-.846 5.747-1.514 10.286-1.977 13.089a7.014 7.014 0 0 1-.787 2.26c-8.387 15.095-8.281 31.559-6.013 36.475 12.976-8.006 31.561-7.489 47.99-7.031 11.368.317 26.937.75 28.086-3.589 1.788-6.746 7.029-27.108 13.1-50.686 8.991-34.93 19.768-76.791 26.335-101.733a2066.776 2066.776 0 0 1 3.823-14.359c10.828-39.882 14.669-168.451 14.706-169.746.112-3.865 3.376-6.898 7.2-6.794a7 7 0 0 1 6.794 7.2c-.155 5.352-3.93 131.539-15.188 173.008-.938 3.458-2.149 8.004-3.567 13.385-.167 4.466-.459 10.715-.794 17.887-1.588 33.985-5.307 113.572.332 127.758.672 1.689 4.286 4.099 12.261 5.325 21.896 3.37 54.315-4.431 59.295-10.541 8.046-9.874 7.061-43.72 6.018-79.553-.856-29.409-1.826-62.741 1.352-94.439.904-9.023 3.416-32.066 6.323-58.748 4.811-44.135 10.797-99.062 12.834-120.955 2.343-25.19-3.752-47.449-6.821-56.704l-179.08 9.007z" fill="#241f20"/><path d="M276.174 179.309c19.43 7.617 97.531 65.32 97.531 65.32l85.314-30.435 29.344 27.718s-81.172 67.381-117.918 65.751-99.401-37.515-99.401-37.515" fill="#2fd1cd" fill-opacity="0.2"/><path d="M371.72 314.691c-.538 0-1.065-.012-1.586-.035-38.005-1.686-99.951-36.935-102.569-38.434a7 7 0 0 1 6.957-12.149c.612.351 61.617 35.061 96.233 36.597 25.621 1.16 81.086-38.537 106.99-59.157l-20.416-19.286-81.273 28.994a6.994 6.994 0 0 1-6.511-.963c-21.518-15.897-80.696-58.462-95.926-64.433a7 7 0 0 1 5.109-13.034c18.059 7.08 81.33 53.137 96.128 63.994l81.809-29.185a6.998 6.998 0 0 1 7.159 1.504l29.344 27.718a6.997 6.997 0 0 1 2.189 5.313 6.995 6.995 0 0 1-2.525 5.162c-.84.697-20.857 17.268-45.759 33.92-33.228 22.219-58.564 33.472-75.354 33.473z" fill="#241f20"/><path d="M321.883 216.696c-13.879 6.408-82.305 38.055-102.595 50.714s-9.038 68.217 24.016 54.152 77.751-36.628 77.751-36.628" fill="#fff" fill-opacity="0.08"/><path d="M233.123 330.803c-10.545 0-19.764-5.935-25.536-17.021-8.797-16.896-7.678-42.534 7.995-52.312 18.973-11.836 78.607-39.7 103.367-51.13a7 7 0 1 1 5.867 12.711c-24.519 11.319-83.524 38.88-101.824 50.297-7.729 4.823-9.237 21.965-2.988 33.968 4.682 8.99 11.6 11.616 20.558 7.804 32.46-13.812 76.893-36.211 77.338-36.436a7 7 0 0 1 6.308 12.498c-.449.227-45.281 22.827-78.164 36.819-4.425 1.883-8.776 2.8-12.921 2.801z" fill="#241f20"/><path d="M272.019 237.487c0 22.856 11.396 110.633 11.396 110.633 7.748 4.346 20.876 22.966 13.296 35.848-47.293 34.36-199.177 42.591-206.152 16.159-5.687-21.552 2.127-33.759 6.975-42.07 0 0-5.59-63.777-7.668-85.248-2.078-21.47-21.34-32.477-20.633-56.113 18.204-19.263 58.281-23.576 82.324-26.268 0 0 95.142-28.545 131.857-7.555" fill="#2fd1cd" fill-opacity="0.2"/><path d="M159.496 425.335c-23.024 0-43.325-2.505-56.66-7.256-10.825-3.856-17.232-9.295-19.046-16.167-5.984-22.678 1.524-36.796 6.575-45.466-1.007-11.462-5.635-64.032-7.467-82.963-.613-6.341-4.309-13.93-8.222-21.964-7.738-15.893-17.369-35.671-3.46-53.248 17.686-22.346 45.812-25.883 68.412-28.727 3.481-.438 6.77-.851 9.895-1.316 4.095-.565 99.021-13.354 137.365 8.566a7 7 0 1 1-6.949 12.154c-34.219-19.564-127.491-6.993-128.431-6.862-3.207.477-6.571.9-10.133 1.348-21.115 2.656-45.048 5.667-59.181 23.524-7.879 9.955-3.341 21.159 5.069 38.43 4.283 8.797 8.712 17.893 9.569 26.745 2.056 21.256 7.616 84.672 7.673 85.31a6.997 6.997 0 0 1-.927 4.138l-.523.895c-4.668 7.964-10.477 17.875-5.729 35.862.087.33 1.111 3.31 10.207 6.551 34.587 12.322 129.711 7.403 168.22-19.054 1.115-2.878.611-6.324-.07-8.845-2.18-8.068-8.694-16.264-12.048-18.145a7 7 0 0 1-3.565-6.48c.05-.922 4.948-92.472 4.948-114.88a7 7 0 1 1 14 0c0 20.408-3.824 94.009-4.767 111.842 5.894 5.044 12.299 14.209 14.947 24.011 2.115 7.829 1.447 15.002-1.933 20.746a6.986 6.986 0 0 1-1.919 2.113c-18.613 13.523-52.103 23.523-91.881 27.434-11.631 1.144-23.105 1.702-33.971 1.702z" fill="#241f20"/><path d="M17.267 465.533c-4.134 12.401-12.992 41.928-9.448 50.195s23.621 33.07 31.889 29.527c8.267-3.543 7.086-15.944 7.086-15.944 4.134.591 19.019-6.152 19.549-23.744.529-17.593 2.892-32.356 2.892-32.356" fill="#fff" fill-opacity="0.08"/><path d="M37.958 552.608c-5.866 0-12.797-4.247-21.025-12.849-6.752-7.058-13.291-16.005-15.549-21.273-4.253-9.922 2.679-35.476 9.242-55.166a7 7 0 0 1 13.281 4.427c-7.833 23.5-11.057 41.458-9.646 45.244 3.143 7.332 17.746 23.851 23.252 25.499 2.108-1.605 2.484-6.418 2.308-8.557a7.046 7.046 0 0 1 2.175-5.694 6.997 6.997 0 0 1 5.357-1.906c1.81-.314 11.617-4.515 11.992-16.977.537-17.838 2.877-32.63 2.977-33.251a6.996 6.996 0 0 1 8.017-5.806 7.002 7.002 0 0 1 5.808 8.016c-.022.144-2.299 14.566-2.807 31.462-.292 9.704-4.336 18.314-11.388 24.246-2.629 2.211-5.525 3.927-8.334 5.009-.815 6.227-3.742 13.481-11.153 16.657a11.318 11.318 0 0 1-4.506.919zm.07-14.005h.01z" fill="#241f20"/><path d="M76.707 202.616c-21.741 30.004-46.316 113.88-49.269 139.273S10.771 450.77 17.267 465.533s46.061 22.44 51.967 7.677c5.905-14.763 17.848-102.976 21.391-116.558s25.851-70.05 25.851-70.05" fill="#2fd1cd" fill-opacity="0.2"/><path d="M51.742 488.162c-15.629 0-35.444-7.451-40.882-19.81-5.021-11.412-1.495-45.983 6.768-105.787 1.216-8.798 2.266-16.396 2.857-21.485 2.925-25.149 27.601-110.895 50.554-142.572a7 7 0 0 1 11.336 8.215c-21.327 29.434-45.26 112.553-47.983 135.974-.609 5.239-1.669 12.906-2.896 21.785-2.453 17.755-5.506 39.851-7.36 59.375-2.892 30.454-1.084 37.44-.461 38.856 2.36 5.364 15.657 11.686 28.65 11.443 5.415-.092 9.599-1.518 10.41-3.546 3.353-8.384 9.517-46.834 14.018-74.91 3.16-19.713 5.656-35.285 7.099-40.815 3.609-13.834 25.197-68.533 26.114-70.855a6.998 6.998 0 0 1 9.083-3.938 7 7 0 0 1 3.938 9.082c-.222.561-22.192 56.226-25.589 69.245-1.272 4.878-3.968 21.694-6.822 39.497-6.182 38.565-11.2 68.788-14.843 77.894-3.104 7.76-11.332 12.144-23.17 12.345a55.82 55.82 0 0 1-.821.007z" fill="#241f20"/><path d="M209.664 184.706c0 23.88-59.111 23.88-59.111 0v-17.348c-17.239-3.445-29.66-11.058-34.695-25.058-14.085-7.108-20.581-18.26-16.777-34.901-25.972-1.097-23.45-60.825 2.522-59.728 3.966-27.603 18.875-35.335 42.404-27.413 5.642-13.953 34.786-21.292 46.307-4.712l19.656 5.568c20.078-5.992 40.818 14.216 29.983 33.41 24.53 2.675 34.766 36.193 12.98 50.853 11.55 14.229 2.908 36.419-18.853 40.778-2.096 10.575-10.319 17.557-22.552 22.188l-1.863 16.362z" fill="#fff" fill-opacity="0.08"/><g fill="#241f20"><path d="M180.109 174.358a7 7 0 1 1 0-14c13.905 0 42.841 0 47.218-16.044a6.998 6.998 0 0 1 5.463-5.038c13.156-2.467 19.408-12.873 18.61-21.411-.307-3.281-2.229-10.907-13.437-10.907h-.029a7 7 0 0 1-.007-14h.035c17.391 0 26.279 11.851 27.377 23.605 1.283 13.738-7.4 30.165-25.934 35.517-9.652 22.277-42.868 22.279-59.297 22.279z"/><circle cx="156.776" cy="107.399" r="7.125"/><circle cx="197.44" cy="107.399" r="7.125"/><path d="M99.09 114.4c-.344 0-.691-.025-1.041-.078-17.618-2.627-25.484-22.245-24.148-40.266 1.248-16.824 9.346-28.997 20.89-32.414 1.125-9.999 6.17-19.185 13.946-24.919 8.713-6.424 20.091-8.039 32.473-4.71 5.275-6.272 13.128-10.427 22.305-11.656 12.142-1.628 24.046 2.237 31.842 10.333a6.998 6.998 0 0 1-.187 9.897 6.999 6.999 0 0 1-9.897-.187c-4.648-4.826-12.275-7.189-19.9-6.168-6.92.926-12.469 4.346-15.223 9.383a7 7 0 0 1-8.59 3.2c-9.953-3.716-18.431-3.31-24.513 1.175-5.572 4.109-8.892 11.677-8.455 19.279a6.998 6.998 0 0 1-6.988 7.401c-8.4 0-13.011 10.585-13.74 20.421-.837 11.295 3.172 24.03 12.251 25.384a7.001 7.001 0 0 1-1.023 13.925zm153.846-2.022a6.98 6.98 0 0 1-5.443-2.595 6.998 6.998 0 0 1 1.034-9.845c12.11-9.808 9.065-21.534 7.193-26.12-3.08-7.549-9.593-12.858-15.109-12.324a7 7 0 0 1-5.984-11.512c4.137-4.85-.041-11.575-1.421-13.52-4.537-6.401-13.339-11.667-20.713-8.817a7 7 0 0 1-5.045-13.06c14.131-5.458 29.398 2.802 37.18 13.78 4.858 6.854 6.68 14.194 5.438 20.781 7.848 3.054 14.813 10.057 18.618 19.382 4.907 12.027 4.504 29.453-11.346 42.289a6.969 6.969 0 0 1-4.401 1.56z"/><path d="M176.811 209.617c-.639 0-1.273-.01-1.911-.029-19.042-.594-31.347-10.361-31.347-24.882v-11.427c-14.126-3.33-28.829-13.22-33.497-25.865-15.238-7.638-22.345-26.569-18.454-39.9 3.088-10.582 12.324-16.006 23.831-14.182 20.028-6.612 27.217-20.102 27.217-30.713a7 7 0 1 1 14 0c0 15.188-10.153 35.987-38.771 44.621a6.96 6.96 0 0 1-3.558.127c-6.729-1.512-8.495 1.379-9.28 4.069-2.051 7.029 2.165 20.298 13.194 24.281a7.001 7.001 0 0 1 4.486 5.211c1.702 8.512 16.067 18.332 28.465 19.459a7 7 0 0 1 6.366 6.971v17.348c0 9.589 13.611 10.759 17.783 10.889 14.303.439 26.999-5.854 27.341-11.326.008-.119.018-.237.031-.355l2.309-20.268c.438-3.842 3.908-6.604 7.747-6.163a7 7 0 0 1 6.163 7.747l-2.291 20.111c-1.128 15.443-20.752 24.276-39.825 24.277z"/><path d="M169.299 86.413a6.999 6.999 0 0 1-5.851-10.831c3.614-5.528 2.974-19.743-2.927-28.452a7 7 0 0 1 1.869-9.722c3.199-2.171 7.552-1.33 9.721 1.869 8.772 12.948 10.171 33.082 3.054 43.966a6.993 6.993 0 0 1-5.865 3.17zm52.724 3.062c-10.158 0-18.916-3.577-25.394-10.389-7.46-7.845-11.332-19.71-10.36-31.74.312-3.854 3.705-6.727 7.541-6.413a7 7 0 0 1 6.414 7.541c-.657 8.123 1.792 15.96 6.551 20.965 3.993 4.2 9.422 6.226 16.156 6.022l.216-.003a7 7 0 0 1 .208 13.996 42.5 42.5 0 0 1-1.332.021zM46.793 536.31a7 7 0 0 1-7-7v-19.487a7 7 0 1 1 14 0v19.487a7 7 0 0 1-7 7z"/></g><path d="M334.415 495.802c.728 30.579 18.202 128.869 21.842 146.342-1.809 38.068 26.939 136.149 28.395 149.254s5.776 38.616 21.09 36.054 26.51-29.474 25.206-44.266c-2.074-23.526-3.342-107.825-7.816-134.355-2.978-17.659-10.814-114.441-10.814-114.441" fill="#fff" fill-opacity="0.08"/><path d="M403.658 834.63c-3.972 0-7.717-1.263-10.974-3.725-7.85-5.933-12.753-18.603-14.989-38.734-.364-3.277-3.161-14.581-6.399-27.669-9.209-37.217-23.076-93.26-22.067-121.789-3.899-19.152-21.071-115.69-21.811-146.746a7 7 0 0 1 6.832-7.165c3.819-.088 7.071 2.968 7.164 6.832.717 30.138 18.345 128.992 21.696 145.081.121.579.168 1.17.14 1.76-1.245 26.192 13.078 84.078 21.636 118.663 4.112 16.618 6.278 25.476 6.724 29.486 2.399 21.597 7.454 27.553 9.516 29.111 1.07.809 2.072 1.045 3.462.812 10.123-1.694 20.511-24.011 19.389-36.748-.777-8.812-1.427-25.578-2.18-44.991-1.252-32.289-2.81-72.473-5.565-88.815-2.993-17.753-10.567-111.076-10.889-115.04a7 7 0 0 1 6.413-7.542c3.836-.312 7.229 2.559 7.542 6.412.078.965 7.845 96.68 10.738 113.842 2.905 17.229 4.417 56.209 5.75 90.601.746 19.228 1.39 35.834 2.136 44.303 1.599 18.132-11.664 48.546-31.023 51.785a19.61 19.61 0 0 1-3.239.274z" fill="#241f20"/><path d="M405.742 562.056c2.209 20.386 10.945 61.158 21.866 77.175 10.921 16.018 71.729 136.374 73.185 154.575 1.456 18.202-4.746 28.898-5.475 38.363-.728 9.465 51.693-16.154 51.693-44.549S515.189 647.239 489.6 629.765c0 0 1.35-63.494-5.931-84.168" fill="#fff" fill-opacity="0.08"/><path d="M497.914 841.187c-3.259 0-4.874-1.046-5.7-1.582-2.677-1.734-4.126-4.714-3.875-7.971.303-3.932 1.325-7.776 2.408-11.845 1.838-6.912 3.922-14.747 3.068-25.423-1.297-16.21-61.099-135.215-71.991-151.19-12.751-18.702-21.163-63.019-23.042-80.365a6.999 6.999 0 0 1 6.205-7.713 7.008 7.008 0 0 1 7.713 6.206c2.298 21.206 10.988 59.755 20.69 73.986 10.976 16.095 72.76 137.708 74.38 157.961 1.046 13.07-1.472 22.534-3.494 30.138-.197.742-.39 1.463-.571 2.164 6.384-2.629 16.354-8.348 24.574-16.392 5.353-5.237 11.732-13.225 11.732-21.538 0-13.744-8.063-48.491-18.756-80.825-12.366-37.396-26.009-64.698-35.603-71.249a6.996 6.996 0 0 1-3.051-5.929c.366-17.31.087-65.729-5.536-81.694a7 7 0 0 1 13.205-4.651c6.684 18.978 6.553 69.334 6.383 83.168 14.91 13.373 28.704 48.17 37.894 75.959 11.278 34.104 19.464 69.945 19.464 85.221 0 19.864-20.054 37.816-37.227 47.153-9.283 5.047-15.149 6.412-18.871 6.412z" fill="#241f20"/><path d="M430.948 783.186c1.455 11.012 1.009 35.042 8.415 58.089 5.606 17.448-1.404 27.67-8.415 30.245-11.612 4.266-49.554 7.137-57.718 2.113s-14.445-27.532 0-37.945c14.445-10.414 11.423-44.289 11.423-44.289 12.491 7.728 43.367 11.809 46.296-8.213z" fill="#fff" fill-opacity="0.08"/><path d="M392.379 883.314c-9.722 0-18.433-1.021-22.818-3.72-6.652-4.093-11.563-14.221-11.944-24.628-.382-10.463 3.709-19.326 11.52-24.957 8.131-5.862 9.555-26.416 8.543-37.995a7.006 7.006 0 0 1 3.302-6.573 7 7 0 0 1 7.354.004c7.578 4.688 22.577 7.253 30.564 3.536 3.062-1.426 4.643-3.526 5.122-6.809a7.002 7.002 0 0 1 6.926-5.987h.05a7 7 0 0 1 6.891 6.083c.407 3.08.665 6.934.964 11.397.824 12.329 1.954 29.214 7.176 45.467 6.473 20.144-1.472 34.846-12.666 38.958-6.975 2.562-25.292 5.224-40.981 5.224zm-.468-81.163c-.34 12.24-2.909 30.795-14.587 39.214-4.988 3.596-5.861 9.103-5.716 13.089.239 6.561 3.28 11.979 5.291 13.216 5.695 3.213 40.45 1.388 51.635-2.722 3.985-1.464 8.383-8.406 4.165-21.533-4.803-14.947-6.428-29.884-7.341-42.007-.182.089-.364.177-.55.263-9.358 4.357-22.295 3.715-32.897.479z" fill="#241f20"/><path d="M500.793 793.807c0 16.877-14.172 53.446-24.417 55.933-16.305 3.958-19.14 30.43 4.576 30.204 23.717-.227 48.706-.51 55.407-33.559 4.193-20.682 11.472 17.911 20.893 18.939s7.402-21.745 3.633-45.277c-3.768-23.532-13.874-32.424-13.874-32.424-13.705 9.317-41.233 19.135-46.218 6.186z" fill="#fff" fill-opacity="0.08"/><path d="M480.649 886.945c-15.9 0-22.778-9.831-23.833-18.306-1.442-11.582 6.364-22.832 17.786-25.671 1.609-.79 6.505-6.506 11.807-19.569 4.417-10.883 7.385-22.775 7.385-29.592a7 7 0 0 1 13.533-2.515c.145.375.342.888 1.687 1.308 7.143 2.234 23.877-3.841 34.064-10.768a7 7 0 0 1 8.56.534c1.228 1.081 12.112 11.285 16.162 36.573 4.805 30.003 4.345 43.52-1.697 49.872-2.512 2.64-5.933 3.875-9.607 3.47-7.242-.79-11.543-8.335-15.445-16.333-4.271 12.661-11.944 21.197-23.295 25.975-11.347 4.777-24.252 4.9-36.733 5.019l-.371.002zm25.653-80.583c-1.705 8.189-4.622 16.808-7.415 23.502-6.657 15.958-13.676 24.934-20.859 26.677-5.162 1.253-7.818 6.357-7.319 10.368.663 5.329 6.668 6.061 10.179 6.034 26.678-.255 43.298-1.742 48.612-27.951.655-3.231 2.189-10.797 8.912-11.631 6.916-.869 10.031 5.642 13.976 13.87 1.112 2.32 2.846 5.936 4.414 8.525.545-4.456.464-14.056-2.827-34.604-1.976-12.338-5.829-20.123-8.565-24.347-10.976 6.129-27.47 12.284-39.106 9.556z" fill="#241f20"/><path d="M454.717 379.464c26.041 38.86 54 140.198 48.5 182.841-20.672 25.795-126.921 55.55-165.664 40.755-9.794-34.751-20.017-172.056 3.815-212.524z" fill="#2fd1cd" fill-opacity="0.2"/><path d="M356.372 610.97c-15.897 0-30.657-1.599-41.334-5.676a6.999 6.999 0 0 1-4.485-7.029c.374-5.342.61-14.895.909-26.989 1.296-52.44 3.708-150.05 23.873-184.292a7.004 7.004 0 0 1 5.352-3.415l113.349-11.072a6.986 6.986 0 0 1 6.496 3.07c26.729 39.887 40.578 149.347 34.772 194.353a7.012 7.012 0 0 1-1.479 3.482c-15.841 19.767-67.469 29.956-82.915 32.608-16.718 2.87-36.369 4.96-54.537 4.96zm-31.559-17.23c17.987 4.794 49.878 4.285 83.728-1.528 34.635-5.947 63.454-16.322 73.129-26.186 4.706-42.856-7.966-140.617-30.583-179.174l-105.329 10.289c-16.829 34.083-19.161 128.414-20.299 174.481-.221 8.923-.407 16.482-.646 22.119z" fill="#241f20"/><path d="M467.69 210.368c12.008 2.895 33.739 4.221 43.427 24.775s34.221 104.096 32.894 123.987c-1.326 19.891-16.576 78.655-18.565 91.253s1.418 42.434-9.236 56.358c-10.655 13.924-28.557 16.801-33.198 14.368s4.686-33.596 4.686-33.596-3.36 11.272-11.316 6.63 2.652-36.812 14.587-53.706c0 0 4.868-69.722 3.63-81.307-1.933-18.103-21.039-79.553-32.231-76.092" fill="#fff" fill-opacity="0.08"/><path d="M487.528 528.876c-3.104 0-5.784-.529-7.765-1.567-6.373-3.34-5.922-11.839-2.989-25.391l.015-.071c-1.24-.324-2.557-.854-3.933-1.657-2.029-1.184-4.671-3.624-5.735-8.524-2.928-13.481 7.628-39.51 16.997-53.61 1.922-27.852 4.362-70.314 3.522-78.182-.728-6.808-4.685-23.09-10.584-39.853-7.121-20.231-12.47-28.045-14.535-29.982-3.086.087-5.895-1.876-6.84-4.932a7 7 0 0 1 4.619-8.756c3.07-.952 6.414-.383 9.416 1.594 14.633 9.634 30.192 64.979 31.844 80.442 1.267 11.858-3.105 75.339-3.607 82.539a6.998 6.998 0 0 1-1.267 3.551c-9.578 13.559-16.256 34.194-16.165 42.169.194-.397.366-.809.484-1.182a7.002 7.002 0 0 1 8.696-4.658 6.999 6.999 0 0 1 4.705 8.707l-.01.033c-2.886 9.656-5.143 20.033-5.614 25.319 5.191-.462 15.15-3.598 21.868-12.377 6.214-8.119 6.645-25.357 6.959-37.944.15-5.998.279-11.177.923-15.251.727-4.601 2.963-14.317 5.795-26.619 5.01-21.759 11.87-51.559 12.7-64.008 1.177-17.658-22.278-99.399-32.242-120.536-6.832-14.495-21.3-17.391-32.925-19.718-2.058-.412-4.001-.801-5.812-1.237a7 7 0 0 1-5.164-8.446 6.998 6.998 0 0 1 8.445-5.165c1.545.373 3.358.736 5.278 1.12 13.143 2.631 33.004 6.606 42.841 27.476 9.86 20.919 34.971 106.088 33.547 127.437-.904 13.566-7.625 42.76-13.025 66.218-2.661 11.56-4.96 21.542-5.61 25.661-.499 3.162-.623 8.144-.755 13.418-.383 15.313-.859 34.372-9.837 46.102-9.31 12.167-24.047 17.88-34.241 17.881z" fill="#241f20"/><path d="M365.2 210.618s-36.436-2.135-43.317 6.078-5.293 41.03 2.646 55.85c0 0-15.35 35.147 10.813 59.351 0 0 10.69 41.658 6.025 58.639s117.074 14.864 113.349-11.072c-3.249-22.624-8.964-45.52.027-60.869 8.991-15.35 8.556-39.102 6.127-55.543s6.819-52.683 6.819-52.683l-32.538-3.455" fill="#fff" fill-opacity="0.08"/><path d="M384.475 408.466c-13.351 0-36.394-1.074-45.441-8.02-3.955-3.036-5.605-7.434-4.416-11.765 3.238-11.787-2.542-40.69-5.576-53.131-23.112-22.951-15.46-52.972-12.116-62.683-7.502-17.326-9.185-50.191-.407-60.668 8.251-9.848 37.082-9.275 49.092-8.57a6.999 6.999 0 0 1 6.578 7.396c-.225 3.859-3.521 6.793-7.396 6.581-16.706-.972-34.624.759-37.585 3.631-4.226 5.047-3.827 34.339 3.492 48.002a6.994 6.994 0 0 1 .245 6.107c-.531 1.236-12.944 30.969 9.152 51.411a7.002 7.002 0 0 1 2.026 3.398c1.095 4.266 10.211 40.799 6.538 59.882 4.525 2.246 18.744 4.833 40.23 4.387 22.914-.471 43.494-4.06 53.708-9.366 3.739-1.942 5.311-3.747 5.188-4.602-.486-3.386-1.041-6.853-1.577-10.205-3.146-19.674-6.397-40.017 2.493-55.197 9.467-16.162 6.406-43.108 5.242-50.982-1.92-12.999 2.402-35.514 5.099-47.586l-24.631-2.615a7 7 0 0 1-6.222-7.7c.409-3.844 3.87-6.631 7.7-6.222l32.537 3.455a7 7 0 0 1 6.044 8.691c-2.475 9.708-8.499 37.602-6.678 49.931 1.708 11.557 4.443 40.548-7.012 60.104-6.354 10.849-3.632 27.88-.748 45.911.544 3.406 1.107 6.929 1.609 10.425.58 4.035-.05 11.74-10.776 18.016-16.831 9.847-49.521 11.578-59.139 11.874-1.752.054-4.26.108-7.255.108z" fill="#241f20"/><path d="M476.951 195.18c8.151-7.064 6.521 5.635 19.562 7.436s23.366 5.605 19.562 15.93-14.96 27.17-19.163 20.106-6.513-12.866-14.528-11.411c-8.015 1.454-20.979-3.55-18.912-8.839s13.478-23.221 13.478-23.221z" fill="#fff" fill-opacity="0.08"/><path d="M499.501 247.332c-3.508 0-6.676-1.86-8.604-5.102-.458-.77-.895-1.525-1.319-2.259-3.62-6.267-3.974-6.203-5.943-5.843-7.601 1.377-19.638-1.416-24.757-7.633-2.622-3.184-3.323-7.062-1.926-10.642 2.205-5.639 12.127-21.341 14.094-24.432a7.026 7.026 0 0 1 1.32-1.532c9.553-8.278 16.039-.924 18.171 1.492 1.876 2.126 3.357 3.806 6.935 4.3 8.92 1.232 19.748 3.628 24.339 11.283 1.693 2.824 3.213 7.545.834 14.001-.093.251-9.815 25.181-22.218 26.323a9.952 9.952 0 0 1-.925.043zm-14.688-27.327c8.484 0 12.792 6.027 15.915 11.294 2.785-3.262 6.645-9.38 8.779-15.173.335-.91.454-1.697.297-1.96-.178-.295-2.083-2.935-14.249-4.616-7.648-1.056-11.86-4.893-14.495-7.764-3.555 5.685-7.811 12.754-9.929 16.787 2.367 1.195 6.769 2.369 10.003 1.779a20.625 20.625 0 0 1 3.679-.347z" fill="#241f20"/><path d="M365.2 189.217v21.401s14.195 45.52 28.841 41.285c14.646-4.234 41.111-44.99 41.111-44.99-15.21-1.588-16.983-13.967-17.17-29.861" fill="#fff" fill-opacity="0.08"/><path d="M391.954 259.213c-12.567 0-21.103-17.217-24.097-23.255-5.562-11.218-9.188-22.77-9.339-23.256a7.013 7.013 0 0 1-.317-2.084v-21.4a7 7 0 1 1 14 0v20.295c.914 2.766 3.732 10.958 7.598 18.994 6.66 13.848 11.389 16.675 12.293 16.675 7.099-2.054 21.43-19.382 31.967-34.37-12.762-7.054-12.961-23.839-13.077-33.676a7 7 0 0 1 6.917-7.082 6.975 6.975 0 0 1 7.082 6.917c.223 18.831 3.396 22.197 10.898 22.981a7.002 7.002 0 0 1 5.145 10.774c-4.657 7.171-28.713 43.183-45.038 47.903a14.448 14.448 0 0 1-4.032.585z" fill="#241f20"/><path d="M431.16 154.235c-5.398 12.52-22.018 37.158-47.885 38.824s-49.976-31.176-52.722-71.232c-29.82-25.273-7.271-70.558 37.077-73.918l23.672-2.713 7.014-.506c19.95-46.747 82.079-14.164 85.147 8.407 4.899 36.03-20.211 74.445 27.654 95.693 0 0-5.777 12.95-17.997 13.092 0 0-16.236 22.575-39.324 9.132-11.479-6.683-22.636-16.781-22.636-16.781z" fill="#fff" fill-opacity="0.08"/><path d="M379.834 200.259c-9.33 0-18.114-3.624-26.17-10.806-19.77-17.63-30.111-53.396-30.111-67.625a7 7 0 1 1 14 0c0 10.317 8.651 42.215 25.43 57.176 6.243 5.568 12.628 7.89 19.493 7.102 28.669-3.292 38.607-22.641 41.979-33.882a7.001 7.001 0 0 1 4.753-4.71c10.192-2.959 14.782-9.79 15.679-15.195.461-2.776-.104-5.337-1.374-6.227-1.162-.814-4.196-.822-8.919 1.837a7 7 0 0 1-6.294.289c-.629-.281-15.394-7.17-15.923-31.509a7 7 0 0 1 6.846-7.151c3.823-.089 7.065 2.98 7.15 6.846.213 9.775 3.338 14.859 5.578 17.262 9.87-4.064 16.396-1.282 19.596.961 5.783 4.053 8.523 11.709 7.151 19.982-1.473 8.881-8.041 19.777-22.002 25.145-4.751 12.979-18.023 36.288-52.623 40.261a37.064 37.064 0 0 1-4.239.246z" fill="#241f20"/><path d="M400.934 114.4a6.968 6.968 0 0 1-3.975-1.243c-7.297-5.044-17.252-20.154-16.168-34.281.296-3.854 3.657-6.747 7.516-6.444a7 7 0 0 1 6.443 7.515c-.665 8.664 6.737 19.321 10.17 21.694a6.998 6.998 0 0 1 1.777 9.738 6.992 6.992 0 0 1-5.764 3.02z" fill="#241f20"/><circle cx="360.503" cy="134.67" fill="#241f20" r="7.125"/><circle cx="394.041" cy="132.646" fill="#241f20" r="7.125"/><path d="M330.554 128.828a6.996 6.996 0 0 1-4.073-1.307c-14.686-10.504-20.59-28.071-15.41-45.847 5.561-19.08 25.089-39.081 56.183-40.754a6.991 6.991 0 0 1 7.366 6.613 7 7 0 0 1-6.614 7.366c-24.247 1.305-39.315 16.355-43.494 30.692-3.172 10.886-.413 21.237 7.377 28.333 10.689-4.146 23.285-12.278 29.18-28.147a7 7 0 1 1 13.123 4.875c-6.633 17.857-21.361 31.293-41.474 37.832a6.994 6.994 0 0 1-2.163.343zm115.693-2.22a7 7 0 0 1-6.782-8.758c5.009-19.323.86-38.772-11.098-52.027-9.67-10.719-22.79-15.717-36.015-13.706-3.824.586-7.391-2.046-7.973-5.869a7 7 0 0 1 5.869-7.972c17.96-2.729 35.636 3.894 48.514 18.169 15.118 16.758 20.447 41.026 14.255 64.917a7.003 7.003 0 0 1-6.771 5.245z" fill="#241f20"/><path d="M490.734 168.933c-4.559 0-9.613-1.088-15.128-3.735a7 7 0 0 1 6.059-12.621c8.52 4.089 14.508 1.951 18.299-1.063-17.825-8.95-24.511-20.635-26.327-43.561-.613-7.748.938-14.934 2.437-21.884 2.132-9.884 4.146-19.22.677-30.991-5.684-19.276-24.072-28.212-39.775-28.517-15.688-.292-27.619 7.311-32.025 20.368a7.001 7.001 0 0 1-13.266-4.477c6.251-18.521 23.204-29.9 44.404-29.9.385 0 .771.004 1.157.011 20.809.404 45.246 12.482 52.933 38.555 4.479 15.194 1.877 27.258-.419 37.902-1.346 6.237-2.617 12.127-2.165 17.826 1.655 20.9 6.774 27.854 26.081 35.427a6.999 6.999 0 0 1 3.677 9.701c-3.548 6.948-12.797 16.958-26.618 16.958z" fill="#241f20"/><path d="M468.548 181.806c-9.037 0-17.78-3.225-24.579-9.184a7 7 0 0 1-.649-9.878 7 7 0 0 1 9.878-.65c5.038 4.417 11.826 6.419 18.621 5.49 6.519-.89 12.003-4.276 15.445-9.535a6.998 6.998 0 0 1 9.69-2.023 6.998 6.998 0 0 1 2.022 9.69c-5.613 8.576-14.821 14.312-25.264 15.738-1.725.236-3.45.352-5.165.352z" fill="#241f20"/></g></g></svg>