<svg xmlns="http://www.w3.org/2000/svg" fill="none" viewBox="0 0 1100 1000" width="1100" height="1000"><defs><clipPath id="assetClipPath_tKpQdxC6"><path d="m0 0 h 296.051 v 381.05 h -296.051 v -381.05 z" id="path_I1QJdTmN" fill="#ffffff" fill-opacity="0.08" /></clipPath><clipPath id="assetClipPath_WEPStr66"><path d="m0 0 h 344.219 v 826.211 h -344.219 v -826.211 z" id="path_7PHf2ALG" fill="#ffffff" fill-opacity="0.08" /></clipPath><clipPath id="assetClipPath_FHG0vrx5"><path d="m0 0 h 383.339 v 842.854 h -383.339 v -842.854 z" id="path_95NFZUUH" fill="#ffffff" fill-opacity="0.08" /></clipPath></defs><g transform="translate(387 525)" data-asset-index="0"><g clip-path="url(#assetClipPath_tKpQdxC6)" transform="scale(1.0032055287771364 1.0032055287771364)" data-asset-index="0"><path d="m121.067 94.121c1.145 6.641 0 16.459 0 16.459 2.82 21.081 46.529 25.115 47.152-.661v-17.466s-47.152 1.668-47.152 1.668z" fill="#FFFFFF" fill-opacity="0.08" id="MlFybsaGMb7PP5qyLw-8X" /><path d="m117.478 92.452c-12.492 1.94-16.088-10.631-13.844-19.8-28.989-32.47 11.589-73.376 35.565-65.003h22.172c31.116 5.244 40.343 27.959 33.388 52.181 15.27 26.287.01 56.293-47.024 46.686l-30.257-14.063z" fill="#FFFFFF" fill-opacity="0.08" id="TJgwTvhcBQya-4PHH_P" /><g fill="#231F20" id="o6Spj4kijlJR8moldOzX8"><path d="m163.449 115.758c-5.704 0-11.64-.818-17.616-2.505-3.721-1.051-5.885-4.918-4.835-8.639 1.051-3.719 4.919-5.881 8.639-4.834 18.604 5.254 33.301-.757 39.616-9.042 5.756-7.551 5.583-17.242-.485-27.287-.981-1.624-1.261-3.577-.775-5.412 3.313-12.513 1.978-23.791-3.76-31.756-5.021-6.971-13.08-10.998-23.305-11.647-3.858-.245-6.788-3.571-6.542-7.429s3.578-6.782 7.429-6.542c14.338.91 26.333 7.103 33.778 17.437 7.764 10.777 10.08 25.14 6.622 40.696 7.467 14.116 6.846 29.049-1.827 40.428-8.157 10.703-21.715 16.534-36.938 16.535z" fill="#231F20" id="dhQIUq6K5MHLJqmM36ngn" /><path d="m117.478 99.453c-9.391 0-17.106-4.606-20.639-12.321-3.109-6.791-2.335-14.671 1.925-19.608 3.553-4.117 9.031-5.6 14.652-3.966 3.712 1.078 5.848 4.961 4.77 8.674s-4.964 5.848-8.674 4.77c-.117-.034-.216-.057-.298-.073-.307.71-.527 2.456.358 4.383 1.245 2.709 3.979 4.141 7.906 4.141 3.866 0 7 3.134 7 7s-3.134 7-7 7z" fill="#231F20" id="ZBjeQFlFOp5V6Lci6jiv7" /><path d="m103.632 79.653c-1.656 0-3.318-.584-4.653-1.772-12.889-11.477-15.213-31.889-5.783-50.791 9.865-19.775 28.461-30.1 47.38-26.304 3.791.761 6.247 4.45 5.486 8.24-.761 3.791-4.45 6.249-8.24 5.486-15.234-3.056-26.812 8.232-32.099 18.828-5.468 10.96-6.795 25.75 2.566 34.085 2.887 2.571 3.144 6.996.572 9.883-1.383 1.553-3.302 2.345-5.23 2.345z" fill="#231F20" id="sSQrWOZIPFYYKSB-XTBh" /><path d="m125.933 72.808c-3.51 0-6.538-2.634-6.946-6.206-.439-3.841 2.319-7.311 6.16-7.75 3.245-.371 6.886-2.921 9.991-6.996 4.577-6.008 6.439-13.133 5.869-16.786-.597-3.82 2.016-7.4 5.835-7.997 3.819-.595 7.4 2.016 7.997 5.835 1.275 8.161-2.086 18.928-8.564 27.432-5.482 7.197-12.421 11.609-19.538 12.422-.27.031-.539.046-.804.046z" fill="#231F20" id="ylHfClWXdnYFTbiWgNRs" /><path d="m174.091 59.044c-.432 0-.871-.041-1.311-.124-3.798-.719-6.294-4.382-5.575-8.18.631-3.333-2.004-10.381-6.938-13.288-3.331-1.962-4.44-6.253-2.478-9.584 1.963-3.33 6.254-4.44 9.584-2.478 10.493 6.181 15.222 19.324 13.587 27.956-.636 3.358-3.573 5.699-6.87 5.699z" fill="#231F20" id="KPP_bWcCVSdY3xUY_Pxs" /><circle cx="152.296" cy="72.653" r="6.792" fill="#231F20" id="aA8UIPTMt7ZZ8wNf5i1rj" /><circle cx="175.011" cy="69.896" r="6.792" fill="#231F20" id="HMBryKKbNHB-0QYh5gnS9" /></g><path d="m94.455 109.812c-6.082-1.289-31.905-12.15-31.905-12.15l-22.795-37.832s6.778-17.91 0-19.72c-6.778-1.809-9.467 6.231-9.467 6.231-11.07-24.827-33.844-6.515-17.667 13.488l8.834 10.066s10.754 38.305 20.356 44.45 45.32 26.384 45.32 26.384" fill="#FFFFFF" fill-opacity="0.08" id="MIDx7liJcTSnVAal8k9zx" /><path d="m87.124 147.731c-1.169 0-2.354-.293-3.445-.911-1.465-.83-35.993-20.403-45.642-26.579-10.462-6.696-19.696-35.849-22.883-46.914l-7.793-8.881c-.062-.071-.123-.143-.182-.215-7.227-8.935-9.156-19.155-5.162-27.338 2.926-5.996 8.72-9.664 14.995-9.543 2.793.048 8.701.991 14.181 7.281 2.935-1.676 6.477-2.321 10.369-1.284 2.899.774 5.269 2.706 6.671 5.439 2.948 5.747 1 14.599-.79 20.238l19.921 33.063c9.91 4.128 24.858 10.095 28.543 10.876 3.782.802 6.197 4.518 5.396 8.299-.801 3.782-4.515 6.198-8.3 5.396-6.407-1.358-28.752-10.689-33.167-12.545-1.367-.575-2.517-1.57-3.282-2.84l-22.795-37.832c-1.108-1.838-1.311-4.083-.551-6.09.666-1.771 1.252-3.735 1.696-5.585-1.135.997-2.606 1.604-4.221 1.707-2.927.18-5.598-1.61-6.788-4.281-2.397-5.375-5.306-7.813-7.126-7.845-1.222.001-1.92 1.171-2.171 1.686-1.186 2.429-.913 6.927 3.382 12.292l8.735 9.955c.69.786 1.195 1.717 1.478 2.724 5.352 19.043 13.478 37.943 17.39 40.447 9.334 5.974 44.642 25.989 44.998 26.19 3.363 1.906 4.545 6.178 2.639 9.542-1.288 2.273-3.658 3.55-6.097 3.55z" fill="#231F20" id="FpPY3-yTItHwDEx6wD1QF" /><path d="m109.787 290.355c-.894 8.875 16.285 53.169 13.563 59.117s-10.167 14.671-7.758 19.092 28.029 8.84 34.645 1.783.945-24.168.945-24.168.194-40.736-7.807-51.241l-33.588-4.582z" fill="#FFFFFF" fill-opacity="0.08" id="QZysncAGaGDpCDpGgGq2W" /><path d="m136.864 381.059c-2.923 0-5.656-.241-7.842-.521-7.295-.933-16.613-3.186-19.577-8.625-3.626-6.656.772-13.886 4.652-20.264.975-1.603 1.905-3.131 2.552-4.399-.087-4.039-4.102-17.517-6.794-26.558-4.708-15.804-7.565-25.758-7.033-31.038.19-1.89 1.141-3.621 2.632-4.796s3.396-1.698 5.279-1.438l33.587 4.582c1.837.25 3.499 1.219 4.623 2.694 8.597 11.288 9.231 45.184 9.24 54.413 1.584 5.259 5.436 21.197-2.84 30.025-4.417 4.712-11.925 5.924-18.479 5.925zm-14.186-16.122c5.953 2.209 19.711 3.164 22.465.607 2.12-2.262 1.431-10.939-.61-17.177-.233-.713-.355-1.472-.352-2.222.074-16.522-1.854-36.852-5.161-44.738l-20.893-2.85c1.376 5.484 3.515 12.666 5.145 18.137 6.651 22.333 8.771 30.602 6.442 35.69-.976 2.131-2.339 4.372-3.658 6.54-1.029 1.691-2.56 4.207-3.379 6.013z" fill="#231F20" id="vZ4t9Ma58SqKR5VjwGd0D" /><path d="m225.774 263.257c4.642 9.943 3.316 53.116 3.316 53.116s18.442 11.486 19.971 18.073c1.529 6.588-22.018 12.053-27.556 9.893s-17.344-12.681-17.344-12.681-15.341-41.234-9.085-50.371l30.698-18.031z" fill="#FFFFFF" fill-opacity="0.08" id="XcqYzbpIp7xw4EfxvsqFS" /><path d="m225.141 351.763c-2.45 0-4.591-.282-6.179-.901-6.388-2.492-17.329-12.08-19.458-13.977-.852-.759-1.505-1.715-1.903-2.785-.162-.434-3.988-10.756-7.092-22.396-6.146-23.051-3.875-30.477-1.208-34.37.581-.849 1.343-1.56 2.23-2.081l30.698-18.031c1.699-.999 3.741-1.234 5.624-.649 1.882.585 3.431 1.937 4.265 3.723 4.472 9.577 4.328 39.995 4.071 52.32 7.79 5.17 18.046 13.156 19.692 20.249.418 1.801.865 6.443-3.992 10.647-5.398 4.672-18.024 8.251-26.748 8.251zm-1.244-14.007c2.991.584 12.357-1.4 16.854-3.566-2.921-3.114-9.219-8.043-15.363-11.875-2.115-1.319-3.371-3.664-3.294-6.155.447-14.613.115-31.801-1.048-42.006l-20.403 11.984c-1.003 5.733 3.129 23.939 9.476 41.438 4.978 4.314 11.205 9.085 13.779 10.182z" fill="#231F20" id="O9AYCP0onq8b62xIrSMdy" /><path d="m107.431 209.652c-5.545 8.797-7.572 72.327-3.267 77.566s39.145 11.789 43.556 5.676 11.368-48.314 11.368-48.314 24.808 39.545 29.416 40.483 40.265-20.185 40.461-26.433-28.534-60.758-28.534-60.758z" fill="#FFFFFF" fill-opacity="0.08" id="HfR6IcPP5wgIhYSXtywVE" /><path d="m138.14 302.354c-11.254 0-33.773-3.863-39.385-10.692-1.368-1.665-5-6.086-3.646-42.156.498-13.276 1.992-36.593 6.4-43.587 1.116-1.771 2.966-2.949 5.042-3.211l93-11.78c2.89-.366 5.712 1.1 7.072 3.681.072.137 7.304 13.867 14.417 28.185 15.099 30.393 14.996 33.667 14.921 36.057-.126 4.031-2.895 7.824-9.553 13.091-5.287 4.182-12.94 9.173-20.474 13.352-13.797 7.652-16.824 7.035-18.828 6.629-3.429-.698-6.732-2.712-20.834-23.526-1.163-1.716-2.312-3.434-3.417-5.101-2.657 13.717-6.221 29.205-9.459 33.694-3.248 4.501-9.498 5.206-13.916 5.344-.426.013-.875.02-1.341.02zm-28.186-19.482c5.646 3.128 26.392 6.82 32.452 5.172 2.417-5.547 6.835-26.773 9.775-44.603.474-2.872 2.674-5.15 5.527-5.724 2.854-.573 5.763.677 7.31 3.142 9.097 14.5 20.494 31.302 25.27 36.655 7.58-2.935 26.529-14.616 31.313-19.901-2.355-7.161-13.79-30.51-25.111-52.187l-83.979 10.637c-1.166 4.88-2.647 15.545-3.35 32.383-.759 18.206-.032 30.534.792 34.424zm.245.898s0 0 0 0zm111.801-24.692s0 0 0 0z" fill="#231F20" id="x38Bnt-jLJC8CeAOwX-Kz" /><path d="m200.432 108.753s31.748-14.209 35.649-19.174 14.458-40.778 14.458-40.778-2.569-12.677 5.588-14.453 8.029 7.384 8.029 7.384c10.463-26.331 36.89-3.256 18.629 10.311l-11.532 12.188s-3.963 30.667-11.41 37.76-42.912 31.918-42.912 31.918" fill="#FFFFFF" fill-opacity="0.08" id="zTRmIQwXfKLIPOlXAdDZ3" /><path d="m216.937 140.909c-2.208 0-4.379-1.041-5.741-2.986-2.217-3.167-1.447-7.532 1.72-9.749 9.745-6.822 36.303-25.733 42.098-31.252 3.372-3.211 7.529-19.961 9.296-33.589.19-1.467.84-2.838 1.857-3.913l11.532-12.188c.28-.295.584-.565.91-.808 1.942-1.442 4.083-3.721 3.258-6.387-.568-1.839-2.325-3.277-4.085-3.346-2.518-.131-5.185 2.752-7.122 7.626-1.264 3.179-4.637 5.098-7.987 4.374-2.886-.624-5.021-2.881-5.448-5.685-.137 1.321-.089 3.03.181 4.44.21 1.096.162 2.264-.153 3.334-3.288 11.156-11.397 37.689-15.668 43.124-4.323 5.502-25.848 15.668-38.294 21.238-3.529 1.581-7.669-.001-9.249-3.529-1.579-3.529 0-7.669 3.529-9.249 13.772-6.165 30.205-14.479 33.056-17.187 2.048-3.156 8.085-21.176 12.741-36.816-1.218-8.925 1.692-18.767 11.268-20.853 4.207-.917 7.352-.1 9.557 1.106 5.364-5.452 11.236-6.033 14.137-5.914 7.647.3 14.602 5.728 16.913 13.199 2.401 7.764-.5 15.708-7.765 21.366l-9.594 10.14c-1.377 9.665-5.346 32.159-13.215 39.653-7.609 7.247-40.051 30.012-43.725 32.584-1.222.855-2.622 1.266-4.008 1.266z" fill="#231F20" id="LF_DUpBySr682rHf6dDPq" /><path d="m119.958 108.753c5.984 22.702 49.097 26.219 48.26 1.166l16.152-1.166s26.471-9.263 31.765-11.028 19.142 34.412 12.659 38.382c-6.483 3.971-26.429 15.446-28.363 21.802-1.934 6.355 2.385 34.228 0 39.963s-86.383 18.397-93 11.78-1.435-41.109-5.483-48.724-23.46-12.909-23.46-12.909l3.971-45.441 37.5 6.175z" fill="#2FD1CD" fill-opacity="0.2" id="OIAl1b6qU77d7oBx9cuAI" /><path d="m119.29 218.529c-11.629 0-14.777-1.896-16.809-3.927-5.376-5.376-5.762-15.958-5.76-32.746 0-6.153.002-15.453-.984-17.701-1.338-2.512-10.454-7.013-19.097-9.384-3.261-.895-5.421-3.993-5.127-7.361l3.971-45.441c.17-1.941 1.141-3.724 2.681-4.919s3.509-1.692 5.43-1.378l37.5 6.175c2.723.449 4.928 2.455 5.632 5.123 2.43 9.22 15.137 14.515 24.879 13.086 6.568-.963 9.803-4.294 9.616-9.902-.125-3.759 2.741-6.945 6.492-7.216l15.224-1.099c4.711-1.647 26.186-9.154 30.984-10.753 8.729-2.913 14.054 8.528 16.327 13.413 2.354 5.059 13.526 30.645 2.202 37.58-.64.392-1.408.855-2.276 1.379-16.992 10.251-21.961 14.705-23.079 16.638-.481 2.36.062 10.877.425 16.554.793 12.404 1.155 19.63-.625 23.912-1.52 3.656-4.179 6.382-26.396 10.785-13.673 2.71-30.79 5.138-44.669 6.335-6.89.595-12.283.849-16.54.849zm-7.113-14.415c4.213.77 17.893.694 41.762-2.568 21.009-2.872 35.152-6.15 40.186-7.979.208-3.76-.269-11.229-.575-16.026-.69-10.791-1.05-17.611.186-21.67 2.115-6.949 12.311-14.209 29.208-24.402.208-.125.41-.248.606-.366.227-5.536-4.962-20.07-8.54-25.6-8.757 3.01-28.1 9.778-28.327 9.857-.583.205-1.191.331-1.808.375l-10.334.746c-2.257 9.236-9.909 15.814-20.903 17.426-14.456 2.12-32.312-4.549-38.858-18.913l-26.004-4.282-2.822 32.297c7.37 2.55 18.334 7.404 22.177 14.632 2.471 4.648 2.595 12.23 2.593 24.217 0 6.549-.003 18.318 1.455 22.256z" fill="#231F20" id="gZzI0oXOJCGh08ivjKUa5" /></g></g><g transform="translate(97 84)" data-asset-index="1"><g clip-path="url(#assetClipPath_WEPStr66)" transform="scale(1.008079158907556 1.008079158907556)" data-asset-index="1"><path d="m188.341 381.924c7.765 22.732 16.361 174.293 17.554 201.16 1.36 30.623-6.012 158.903-4.184 172.608 1.218 9.134 47.846 26.94 51.743 48.079 3.264 17.705-30.437 17.705-47.088 9.638-15.149-7.34-54.113-5.95-59.349-20.478-2.689-7.459 4.831-28.684 2.327-40.73-8.978-43.2-29.135-124.694-16.251-162.439 0 0-32.452-125.446-27.748-186.126" fill="#FFFFFF" fill-opacity="0.08" id="lowKXj9ei_8M_jbExb0" /><path d="m231.103 825.65c-9.783 0-20.132-2.231-27.79-5.941-4.729-2.292-13.458-3.783-21.898-5.226-17.85-3.05-36.308-6.205-40.984-19.179-1.911-5.302-.727-12.742.645-21.357 1.146-7.199 2.446-15.358 1.414-20.322-.988-4.755-2.113-9.977-3.313-15.553-9.688-44.993-24.237-112.549-13.366-148.529-4.269-16.834-31.917-128.771-27.446-186.449.299-3.854 3.665-6.736 7.52-6.438 3.854.299 6.737 3.666 6.438 7.52-4.561 58.835 27.225 182.589 27.546 183.833.343 1.324.29 2.72-.152 4.014-10.833 31.74 3.597 98.756 13.146 143.102 1.208 5.612 2.339 10.866 3.334 15.651 1.554 7.478.041 16.984-1.295 25.372-.787 4.938-1.975 12.4-1.299 14.413 1.907 5.292 18.916 8.198 30.17 10.122 9.836 1.681 19.127 3.269 25.645 6.426 10.995 5.327 29.793 6.052 35.918 1.387 1.088-.829 1.577-1.591 1.233-3.457-1.789-9.699-18.66-20.65-30.979-28.647-12.412-8.057-19.904-12.92-20.818-19.775-.929-6.966.071-34.578 1.78-79.054 1.42-36.965 3.029-78.862 2.35-94.169-1.546-34.835-10.101-178.469-17.185-199.208-1.25-3.658.703-7.637 4.361-8.887 3.658-1.251 7.637.703 8.887 4.361 8.988 26.312 17.846 201.38 17.923 203.112.706 15.886-.846 56.272-2.346 95.328-1.228 31.962-2.614 68.047-1.967 75.951 1.823 2.279 9.188 7.06 14.638 10.597 15.257 9.903 34.244 22.229 37.125 37.852 1.269 6.88-1.046 12.964-6.518 17.132-5.508 4.195-13.882 6.016-22.717 6.016z" fill="#231F20" id="QYpJoaJteE58ExRJ5naD_" /><path d="m58.068 387.352c-14.547 31.661-19.82 157.194-16.996 186.288-13.719 54.884 4.355 121.346 7.035 173.029 0 0-12.068 43.036-2.935 53.839 8.35 9.878 34.349 21.515 57.041 18.092 24.821-3.744 19.284-15.524 7.237-33.216-11.286-16.574-14.696-30.229-14.696-30.229s25.831-151.627 25.944-181.517c.143-37.779 13.874-152.206 13.874-152.206" fill="#FFFFFF" fill-opacity="0.08" id="uvebZ-DVPxLx1oCTIbExT" /><path d="m93.866 826.203c-21.724 0-44.737-10.171-54.039-21.175-10.356-12.25-2.091-46.998 1.229-59.125-.857-15.308-3.045-31.899-5.358-49.439-5.216-39.556-11.122-84.338-1.702-123.362-2.565-31.046 2.236-154.991 17.711-188.672 1.614-3.514 5.77-5.054 9.283-3.438 3.513 1.614 5.052 5.771 3.438 9.283-13.526 29.439-19.339 152.308-16.39 182.689.077.795.018 1.598-.176 2.374-9.176 36.71-3.639 78.694 1.715 119.296 2.407 18.255 4.681 35.498 5.52 51.673.039.758-.045 1.52-.25 2.251-.029.104-2.951 10.603-4.733 22.171-3.193 20.723.255 25.084.404 25.26 6.964 8.238 30.722 18.698 50.651 15.689 10.14-1.529 11.338-4.023 11.384-4.128.913-2.091-2.078-8.223-8.889-18.226-11.852-17.406-15.549-31.865-15.701-32.472-.234-.939-.271-1.917-.109-2.872.257-1.511 25.734-151.394 25.844-180.368.144-37.751 13.361-148.326 13.924-153.014.46-3.838 3.946-6.571 7.784-6.116 3.838.46 6.577 3.946 6.116 7.784-.137 1.14-13.684 114.456-13.824 151.399-.109 28.815-22.873 163.969-25.775 181.085 1.119 3.602 4.878 14.307 13.313 26.693 7.998 11.745 14.281 22.237 10.147 31.707-3.784 8.667-14.44 11.211-22.126 12.371-3.071.463-6.219.68-9.392.68z" fill="#231F20" id="bbUJDPrG4RZh2YaBTPlZb" /><path d="m268.668 244.854c9.319 26.678 14.741 90.589 18.538 111.447 2.418 13.284 32.254 89.65 32.254 89.65s19.219 28.221 17.671 41.102c-2.318 19.276-32.771 37.099-43.972 19.446 0 0-14.494-5.018-18.851-17.803-1.672-4.906-3.254-26.255 3.679-36.731 0 0-39.38-58.279-43.493-83.893-4.649-28.944-11.009-84.143-11.009-84.143" fill="#FFFFFF" fill-opacity="0.08" id="m8vcPOXY_4QpiC8lCLQAp" /><path d="m306.462 520.748c-7.264 0-13.502-2.959-17.846-8.551-4.959-2.223-16.639-8.64-20.935-21.243-1.7-4.99-3.736-25.066 2.169-38.582-8.722-13.251-38.516-59.824-42.269-83.19-4.62-28.765-10.987-83.898-11.051-84.452-.442-3.841 2.312-7.313 6.153-7.755s7.313 2.312 7.755 6.153c.063.55 6.396 55.377 10.966 83.834 3.173 19.759 31.67 65.23 42.382 81.083 1.586 2.347 1.601 5.419.038 7.782-5.388 8.142-4.072 27.144-2.891 30.611 3.167 9.295 14.434 13.417 14.547 13.457 1.468.525 2.753 1.537 3.588 2.854.831 1.309 3.357 5.291 10.933 3.573 9.556-2.166 19.173-11.748 20.178-20.104.84-6.991-9.354-25.81-16.507-36.328-.295-.434-.542-.902-.733-1.391-3.079-7.881-30.153-77.386-32.621-90.943-1.199-6.587-2.533-17.166-4.077-29.415-3.362-26.665-7.966-63.184-14.182-80.978-1.275-3.65.65-7.642 4.3-8.917 3.651-1.275 7.642.65 8.917 4.3 6.704 19.191 11.224 55.04 14.855 83.844 1.519 12.045 2.83 22.447 3.96 28.659 1.672 9.184 19.704 57.143 31.604 87.629 4.279 6.369 20.089 31.03 18.384 45.211-1.914 15.916-17.573 29.048-30.983 32.087-2.284.518-4.504.772-6.634.772z" fill="#231F20" id="dwgtpiB2Gz25i49yqmxAC" /><path d="m274.308 231.522c14.494 17.058 17.009 62.006 23.217 85.995 4.48 17.313-30.726-5.081-39.768 12.315-8.819 16.966-38.477 17.68-38.831 0-.423-21.108-2.305-56.243-2.305-56.243" fill="#FFFFFF" fill-opacity="0.08" id="D6GlKJp0jQpBMDimdz9jB" /><path d="m234.817 349.81c-2.311 0-4.554-.247-6.657-.738-9.823-2.297-16.043-9.615-16.233-19.1-.416-20.747-2.278-55.659-2.297-56.009-.207-3.861 2.755-7.158 6.616-7.364 3.855-.219 7.158 2.755 7.364 6.615.019.353 1.893 35.496 2.314 56.478.025 1.231.09 4.5 5.423 5.748 6.718 1.569 16.438-1.604 20.198-8.836 6.914-13.3 22.528-11.192 32.861-9.795 1.76.238 4.063.549 5.896.682-1.748-7.206-3.199-15.844-4.728-24.948-3.446-20.518-7.734-46.054-16.601-56.488-2.503-2.946-2.144-7.364.802-9.867 2.946-2.504 7.363-2.145 9.867.802 11.365 13.375 15.813 39.864 19.738 63.235 1.605 9.558 3.122 18.586 4.921 25.539 1.27 4.906.578 8.898-2.056 11.865-4.532 5.106-11.906 4.11-19.715 3.054-9.171-1.239-16.365-1.852-18.564 2.378-5.839 11.232-18.228 16.749-29.149 16.75zm56.099-29.612h.01z" fill="#231F20" id="CcISmLyZs0OnjxRXsLIRc" /><path d="m205.286 318.922c-5.202 14.821-5.935 21.131-.681 37.426 19.051 59.085 28.643 150.517 33.597 163.474 7.163 18.735 13.613 48.49-18.816 45.184s-59.096.024-74.341 11.107c-21.009 15.273-105.172 2.199-123.356-8.27-18.184-10.469 13.775-170.816 23.143-196.714 9.889-27.34 35.033-74.538 35.033-74.538" fill="#FFFFFF" fill-opacity="0.08" id="MFfzsqVhdQgxoqNDb5u3_" /><path d="m107.918 590.049c-34.393.001-76.974-8.801-89.721-16.141-7.093-4.084-9.664-15.041-8.875-37.82.549-15.856 2.8-36.677 6.69-61.885 6.975-45.198 17.318-91.853 22.238-105.456 9.945-27.494 34.401-73.503 35.438-75.448 1.817-3.412 6.059-4.705 9.469-2.887 3.412 1.818 4.705 6.057 2.887 9.469-.25.468-25.025 47.076-34.629 73.627-4.455 12.318-14.163 56.006-20.969 99.001-11.814 74.631-5.865 87.891-4.891 89.474 7.628 4.143 30.9 9.951 57.469 12.684 28.156 2.896 50.343 1.28 57.905-4.217 16.164-11.75 43.54-16.042 79.167-12.409 7.406.754 12.343-.408 14.677-3.453 3.854-5.033 2.692-17.095-3.109-32.267-1.922-5.028-3.928-17.098-7.599-39.779-5.568-34.406-13.984-86.401-26.122-124.047-5.765-17.878-4.924-25.761.738-41.892 1.281-3.648 5.276-5.566 8.923-4.287 3.648 1.28 5.567 5.275 4.287 8.923-4.753 13.541-5.381 18.206-.624 32.959 12.464 38.656 20.982 91.282 26.618 126.106 2.875 17.76 5.357 33.097 6.855 37.016 8 20.924 8.386 36.327 1.146 45.779-5.489 7.166-14.643 10.148-27.211 8.868-31.687-3.23-56.374.251-69.515 9.805-8.217 5.973-23.663 8.274-41.243 8.274z" fill="#231F20" id="ToPEb8H0Gk2JpnaqsAEjt" /><path d="m65.869 330.168c37.542 26.265 102.402 26.23 130.888 15.648 0 0 .455-14.374 8.529-26.894-32.24 14.811-82.855 10.84-127.156-11.848z" fill="#2FD1CD" fill-opacity="0.2" id="PnOrT48B6OwKAJa14JVks" /><path d="m176.468 354.572c-36 0-85.111-14.16-110.334-31.261-2.648-1.795-3.742-5.159-2.657-8.169l9.804-27.184c.701-1.942 2.222-3.476 4.159-4.191 1.937-.716 4.09-.539 5.885.48 44.799 25.462 84.273 34.554 120.684 27.792 2.748-.509 5.535.663 7.091 2.983 1.557 2.321 1.584 5.345.069 7.693-6.042 9.369-3.165 18.744-3.04 19.138 1.215 3.586-.663 7.429-4.212 8.748-7.382 2.742-16.848 3.971-27.449 3.971zm-97.918-39.956c30.828 18.358 87.494 30.281 114.957 24.434-.262-3.163-.21-7.145.736-11.51-34.195 3.301-70.561-5.624-110.577-27.109z" fill="#231F20" id="x4GSXO4HiIeV68tP24pYV" /><path d="m233.466 261.336c4.084 22.463.351 44.925-28.18 57.586-26.302 11.671-118.848-13.886-125.42-28.589s6.164-48.601 6.164-48.601-29.406-42.066-19.195-53.91c10.21-11.844 33.49-11.436 53.617-12.176l130.906 36.152s15.19 7.472 22.95 19.724" fill="#FFFFFF" fill-opacity="0.08" id="DUNQqjh2DnQW8hS03sOvK" /><path d="m185.978 328.858c-20.031 0-43.652-5.351-52.488-7.546-12.52-3.11-53.85-14.33-60.015-28.122-6.417-14.356 1.443-40.691 4.775-50.474-2.689-4.079-7.572-11.803-11.892-20.335-9.734-19.223-11.268-31.657-4.826-39.13 11.304-13.112 33.575-13.807 53.225-14.42 1.83-.057 3.646-.114 5.437-.179.713-.028 1.43.057 2.121.248l130.906 36.151c.422.117.833.273 1.226.466.693.34 17.06 8.5 25.774 22.26 2.069 3.266 1.098 7.59-2.168 9.659-3.266 2.07-7.59 1.097-9.659-2.168-5.25-8.29-15.415-14.742-19.574-16.908l-129.194-35.679c-1.464.051-2.944.097-4.432.143-16.767.523-35.771 1.116-43.058 9.569-.857.995-1.477 7.457 6.653 23.547 5.775 11.431 12.907 21.681 12.979 21.783 1.32 1.891 1.625 4.312.814 6.471-4.514 12.043-10.216 34.387-6.358 43.21 2.091 3.304 19.343 12.683 51.849 20.617 29.204 7.128 54.472 8.896 64.373 4.502 21.254-9.431 28.697-24.832 24.133-49.936-.691-3.803 1.832-7.447 5.635-8.139 3.802-.692 7.448 1.832 8.139 5.635 5.686 31.275-5.157 53.224-32.229 65.237-5.801 2.574-13.653 3.537-22.147 3.537z" fill="#231F20" id="nS5AlUP1NRwykoNh71wQh" /><path d="m170.228 140.514c-6.014 14.203-13.331 31.962-13.331 31.962l-36.445 3.171s26.453 35.385 62.155 45.031c44.604 12.051 68.75-8.879 68.75-8.879l-41.579-21.526" fill="#FFFFFF" fill-opacity="0.08" id="OBHnvHXD0vfc755qSqqDs" /><path d="m209.468 231.431c-8.474 0-18.05-1.123-28.686-3.996-37.604-10.159-64.797-46.073-65.937-47.597-1.521-2.035-1.82-4.734-.782-7.052s3.251-3.893 5.782-4.113l32.207-2.803c2.506-6.059 7.468-18.02 11.731-28.086 1.507-3.56 5.617-5.223 9.175-3.716 3.56 1.507 5.224 5.615 3.716 9.175-5.932 14.008-13.231 31.722-13.305 31.899-.997 2.419-3.259 4.081-5.865 4.307l-22.756 1.98c10.152 10.633 28.308 26.715 49.685 32.491 24.742 6.685 42.364 2.569 52.439-1.738l-30.312-15.693c-3.433-1.777-4.775-6.001-2.998-9.435 1.777-3.433 6-4.776 9.435-2.998l41.579 21.525c2.061 1.067 3.459 3.086 3.733 5.391s-.613 4.595-2.366 6.115c-.855.741-16.983 14.343-46.475 14.344z" fill="#231F20" id="H9ZW37fNr7FFaLvwY2xyJ" /><path d="m97.494 248.581c-7.247 20.118-36.336 83.325-37.836 93.077-1.5 9.751-4.731 58.42-4.922 95.731 0 0 16.331 49.507 7.138 61.509 0 0 6.559 16.502-3.942 20.253-10.502 3.751-37.858-9.001-41.807-18.753-3.95-9.751 0-57.759 0-57.759s-11.445-93.334-7.659-112.079c4.135-20.476 21.518-77.898 49.077-128.156" fill="#FFFFFF" fill-opacity="0.08" id="Ky0Py1Smb_EmSSfVV5-mz" /><path d="m53.517 526.762c-15.39 0-39.127-11.998-43.881-23.736-4.161-10.275-1.554-47.799-.547-60.245-1.526-12.523-11.301-94.712-7.485-113.606 4.102-20.308 21.671-78.837 49.8-130.136 1.858-3.39 6.112-4.632 9.503-2.772 3.39 1.859 4.631 6.113 2.772 9.503-27.354 49.886-44.389 106.55-48.353 126.176-2.613 12.937 3.201 72.776 7.745 109.841.058.473.068.951.029 1.426-1.833 22.292-2.541 49.49-.488 54.557.81 2 5.956 6.641 14.86 10.697 9.464 4.311 16.127 4.798 18.105 4.091.616-.22.756-.443.9-.758 1.023-2.243.008-7.446-1.118-10.339-.887-2.279-.53-4.879.957-6.82.155-.202 3.729-5.226-1.413-29.551-2.821-13.345-6.776-25.389-6.815-25.509-.237-.719-.356-1.472-.353-2.229.194-37.722 3.448-86.651 5.003-96.76.94-6.108 8.697-24.448 21.36-53.928 7.12-16.575 13.846-32.23 16.809-40.457 1.311-3.637 5.321-5.524 8.958-4.213s5.523 5.321 4.213 8.958c-3.106 8.621-9.912 24.464-17.117 41.237-8.292 19.305-19.65 45.743-20.387 50.531-1.331 8.649-4.582 55.968-4.834 93.586 1.082 3.4 4.354 14.041 6.859 25.887 4.612 21.819 3.284 32.001.896 37.45 1.232 4.329 2.549 11.708-.259 17.917-1.759 3.889-4.854 6.718-8.951 8.182-1.952.697-4.249 1.019-6.769 1.019z" fill="#231F20" id="iGOGhi76S0jNaVn7EUKlU" /><path d="m66.834 187.822c-20.421 18.379-49.418 73.514-57.995 92.71s14.294 1.225 38.391 20.012c24.096 18.787 37.166 1.634 37.166 1.634s18.379-46.559 23.688-66.163" fill="#FFFFFF" fill-opacity="0.08" id="u-DZVuLgzJei_9RHQZvgW" /><path d="m68.525 316.343c-8.243 0-16.835-3.446-25.599-10.279-10.013-7.807-19.781-8.128-26.914-8.362-5.596-.184-11.382-.374-14.49-5.344-2.895-4.63-1.156-10.02.927-14.682 8.246-18.455 37.712-75.266 59.703-95.058 2.873-2.586 7.3-2.353 9.886.521s2.353 7.299-.521 9.886c-18.957 17.061-47.554 70.819-56.286 90.362-.042.094-.083.186-.122.275.47.019.935.034 1.362.048 8.025.264 21.456.705 35.063 11.313 7.041 5.49 13.415 7.911 18.939 7.195 4.091-.53 6.817-2.76 7.868-3.776 2.863-7.306 18.299-46.957 22.985-64.258 1.01-3.731 4.851-5.935 8.586-4.927 3.731 1.011 5.937 4.855 4.927 8.587-5.35 19.753-23.177 64.987-23.934 66.903-.236.598-.554 1.161-.943 1.672-.639.839-6.569 8.243-17.692 9.683-1.24.161-2.489.241-3.747.241z" fill="#231F20" id="uy-szzOMewlVMlUVvfMhE" /><path d="m61.88 505.9c-.498 0-1.003-.053-1.509-.165-15.96-3.507-19.456-18.188-22.008-28.907-.896-3.761 1.427-7.535 5.188-8.431 3.762-.897 7.536 1.427 8.431 5.188 3.188 13.388 5.53 17.187 11.394 18.475 3.776.83 6.164 4.563 5.334 8.339-.718 3.27-3.615 5.499-6.83 5.499z" fill="#231F20" id="Qj9MZgKo1FM7PeECzL-lK" /><path d="m293.153 513.499c-1.421 0-2.855-.431-4.095-1.327-3.133-2.265-3.837-6.641-1.573-9.774 2.064-2.855.186-11.924-2.07-17.168-1.527-3.552.114-7.669 3.665-9.196 3.551-1.53 7.668.113 9.196 3.665 1.426 3.316 8.153 20.388.555 30.9-1.369 1.894-3.509 2.9-5.679 2.9z" fill="#231F20" id="VCpyNaMQCwc9BE6pKQ2Wf" /><path d="m157.04 108.03c-1.184 11.111 2.466 25.142 12.416 26.202 0 0 0 36.204 43.412 45.972s59.692-35.815 65.118-60.777c25.471-19.937 24.347-53.891 6.37-67.979-6.37-33.761-67.736-44.447-93.276-24.748 0-12.142-36.307-34.197-58.407-5.589-22.193 28.728-13.582 52.658-23.229 71.047-9.648 18.388-29.579 17.194-29.579 17.194 6.018 11.045 17.628 17.917 33.707 10.075 0 0 4.883 8.706 2.809 17.412 20.786-1.54 35.051-37.49 35.051-37.49.947 3.378 3.341 7.076 5.608 8.681z" fill="#FFFFFF" fill-opacity="0.08" id="YqQhk2iFe8cVe4T0DG11E" /><g fill="#231F20" id="w7fXwSMs0kgJXsHLwiJcv"><path d="m224.477 188.559c-4.236 0-8.621-.508-13.145-1.526-25.026-5.631-37-19.535-42.638-30.208-3.524-6.67-5.057-12.952-5.724-17.192-6.42-2.924-11.044-9.505-12.562-18.319-1.702-9.889.859-21.953 9.047-25.878 3.35-1.605 9.947-2.95 17.863 4.854 8.521 1.056 20.764-3.889 24.713-19.193.966-3.743 4.785-5.993 8.527-5.029 3.744.966 5.995 4.784 5.029 8.527-6.018 23.316-26.822 33.029-43.457 28.955-1.386-.34-2.635-1.095-3.58-2.165-1.557-1.762-2.654-2.558-3.272-2.91-1.125 1.884-2.218 7.37-.499 12.874.788 2.522 2.368 5.598 5.417 5.923 3.559.379 6.259 3.381 6.259 6.96.016 1.212.809 30.786 37.949 39.143 10.929 2.458 20.215 1.121 28.386-4.09 17.367-11.075 25.22-36.923 28.355-51.345.347-1.595 1.24-3.019 2.526-4.025 10.706-8.38 16.849-20.399 16.852-32.975.003-9.87-3.917-18.835-10.485-23.982-1.336-1.047-2.246-2.544-2.561-4.212-2.018-10.694-12.388-20.055-27.739-25.04-18.21-5.915-45.109-5.39-61.139 9.733-2.813 2.653-7.242 2.523-9.896-.288-2.653-2.812-2.524-7.243.288-9.896 20.288-19.139 52.324-20.252 75.07-12.865 19.498 6.332 32.679 18.35 36.598 33.217 8.846 7.962 13.867 19.958 13.863 33.336-.004 16.101-7.349 31.41-20.24 42.377-3.949 16.897-13.335 44.611-33.965 57.768-7.8 4.974-16.454 7.47-25.842 7.47z" fill="#231F20" id="YGEqxsNfQLr5CwThdHp" /><path d="m222.13 106.491c-2.628 0-5.146-1.486-6.338-4.021-1.646-3.498-.145-7.668 3.353-9.314 10.248-4.823 14.95-13.942 13.975-27.104-.286-3.855 2.608-7.212 6.464-7.498 3.856-.278 7.212 2.608 7.498 6.464 1.406 18.983-6.398 33.475-21.976 40.805-.963.454-1.978.668-2.976.668z" fill="#231F20" id="JqgVqQ_rX7i5sr9NhBUjF" /><path d="m277.984 126.427c-1.646 0-3.299-.577-4.63-1.752-14.464-12.769-24.04-39.508-20.089-56.1.896-3.761 4.675-6.082 8.431-5.188 3.761.896 6.084 4.67 5.188 8.431-2.774 11.653 5.167 33.032 15.736 42.362 2.898 2.559 3.173 6.982.615 9.88-1.383 1.567-3.312 2.367-5.25 2.367z" fill="#231F20" id="ADgDMU6uKUhd_yBsUnn4u" /><path d="m157.566 116.352c-1.664 0-3.334-.59-4.671-1.789-8.814-7.903-13.054-20.04-11.939-34.174 1.019-12.911 6.636-26.404 15.412-37.02 2.464-2.979 6.875-3.397 9.855-.935 2.979 2.463 3.398 6.875.935 9.855-14.229 17.21-16.526 41.439-4.917 51.85 2.878 2.581 3.119 7.006.538 9.885-1.382 1.542-3.294 2.327-5.214 2.327z" fill="#231F20" id="IE8iw0sF7WTif1b0B7IPR" /><path d="m99.819 130.611c-2.828 0-5.589-.449-8.275-1.348-12.202-4.085-17.542-15.825-18.111-17.15-.946-2.205-.697-4.742.66-6.72 1.358-1.979 3.645-3.117 6.032-3.036 21.049.776 24.185-11.323 28.76-36.578 2.938-16.216 6.268-34.597 18.414-49.152 11.953-14.325 29.343-19.884 46.524-14.87 13.327 3.89 22.827 13.331 24.201 24.054.491 3.834-2.219 7.341-6.054 7.833-3.836.487-7.342-2.22-7.833-6.054-.635-4.959-6.623-10.171-14.236-12.394-4.372-1.275-19.589-4.297-31.853 10.4-9.777 11.718-12.629 27.458-15.387 42.678-3.523 19.449-7.443 41.079-28.89 46.715.715.407 1.48.757 2.296 1.024 3.956 1.292 8.677.398 14.032-2.664 3.356-1.917 7.632-.753 9.551 2.604 1.918 3.356.752 7.633-2.604 9.551-5.95 3.401-11.716 5.106-17.228 5.106z" fill="#231F20" id="SPJ6FH8isosmuZp08ADyB" /><path d="m116.379 143.841c-3.046 0-5.849-2.004-6.727-5.079-1.062-3.717 1.09-7.592 4.807-8.654 9.475-2.708 14.112-6.385 16.005-12.694 1.111-3.703 5.016-5.801 8.717-4.692 3.703 1.111 5.804 5.014 4.692 8.717-4.866 16.215-19.906 20.513-25.567 22.131-.643.184-1.29.271-1.927.271z" fill="#231F20" id="BV2u178wm2wu9OCyC2OZ" /><circle cx="218.425" cy="126.784" r="6.865" fill="#231F20" id="Ur8r7rThcCl2NU-6zss_0" /><circle cx="251.357" cy="133.649" r="6.865" fill="#231F20" id="p1YLDvYvptktw2Uj7uDB" /><path d="m225.421 168.907c-4.372 0-8.715-1.061-12.566-3.137-5.189-2.798-8.891-7.2-10.422-12.397-1.093-3.708 1.027-7.6 4.736-8.693 3.708-1.096 7.6 1.028 8.693 4.736.631 2.142 2.55 3.445 3.637 4.031 2.812 1.517 6.51 1.865 9.649.91 3.697-1.123 7.608.961 8.734 4.66 1.125 3.699-.961 7.609-4.66 8.734-2.544.773-5.178 1.156-7.802 1.156z" fill="#231F20" id="iCmLh-fyOAjQ5Vbub4Kn4" /><path d="m87.908 801.605c-16.636 0-38.318-10.398-50.426-29.259-2.088-3.253-1.145-7.583 2.109-9.672 3.254-2.088 7.584-1.144 9.672 2.109 12.779 19.905 37.936 25.958 45.656 21.399 4.291-2.533 1.076-10.039-1.222-14.288-1.839-3.4-.573-7.648 2.827-9.487s7.648-.574 9.487 2.827c11.662 21.562-.095 30.713-3.976 33.004-3.84 2.267-8.717 3.367-14.127 3.367z" fill="#231F20" id="cn1gKDDLmYhbpXx6YzFi" /><path d="m210.003 797.568c-3.983 0-8.385-.255-13.202-.768-.489-.052-48.963-5.382-55.025-21.369-1.371-3.615.449-7.656 4.064-9.027 3.512-1.332 7.426.349 8.903 3.759 2.984 3.687 24.517 11.468 48.203 13.129 12.889.904 18.876-.753 20.705-1.762-.102-.249-.26-.58-.503-.997-1.948-3.339-.821-7.625 2.518-9.574 3.338-1.95 7.625-.822 9.574 2.518 4.361 7.473 2.248 12.86.601 15.407-3.737 5.777-12.406 8.683-25.837 8.683zm-55.137-27.103s0 .002.001.003c0-.001 0-.002-.001-.003z" fill="#231F20" id="OUYbTm1TE65gvvJIXbpM8" /></g></g></g><g transform="translate(609 79)" data-asset-index="2"><g clip-path="url(#assetClipPath_FHG0vrx5)" transform="scale(1.0017243223361045 1.0017243223361045)" data-asset-index="2"><path d="m78.785 205.451c-9.701 16.474-19.833 131.822-19.833 131.822s-18.873 75.883-26.639 94.458c-8.27 7.581-22.368 25.875-25.125 34.834s25.551 41.466 35.173 29.347c0 0 16.242 7.295 22.924 0s12.248-25.052 5.958-44.508c0 0 34.88-79.06 37.913-101.112s5.825-82.084 5.825-82.084" fill="#FFFFFF" fill-opacity="0.08" id="TmCHdBlzZq6SAojSSdStM" /><path d="m56.344 506.132c-4.843 0-9.553-1.205-12.791-2.279-3.551 1.938-9.133 2.999-16.919-1.103-6.2-3.265-13.187-9.58-18.69-16.892-4.539-6.03-9.514-14.628-7.445-21.352 3.113-10.12 17.115-28.303 25.896-36.813 7.438-19.069 23.984-84.984 25.633-91.582 1.831-20.745 10.819-117.388 20.726-134.212 1.962-3.331 6.251-4.444 9.583-2.48 3.332 1.961 4.442 6.252 2.48 9.583-6.481 11.006-15.027 84.895-18.891 128.882-.032.363-.092.724-.18 1.077-.776 3.12-19.092 76.618-26.974 95.469-.391.936-.98 1.775-1.728 2.46-7.652 7.014-20.417 23.798-23.02 31.291.451 3.234 6.886 13.288 15.3 19.688 4.279 3.253 6.82 3.78 7.532 3.718.007-.008.015-.018.022-.028 1.991-2.509 5.429-3.346 8.351-2.033 5.389 2.388 13.079 3.636 14.895 1.657 5.102-5.57 9.858-20.926 4.458-37.627-.528-1.635-.437-3.407.256-4.979 9.591-21.741 35.005-81.952 37.383-99.24 2.955-21.488 5.739-80.859 5.767-81.456.18-3.862 3.468-6.837 7.317-6.667 3.862.18 6.847 3.456 6.667 7.318-.115 2.464-2.841 60.602-5.882 82.713-2.864 20.82-31.443 86.973-37.405 100.616 5.549 20.079.236 39.527-8.239 48.779-3.821 4.171-9.035 5.491-14.103 5.492z" fill="#231F20" id="ItxNDyBpDacByre2Et_mq" /><path d="m135.007 175.213c-17.986-1.231-36.508 64.655-30.272 68.035 14.614 7.919 115.942-4.448 122.566-24.261 4.412-13.195-19.213-50.994-19.902-59.629-4.464-.186-11.748.291-11.748.291l-3.702-15.372-56.943 30.936z" fill="#FFFFFF" fill-opacity="0.08" id="h0Pcfm5RCp9dqwnYYCWCs" /><path d="m204.298 758.69c-2.39 19.848 8.005 32.3 0 48.536-4.455 9.036-5.344 21.284-22.64 25.608-27.036 6.759-57.777 1.857-59.511-11.564-2.385-18.458 29.15-20.015 27.387-64.611z" fill="#231F20" id="Xo9xpX5KTzbCuTgoK1psm" /><path d="m156.98 842.896c-13.512 0-25.641-2.694-33.18-7.837-6.281-4.285-8.141-9.375-8.596-12.892-1.389-10.749 4.956-17.334 11.092-23.703 8.053-8.358 17.18-17.832 16.243-41.528-.077-1.948.662-3.84 2.039-5.221 1.377-1.38 3.276-2.124 5.215-2.051l54.764 2.031c1.956.072 3.792.96 5.063 2.449 1.271 1.488 1.861 3.44 1.627 5.383-.89 7.392.288 13.843 1.427 20.083 1.733 9.492 3.525 19.308-2.098 30.712-.746 1.512-1.42 3.252-2.134 5.095-3.249 8.382-7.698 19.861-25.086 24.208-8.803 2.201-17.864 3.271-26.375 3.271zm-.459-78.973c-1.07 24.459-12.407 36.226-20.143 44.254-5.791 6.01-7.773 8.448-7.289 12.195.158 1.22 1.501 2.371 2.6 3.12 7.708 5.258 27.871 7.649 48.271 2.55 10.351-2.588 12.48-8.082 15.427-15.686.793-2.045 1.612-4.16 2.632-6.227 3.576-7.252 2.446-13.441.882-22.007-.912-4.997-1.912-10.473-1.969-16.702l-40.412-1.499z" fill="#231F20" id="MB1S6abOcjHLUtwkO7Zib" /><path d="m303.559 730.493c14.453 30.322-3.762 53.465-8.093 61.99-5.963 11.737-7.322 23.991 14.289 26.026 24.103 2.269 34.53-1.555 44.855-11.467 10.935-10.497 11.874-38.562 7.569-50.537-3.281-9.126-11.918-34.965-11.918-34.965l-46.701 8.953z" fill="#231F20" id="VnodOqg10wTsrLs40Dx-Q" /><path d="m321.875 826.142c-3.903 0-8.136-.228-12.778-.665-11.199-1.055-18.68-4.862-22.235-11.317-3.592-6.522-2.819-14.65 2.362-24.848.641-1.261 1.458-2.655 2.405-4.269 5.817-9.919 16.646-28.383 5.61-51.538-.933-1.957-.906-4.236.072-6.171.979-1.935 2.799-3.307 4.929-3.715l46.701-8.953c3.441-.66 6.845 1.33 7.957 4.656.086.258 8.649 25.868 11.866 34.815 4.619 12.848 4.594 44.61-9.308 57.955-10.291 9.878-20.898 14.051-37.582 14.051zm-8.683-90.368c8.375 25.897-3.49 46.127-9.486 56.352-.832 1.418-1.551 2.644-2 3.528-3.921 7.717-3.111 10.79-2.581 11.753 1.133 2.058 5.247 3.564 11.285 4.132 22.772 2.145 30.833-1.37 39.352-9.547 8.177-7.85 9.602-32.625 5.829-43.119-2.338-6.504-7.271-21.118-10.023-29.306l-32.375 6.207z" fill="#231F20" id="xzR3kOMqXiGcY0l_jrmvc" /><path d="m199.691 428.667s14.101 126.066 27.395 159.175c13.49 33.599 60.269 140.62 69.204 154.922 11.503 18.413 73.4-14.509 73.375-32.395-4.411-62.903-30.919-124.272-47.28-147.377-1.306-39.109-36.112-176.309-56.86-213.351 0 0-98.534 3.939-110.455 27.498s-30.179 172.494-30.179 199.424c0 34.22 17.308 187.45 17.308 187.45 4.481 20.132 68.142 14.146 70.683-7.354 2.421-20.481 6.399-140.289-5.38-174.816-5.628-16.498 3.912-66.063 3.912-66.063" fill="#2FD1CD" fill-opacity="0.2" id="tzI895sQDYMM4EgoQshgG" /><path d="m170.247 783.348c-19.193 0-32.394-6.646-34.88-17.814-.054-.243-.095-.488-.123-.735-.708-6.272-17.353-154.015-17.353-188.235 0-1.833 1.135-185.583 15.236-213.451 3.995-7.896 15.962-18.662 73.51-20.985 30.055-1.215 58.13.454 59.311.526 2.378.145 4.519 1.488 5.684 3.566 21.393 38.195 37.086 172.434 38.843 213.793 17.242 25.659 48.384 98.545 52.767 161.038.011.16.017.32.017.48.02 14.577-18.862 27.873-36.639 32.982-16.833 4.84-30.054 1.908-36.268-8.039-9.566-15.312-57.288-124.951-69.764-156.022-2.618-6.521-5.246-16.375-7.788-28.065-.243 7.35.088 13.566 1.326 17.196 12.451 36.496 7.845 159.806 5.707 177.898-1.927 16.306-24.055 24.684-45.13 25.752-1.518.077-3.006.115-4.458.115zm-21.145-20.606c1.21 3.725 10.88 7.215 24.894 6.509 17.994-.913 31.273-7.802 31.936-13.414 2.371-20.06 6.21-138.717-5.053-171.734-5.725-16.781 1.749-59.404 3.434-68.434-6.522-41.368-11.243-83.234-11.577-86.223-.43-3.842 2.336-7.305 6.178-7.735 3.844-.432 7.306 2.336 7.735 6.178.14 1.251 14.146 125.494 26.934 157.346 13.578 33.817 60.084 140.118 68.645 153.821 2.542 4.069 10.598 4.854 20.527 2.001 14.529-4.176 26.251-13.907 26.502-19.328-4.385-61.304-35.298-132.622-51.41-155.375-.792-1.118-1.237-2.443-1.283-3.812-1.422-42.588-16.89-167.246-35.413-206.12-8.819-.413-31.125-1.236-54.043-.304-53.203 2.159-60.553 11.468-61.486 13.312-9.645 19.062-13.729 155.899-13.729 207.131 0 32.491 16.137 176.638 17.21 186.179z" fill="#231F20" id="BhaaBaO9CPcJS1W_lhQQ_" /><path d="m135.007 175.213s-48.175 5.262-62.513 28.202c-12.248 17.205-22.901 84.489-18.168 93.286 9.252 17.198 67.518 12.44 67.518 12.44l8.215-57.764" fill="#FFFFFF" fill-opacity="0.08" id="ijUbRFgc_jXvZQ1Is-q79" /><path d="m104.566 316.747c-4.146 0-8.731-.103-13.437-.39-23.778-1.452-37.833-6.797-42.967-16.339-4.489-8.343-.103-36.378 1.991-48.043 2.101-11.702 7.902-40.151 16.516-52.445 16.073-25.375 65.478-31.046 67.578-31.275 3.844-.425 7.299 2.355 7.719 6.198s-2.355 7.299-6.198 7.719c-12.476 1.378-47.082 8.546-57.337 24.954-.074.119-.152.235-.233.35-11.042 15.511-20.366 77.207-17.611 86.079 4.252 7.198 30.746 10.266 55.127 8.983l7.417-52.145c.544-3.828 4.087-6.489 7.916-5.944 3.827.544 6.489 4.088 5.944 7.916l-8.215 57.764c-.46 3.237-3.101 5.725-6.36 5.991-.435.036-7.868.629-17.849.629z" fill="#231F20" id="WjfHgNmQM_xbpCEP4lj73" /><path d="m104.735 243.248c1.578 19.499 18.027 100.084 34.639 123.024s116.926 5.792 126.151-16.632c7.197-17.494-12.919-103.969-12.919-103.969s33.184-68.93 13.92-78.299c-14.744-7.17-42.121-11.443-59.127-8.016" fill="#FFFFFF" fill-opacity="0.08" id="DA7LyFhZFc7JM2KTPqwMF" /><path d="m177.696 384.119c-16.73 0-35.977-2.674-43.991-13.742-18.068-24.95-34.496-108.637-35.947-126.565-.312-3.853 2.559-7.23 6.413-7.542 3.85-.316 7.229 2.559 7.542 6.413 1.568 19.376 18.046 98.375 33.332 119.483 4.173 5.763 22.57 10.314 53.096 6.688 32.164-3.821 57.916-14.596 60.912-21.877 4.375-10.634-5.122-64.714-13.263-99.719-.361-1.553-.181-3.185.51-4.622.082-.169 8.198-17.11 13.861-34.848 8.1-25.369 5.132-33.231 3.305-34.12-14.053-6.834-40.119-10.385-54.682-7.449-3.79.764-7.482-1.688-8.245-5.479-.764-3.79 1.689-7.481 5.479-8.245 19.422-3.915 48.551 1.277 63.572 8.583 17.494 8.508 7.24 40.559 3.87 51.091-4.787 14.963-11.029 28.969-13.491 34.296 1.421 6.305 5.37 24.263 8.695 43.434 7.712 44.46 5.598 56.908 3.337 62.404-7.47 18.156-48.903 27.685-72.208 30.453-5.403.642-13.412 1.363-22.095 1.363z" fill="#231F20" id="Obfet_xpV01KccZWhfuA4" /><path d="m162.324 207.659c-14.501 0-30.22-8.11-34.215-31.255-.658-3.81 1.897-7.431 5.707-8.089 3.815-.657 7.432 1.898 8.089 5.707 3.18 18.416 15.515 20.148 22.578 19.544 10.93-.937 23.108-9.209 23.108-19.584 0-3.866 3.134-7 7-7s7 3.134 7 7c0 18.812-18.642 32.053-35.913 33.533-1.106.095-2.228.144-3.354.144z" fill="#231F20" id="xSjM9hi095kBUgRSOy_Co" /><path d="m42.362 502.912c-1.837 0-3.671-.718-5.045-2.146-2.681-2.786-2.595-7.217.19-9.897 5.471-5.265 8.646-14.462 8.677-14.553 1.225-3.667 5.191-5.645 8.857-4.422 3.667 1.225 5.647 5.19 4.422 8.857-.424 1.27-4.371 12.626-12.249 20.207-1.357 1.307-3.106 1.956-4.853 1.956z" fill="#231F20" id="ED4uygY7PkZzgePXKF70M" /><path d="m270.666 185.215c28.29 14.429 76.401 113.46 80.107 130.507s11.331 91.052 12.76 102.848 14.63 44.78 12.594 55.305c-3.068 15.862-20.664 27.151-31.634 25.1-4.887-.913-10.497-21.01-10.497-21.01-21.185 3.92-21.756-26.625-13.725-50.319 0 0-22.121-86.449-25.086-98.816s-38.885-70.941-38.885-70.941" fill="#FFFFFF" fill-opacity="0.08" id="YM1Q6cJg3bvwWwg2xAsdA" /><path d="m347.151 506.209c-1.354 0-2.673-.115-3.944-.353-2.308-.431-8.134-1.519-14.333-20.619-5.33-.387-9.964-2.649-13.413-6.633-9.498-10.973-8.134-33.234-2.476-51.196-3.394-13.267-21.877-85.562-24.606-96.947-1.971-8.222-24.382-46.633-38.046-68.913-2.021-3.296-.988-7.606 2.308-9.627 3.295-2.022 7.606-.987 9.627 2.308 6.095 9.939 36.657 60.169 39.726 72.968 2.918 12.174 24.839 97.849 25.06 98.713.336 1.314.283 2.698-.152 3.982-5.537 16.334-5.912 33.706-.854 39.548.999 1.154 2.662 2.385 6.676 1.64 3.563-.657 7.042 1.51 8.016 5.001 1.815 6.486 4.644 13.594 6.358 16.141.064.001.127.002.191.002 7.451 0 19.814-8.558 21.966-19.68.917-4.739-3.848-20.625-7-31.138-2.705-9.021-5.042-16.811-5.67-21.997-.309-2.55-.878-7.739-1.667-14.921-2.644-24.092-8.145-74.223-10.984-87.281-3.739-17.201-51.569-113.069-76.447-125.758-3.444-1.757-4.812-5.972-3.055-9.417 1.757-3.444 5.971-4.811 9.417-3.055 17.02 8.681 37.782 41.277 52.204 67.094 14.86 26.604 29.314 57.817 31.563 68.162 2.995 13.776 8.346 62.534 11.22 88.728.754 6.868 1.349 12.293 1.648 14.765.484 3.996 2.872 11.958 5.182 19.659 5.38 17.939 8.797 30.263 7.335 37.818-3.498 18.086-21.539 31.004-35.848 31.004z" fill="#231F20" id="FtKJPSR8qlGbFdQ9032ef" /><path d="m266.527 167.373c15.485 8.399 50.782 51.057 59.384 68.907 8.603 17.851-35.466 66.217-59.054 51.319-8.878-5.607-28.769-41.928-28.769-41.928" fill="#FFFFFF" fill-opacity="0.08" id="fnJEoZgauVOpie2EHMqI_" /><path d="m276.954 297.398c-5.035 0-9.713-1.276-13.835-3.879-9.659-6.1-26.3-35.591-31.171-44.484-1.857-3.391-.613-7.645 2.777-9.501 3.392-1.858 7.645-.613 9.502 2.776 9.151 16.706 21.834 36.51 26.367 39.373 8.242 5.207 21.723-2.359 30.763-10.42 14.363-12.809 20.401-27.474 18.247-31.942-8.11-16.829-42.63-58.315-56.416-65.793-3.398-1.843-4.659-6.093-2.816-9.491 1.843-3.399 6.092-4.66 9.491-2.816 17.601 9.547 53.688 54.042 62.353 72.021 6.474 13.435-5.936 34.552-21.542 48.469-11.563 10.312-23.391 15.687-33.721 15.688z" fill="#231F20" id="FCxY7j1f3_DP_-aa3W-k_" /><path d="m333.992 484.966c-3.055 0-5.862-2.015-6.733-5.099-2.808-9.938-3.349-22.168-3.371-22.684-.163-3.862 2.837-7.125 6.7-7.288 3.883-.167 7.125 2.837 7.288 6.7.005.107.501 11.13 2.856 19.466 1.051 3.72-1.113 7.588-4.833 8.639-.636.18-1.277.266-1.906.266z" fill="#231F20" id="jcVTnED6J54TxA0iW2hme" /><path d="m90.659 133.514-8.247-42.772-12.567-2.86c-13.5-33.631 4.395-76.687 52.728-75.071l18.835-2.11c50.921-23.964 88.824 51.925 65.461 82.898 5.751 5.683 3.989 28.768-11.389 31.644-5.48 51.653-82.279 80.254-104.821 8.272z" fill="#FFFFFF" fill-opacity="0.08" id="n-_Forlji17rmpt72Cyg" /><g fill="#231F20" id="U4QPqA_d1HWLazxHfKMI_"><path d="m141.67 183.617c-12.087 0-23.514-3.769-32.989-11.017-18.983-14.522-30.17-41.88-33.249-81.314-.301-3.854 2.58-7.223 6.434-7.524 3.852-.292 7.223 2.58 7.524 6.434 2.716 34.802 12.329 59.452 27.796 71.284 11.762 8.997 24.516 8.941 33.144 7.309 21.117-3.993 36.407-24.233 38.047-50.365.243-3.858 3.569-6.786 7.425-6.548 3.858.242 6.79 3.566 6.548 7.425-.998 15.886-6.247 30.33-15.182 41.769-8.865 11.351-21.024 18.977-34.237 21.475-3.79.717-7.558 1.071-11.262 1.071z" fill="#231F20" id="kIFhnz8emkmNa43q3AkbS" /><path d="m195.483 132.244c-2.735 0-5.333-1.613-6.458-4.293-1.496-3.565.181-7.667 3.746-9.164 6.333-2.658 8.285-9.305 8.83-12.039.833-4.182.224-7.437-.406-8.938-.291.19-.659.463-1.103.852-2.182 1.911-5.318 2.278-7.882.924-.757-.4-18.546-9.986-18.546-26.267 0-3.866 3.134-7 7-7s7 3.134 7 7c0 4.922 4.501 9.212 7.768 11.676 5.119-2.573 9.251-1.524 11.529-.465 5.833 2.711 9.212 9.743 9.041 18.809-.184 9.71-4.958 22.963-17.812 28.357-.885.371-1.803.547-2.706.547z" fill="#231F20" id="tikyJMylt7kT4VwJwUyLP" /><path d="m72.82 100.6c-2.585 0-5.07-1.438-6.288-3.914-9.621-19.577-7.928-44.542 4.313-63.603 11.516-17.929 30.453-27.869 51.921-27.27 3.864.107 6.91 3.327 6.802 7.192-.107 3.864-3.32 6.928-7.192 6.802-22.524-.612-34.58 12.789-39.752 20.841-9.647 15.021-11.033 34.593-3.529 49.862 1.705 3.47.275 7.665-3.195 9.37-.993.488-2.046.719-3.082.719z" fill="#231F20" id="aXSJilzI-RGuZ9fQIz_8" /><path d="m206.862 100.599c-1.173 0-2.361-.295-3.454-.916-3.36-1.911-4.536-6.185-2.625-9.545 9.542-16.78 5.709-44.279-8.546-61.3-8.464-10.107-23.749-20.312-48.491-11.541-3.64 1.292-7.645-.614-8.937-4.259-1.292-3.644.615-7.645 4.259-8.937 24.849-8.811 48.142-3.071 63.902 15.747 17.999 21.49 22.384 55.404 9.983 77.21-1.29 2.268-3.656 3.541-6.091 3.541z" fill="#231F20" id="tiLYRgu8L0uEfjk8H-afY" /><path d="m132.14 98.606c-1.285 0-2.586-.354-3.751-1.095-8.187-5.209-16.829-15.731-11.509-36.271.97-3.742 4.79-5.989 8.531-5.021 3.743.969 5.991 4.789 5.021 8.531-3.481 13.442 1.456 18.394 5.472 20.95 3.262 2.076 4.223 6.402 2.148 9.664-1.334 2.097-3.599 3.243-5.913 3.243z" fill="#231F20" id="Q431unrexuPFz1WQ65hKh" /><path d="m160.953 91.358c-.964 0-1.943-.2-2.879-.623-10.964-4.956-13.652-11.296-17.129-21.231-1.277-3.649.646-7.643 4.294-8.919 3.649-1.28 7.642.646 8.919 4.294 2.934 8.384 3.849 10.463 9.681 13.099 3.523 1.592 5.088 5.739 3.496 9.262-1.169 2.587-3.717 4.119-6.383 4.119z" fill="#231F20" id="sb_MJTnYeyHoW6iWcVRc" /><path d="m106.768 96.812c-1.873 0-3.74-.747-5.119-2.224-7.128-7.638-9.31-18.824-6.142-31.497.938-3.75 4.738-6.032 8.488-5.094 3.751.938 6.031 4.738 5.094 8.488-1.399 5.597-2.05 13.359 2.795 18.551 2.638 2.826 2.485 7.256-.342 9.894-1.349 1.259-3.064 1.882-4.774 1.882z" fill="#231F20" id="dpnOyQEYYuaUFfZ255k-D" /><circle cx="113.281" cy="127.964" r="6.865" fill="#231F20" id="gX26TxMfA5pvNqpVX3ZXU" /><circle cx="147.39" cy="122.52" r="6.865" fill="#231F20" id="X7Uz3xgqN8aAJyTf2ozem" /><path d="m142.454 164.001c-2.551 0-5.106-.43-7.551-1.336-3.625-1.344-5.474-5.372-4.13-8.997s5.371-5.473 8.997-4.13c3.699 1.371 9.487-.508 11.699-5.077 1.685-3.479 5.87-4.936 9.351-3.249 3.479 1.685 4.934 5.872 3.249 9.351-4.023 8.307-12.796 13.437-21.613 13.437z" fill="#231F20" id="MN4by9vhqU_clPp7nIk" /></g></g></g></svg>