<svg xmlns="http://www.w3.org/2000/svg" fill="none" viewBox="0 0 800 800" width="800" height="800"><defs><clipPath id="assetClipPath_GXj_ObGD"><path d="m0 0 h 508.92 v 443.863 h -508.92 v -443.863 z" id="path_BvUY8HD-" fill="#ffffff" fill-opacity="0.08" /></clipPath><clipPath id="assetClipPath_wqBIRSMs"><path d="m0 0 h 357.382 v 304.698 h -357.382 v -304.698 z" id="path_NlKLwDN4" fill="#ffffff" fill-opacity="0.08" /></clipPath><clipPath id="assetClipPath_1KYqCyfi"><path d="m0 0 h 105.156 v 94.225 h -105.156 v -94.225 z" id="path_R4Z45vQv" fill="#ffffff" fill-opacity="0.08" /></clipPath><clipPath id="assetClipPath__b7iD7RH"><path d="m0 0 h 132.104 v 120.673 h -132.104 v -120.673 z" id="path_YKmi18SE" fill="#ffffff" fill-opacity="0.08" /></clipPath><clipPath id="assetClipPath_st9Zndwf"><path d="m0 0 h 148.091 v 169.146 h -148.091 v -169.146 z" id="path_QnLFMojL" fill="#ffffff" fill-opacity="0.08" /></clipPath></defs><g transform="translate(24 106) rotate(-9.663410416358532 293.5 256)" data-asset-index="0"><g clip-path="url(#assetClipPath_GXj_ObGD)" transform="scale(1.1534229348424114 1.1534229348424114)" data-asset-index="0"><path d="m401.523 118.773 45.325-5.115c-119.267 166.756-261.132 217.483-439.848 236.769l19.797 93.437c229.398-19.864 405.631-199.293 441.312-325.289l30.571 28.572s-6.468-95.507-14.458-99.118-82.698 70.745-82.698 70.745z" fill="#2FD1CD" fill-opacity="0.2" id="ocNTgJax4VXJK_ijWnrKj" /><path d="m21.592 431.088c-3.31 0-6.207-2.338-6.861-5.64l-14.598-73.661c-.381-1.926.063-3.924 1.227-5.506 1.163-1.582 2.937-2.604 4.889-2.814 169.571-18.298 307.35-63.328 425.524-221.062l-29.464 3.325c-2.824.308-5.551-1.098-6.918-3.582-1.368-2.484-1.1-5.55.677-7.76.225-.28 22.777-28.317 45.931-55.992 48.854-58.396 52.308-58.396 56.681-58.396 2.116 0 4.106.868 5.603 2.445 2.812 2.963 6 6.321 4.058 77.479-.923 33.823-2.653 67.252-2.67 67.585-.142 2.719-1.846 5.109-4.371 6.128-2.524 1.021-5.411.481-7.399-1.377l-22.439-20.973c-9.945 29.05-27.209 59.819-50.383 89.676-26.461 34.092-60.838 67.216-99.414 95.791-41.578 30.8-87.322 56.183-135.962 75.442-52.99 20.982-107.999 34.059-163.5 38.864-.205.018-.408.026-.61.026zm-6.243-74.543 11.889 59.991c215.164-21.193 397.713-171.25 434.136-299.869.666-2.349 2.506-4.182 4.857-4.836 2.353-.656 4.875-.038 6.658 1.629l19.542 18.265c2.132-45.821 3.18-92.458 1.979-112.092-15.042 15.55-49.047 56.199-76.718 90.271l28.372-3.202c2.748-.306 5.42 1.027 6.821 3.41 1.4 2.384 1.267 5.369-.342 7.618-57.27 80.072-122.764 137.606-200.224 175.889-65.241 32.244-138.586 51.746-236.97 62.926z" fill="#231F20" id="vXfDAb61WTuj-RqmCZptD" /></g></g><g transform="translate(347 293)" data-asset-index="1"><g clip-path="url(#assetClipPath_wqBIRSMs)" transform="scale(1.1556261927013671 1.1556261927013671)" data-asset-index="1"><path d="m236.46 14.992c5.607-22.624 111.62 8.189 113.663 25.655 4.998 42.741-63.312 220.149-117.388 229.783-31.582 5.626-127.436-34.766-112.49-46.954 61.547-50.188 99.919-142.73 116.215-208.485z" fill="#FFFFFF" fill-opacity="0.08" id="d8r9aKnRz08pEcG7OPfs3" /><path d="m225.817 277.968c-21.062.001-50.646-10.543-60.13-14.146-10.81-4.105-46.567-18.564-52.846-32.25-2.285-4.978-1.143-10.159 2.98-13.521 58.305-47.543 97.039-136.94 113.845-204.743 2.459-9.923 13.532-14.333 32.915-13.104 16.376 1.037 38.554 6.137 57.879 13.31 35.06 13.013 36.231 23.028 36.616 26.32 2.676 22.883-12.937 77.987-37.125 131.024-16.896 37.049-50.536 100.147-85.989 106.463-2.502.446-5.245.646-8.145.646zm-99.177-50.694c4.161 4.611 18.979 13.913 43.654 23.323 25.893 9.875 49.919 14.956 61.212 12.942 20.671-3.683 49.68-41.421 75.706-98.489 22.39-49.096 38.14-103.096 35.99-123.297-1.39-2.605-11.789-10.193-36.302-18.124-21.077-6.82-42.758-10.525-55.237-9.438-6.497.566-8.34 2.206-8.409 2.484-9.384 37.865-24.196 77.496-41.706 111.594-21.734 42.323-46.926 75.616-74.908 99.004zm109.82-212.282h.01z" fill="#231F20" id="EMOY0kpb4NxaX7kjvdEu9" /><path d="m174.228 51.335c9.052-21.478 100.3 36.041 103.611 53.312 7.552 39.39-102.263 193.845-171.21 193.048-32.077-.371-114.992-66.341-97.14-73.637 77.671-31.745 138.929-111.485 164.738-172.723z" fill="#FFFFFF" fill-opacity="0.08" id="xQn9CdpbQusQsaKokT11E" /><g fill="#231F20" id="QF9LDDBjB9gZPoudsQU3g"><path d="m107.164 304.697c-.206 0-.409 0-.615-.003-20.89-.241-53.623-22.611-63.157-29.461-6.686-4.804-40.189-29.554-43.147-45.083-1.076-5.651 1.451-10.469 6.597-12.572 74.881-30.605 134.785-106.914 160.936-168.962 1.638-3.886 6.34-10.196 19.438-8.821 20.051 2.108 49.458 20.297 57.994 25.822 11.079 7.171 37.106 25.2 39.505 37.712 4.877 25.438-27.999 81.114-62.996 122.964-19.764 23.634-70.356 78.405-114.555 78.405zm-92.409-75.25c2.957 5.443 14.439 18.279 36.361 34.096 22.683 16.366 44.505 27.023 55.594 27.151 26.613.26 65.584-27.125 104.268-73.384 40.868-48.871 62.957-95.848 59.986-111.346-.708-2.672-8.667-11.683-26.97-24.323-16.38-11.311-34.705-21.056-47.823-25.433-10.259-3.423-14.666-2.704-15.497-2.147-26.969 63.982-88.567 142.59-165.919 175.385z" fill="#231F20" id="R9gZECKXNGYhAvtdacKnb" /><path d="m265.25 156.003c-1.366 0-2.745-.398-3.956-1.23-13.084-8.984-20.839-22.872-21.836-39.105-.922-15.012 4.381-29.932 13.509-38.008 2.895-2.562 7.319-2.292 9.881.604s2.291 7.319-.604 9.881c-5.928 5.245-9.47 15.96-8.812 26.665.421 6.855 3.032 19.664 15.787 28.422 3.187 2.188 3.997 6.546 1.808 9.733-1.357 1.976-3.548 3.038-5.777 3.038z" fill="#231F20" id="NEz2lONzAEkmzU5qaTK5Z" /><path d="m158.677 98.766c-1.884 0-3.788-.083-5.719-.254-3.851-.34-6.697-3.738-6.356-7.589s3.75-6.695 7.589-6.356c27.097 2.391 42.171-15.532 44.709-33.2.55-3.827 4.096-6.488 7.924-5.933 3.827.55 6.483 4.098 5.933 7.924-3.884 27.033-26.202 45.408-54.081 45.408z" fill="#231F20" id="nSD6h6sLEYNBGbJbP5HfA" /><path d="m133.893 298.332c-2.802 0-5.448-1.694-6.525-4.463-3.373-8.667-10.886-14.815-20.097-16.445-10.86-1.92-21.982 2.546-30.521 12.256-2.552 2.903-6.976 3.187-9.879.634s-3.187-6.976-.634-9.879c11.843-13.467 27.687-19.59 43.473-16.796 14.066 2.489 25.545 11.892 30.705 25.153 1.402 3.603-.382 7.66-3.985 9.062-.834.325-1.693.479-2.537.479z" fill="#231F20" id="ZMuVBytvbTiuivW68CtZ2" /><path d="m32.596 265.06c-1.971 0-3.93-.828-5.315-2.441-2.518-2.933-2.181-7.353.752-9.871 9.091-7.804 11.667-18.975 10.213-26.052-.601-2.922-2.154-6.669-6.145-7.922-3.688-1.157-5.74-5.086-4.583-8.775 1.158-3.688 5.085-5.741 8.775-4.583 8.065 2.531 13.775 9.26 15.666 18.462 2.797 13.617-3.153 29.488-14.808 39.492-1.32 1.133-2.942 1.688-4.556 1.688z" fill="#231F20" id="SXwV-OTOSgoyZ12rG-xa" /><path d="m169.884 235.307c-15.381 0-32.249-8.04-44.57-19.972-17.778-17.216-21.088-37.342-8.438-51.271 9.817-10.808 23.629-14.745 38.89-11.091 20.769 4.975 41.111 23.748 46.31 42.738 3.186 11.639.523 22.328-7.499 30.098-6.841 6.626-15.502 9.498-24.692 9.498zm-25.049-69.683c-6.952 0-12.848 2.626-17.596 7.853-11.147 12.271 4.554 28.644 7.814 31.801 14.574 14.113 37.751 22.131 49.782 10.476 4.307-4.171 5.563-9.671 3.736-16.346-3.906-14.269-20.086-28.992-36.067-32.82-2.682-.643-5.241-.963-7.669-.963zm-22.777 3.146h.01z" fill="#231F20" id="Crq2mpvZ_p1MY6t_tvs" /></g></g></g><g transform="translate(62 441)" data-asset-index="2"><g clip-path="url(#assetClipPath_1KYqCyfi)" transform="scale(1.1316520217581498 1.1316520217581498)" data-asset-index="2"><g id="rtjpjP8RBeOoruzy3wNx-">
    <path d="M19.847,10.514l76.289,55.661s-6.452,10.021-11.236,16.783C71.047,102.538-6.912,49.759,9.175,25.251c4.143-6.311,10.671-14.737,10.671-14.737Z" fill="#FFFFFF" fill-opacity="0.08" id="eaqj2J5zFHog1BRIVjMXo" />
    <path d="M74.926,94.211c-12.213,0-27.819-7.354-40.475-15.98-11.514-7.849-21.183-17.021-27.228-25.828C-3.019,37.479-.55,27.312,3.324,21.409,7.568,14.944,14.04,6.579,14.313,6.227c2.32-2.993,6.6-3.598,9.659-1.368L100.262,60.52c2.995,2.186,3.767,6.327,1.76,9.444-.267,.415-6.59,10.229-11.407,17.037-3.618,5.114-9.171,7.21-15.688,7.21ZM21.285,20.229c-2.015,2.725-4.403,6.038-6.258,8.863-4.74,7.221,7.511,24.075,27.309,37.571,20.161,13.743,34.705,15.28,36.849,12.252,2.394-3.384,5.247-7.65,7.456-11.002L21.285,20.229Z" fill="#241F20" id="P5CFEakZs_LZ-85jJcWS" />
  </g><g id="zw2B3hr7vs2zffc6bSYkw">
    <path d="M19.847,10.514C2.99,30.048,77.84,91.138,96.136,66.175,111.473,45.25,34.912-6.944,19.847,10.514Z" fill="#FFFFFF" fill-opacity="0.08" id="Rto-bT_45dZMbgeJXBcYY" />
    <path d="M83.158,79.081c-1.538,0-3.177-.109-4.928-.348-23.748-3.235-57.645-29.858-65.945-51.794-3.995-10.56-.976-17.248,2.261-20.999h0c13.088-15.167,46.193,1.895,65.251,17.063,22.406,17.834,30.625,35.519,21.983,47.309-3.061,4.177-8.689,8.769-18.624,8.769ZM25.146,15.087c-1.366,1.582-.627,4.625,.233,6.898,6.471,17.102,36.143,40.343,54.74,42.876,7.546,1.028,9.672-1.871,10.37-2.824,2.874-3.922-3.6-15.496-19.41-28.079C47.12,14.89,27.772,12.047,25.146,15.087h0Z" fill="#241F20" id="AySydhplKFwvhgQ5BH9PH" />
  </g></g></g><g transform="translate(227 638)" data-asset-index="3"><g clip-path="url(#assetClipPath__b7iD7RH)" transform="scale(1.05977108944468 1.05977108944468)" data-asset-index="3"><g id="rKBvZ7IIXDvuh9kkkzOK">
    <path d="M12.606,84.633L103.605,16.365s8.567,11.561,15.374,18.857c30.683,32.884-62.315,106.878-93.156,66.897-5.555-7.201-13.216-17.485-13.216-17.485Z" fill="#FFFFFF" fill-opacity="0.08" id="RziH3C_P2aiZ8vKMfkAYx" />
    <path d="M50.93,120.661c-12.753,0-23.435-4.914-30.651-14.268-5.527-7.164-13.21-17.476-13.287-17.579-2.304-3.093-1.672-7.467,1.413-9.781L99.404,10.765c1.49-1.118,3.366-1.596,5.21-1.327,1.844,.269,3.505,1.262,4.615,2.759,.083,.112,8.417,11.335,14.868,18.249,8.042,8.618,10.092,20.364,5.772,33.074-8.587,25.266-41.26,51.606-69.919,56.37-3.102,.516-6.116,.771-9.02,.771Zm-28.529-34.626c2.65,3.526,6.104,8.101,8.964,11.808,5.72,7.415,14.565,10.186,26.29,8.237,23.406-3.891,52.059-26.763,58.959-47.065,2.694-7.925,1.793-14.146-2.753-19.018-3.967-4.252-8.426-9.784-11.609-13.866L22.401,86.035Z" fill="#241F20" id="YVQsmR7Sg_FMLgtXdsQ5y" />
  </g><g id="NWsuGY9rEBXMmokFr-Lbo">
    <path d="M12.606,84.633c30.825,40.436,127.764-30.621,90.999-68.268C70.815-17.211-15.713,47.483,12.606,84.633Z" fill="#FFFFFF" fill-opacity="0.08" id="qRauXYhziEDfnBi8lJzGN" />
    <path d="M38.966,103.694c-13.395,0-24.518-5.1-31.927-14.817C-6.964,70.507,.213,44.625,25.323,22.936,50.168,1.474,87.803-9.836,108.613,11.474c9.736,9.969,12.607,23.116,8.086,37.021-7.984,24.556-39.048,49.436-67.833,54.332-3.415,.58-6.722,.867-9.9,.867ZM79.449,14.031c-14.359,0-31.656,7.995-44.975,19.5-23.152,19.998-23.251,37.74-16.301,46.857h0c7.505,9.847,19.557,10.132,28.345,8.636,23.841-4.055,50.414-25.017,56.866-44.858,2.956-9.09,1.39-16.584-4.788-22.91-4.913-5.031-11.629-7.225-19.148-7.225Z" fill="#241F20" id="AWeTztL0ToTjxKBFi4xO8" />
  </g></g></g><g transform="translate(137 227)" data-asset-index="4"><g clip-path="url(#assetClipPath_st9Zndwf)" transform="scale(1.127685004490482 1.127685004490482)" data-asset-index="4"><path d="M17.802,25.136C21.354,12.585,30.116,3.757,41.842,.915c10.86-2.631,22.45,.562,29.527,8.139,6.821,7.302,8.684,17.318,5.246,28.203-5.262,16.662-18.738,24.127-31.521,24.128-3.143,0-6.24-.45-9.167-1.327-15.203-4.55-22.656-18.91-18.125-34.922Zm31.679-11.13c-1.445,0-2.907,.168-4.341,.516-3.923,.95-10.941,4.089-13.867,14.427h0c-3.656,12.92,5.711,16.812,8.669,17.697,6.988,2.095,18.966,.195,23.324-13.604,1.876-5.941,1.141-10.932-2.127-14.431-2.753-2.947-7.118-4.604-11.658-4.604Z" fill="#231F20" id="EFmAmxGFaME1QUfZyBE-0" /><path d="M103.471,169.148c-3.143,0-6.24-.45-9.167-1.327-15.202-4.55-22.654-18.912-18.125-34.922h0c3.552-12.551,12.314-21.379,24.04-24.221,10.861-2.633,22.45,.562,29.528,8.139,6.821,7.302,8.684,17.318,5.246,28.203-5.262,16.662-18.738,24.127-31.521,24.128Zm4.387-47.379c-1.445,0-2.907,.168-4.341,.516-3.923,.95-10.941,4.089-13.867,14.427h0c-3.656,12.92,5.711,16.812,8.669,17.697,6.988,2.095,18.966,.194,23.324-13.604,1.876-5.941,1.141-10.932-2.127-14.431-2.753-2.947-7.118-4.604-11.658-4.604Zm-24.944,13.036h0Z" fill="#231F20" id="jFZiBeBfC8CxnXXAxhrZE" /><path d="M7.007,145.456c-2.319,0-4.588-1.151-5.921-3.256-2.068-3.267-1.097-7.591,2.169-9.659,41.825-26.484,86.722-59.013,133.443-96.684,3.009-2.428,7.416-1.954,9.843,1.056,2.427,3.01,1.954,7.416-1.056,9.843C98.351,84.76,53.018,117.602,10.745,144.369c-1.162,.735-2.458,1.087-3.738,1.087Z" fill="#231F20" id="RU98Vq5quFeoi_1g1IlB" /></g></g></svg>