<svg xmlns="http://www.w3.org/2000/svg" viewBox="0 0 2454 3000" width="2454" height="3000"><g transform="translate(261.8181818181818 1819.090909090909) rotate(0.0 973.6363636363636 516.8181818181818) scale(3.0534103043617153 3.049200744680794)"><g><path d="M4.969 325.596c6.071 10.742 599.998 10.315 611.27-.956 11.272-11.272 6.595-288.273-6.726-293.396S436.149 2.374 425.39 13.134c-10.759 10.759-6.712 100.66-6.712 100.66-15.831 0-180.19-10.759-190.95 0-10.759 10.759-9.21 96.799-9.21 96.799s-195.811-1.278-208.498 7.545c-12.687 8.823-12.094 94.996-5.051 107.459z" fill="#2fd1cd" fill-opacity="0.2"/><path d="M355.336 338.986c-11.021 0-22.213-.015-33.535-.045-72.818-.194-145.334-1.017-198.954-2.259-93.331-2.162-95.871-4.419-98.56-6.81a7.003 7.003 0 0 1-2.341-4.884c-.012-.253-1.259-25.675-.925-51.847.628-49.317 5.946-59.753 11.6-63.686 3.157-2.196 9.728-6.765 99.696-6.866 32.853-.049 65.137.55 79.134.844-.036-8.315.023-22.688.643-37.498 1.789-42.682 6.405-52.812 10.684-57.091 3.867-3.867 12.581-7.573 71.636-6.708 33.921.495 72.855 2.353 98.618 3.582 7.28.347 13.677.652 18.376.848-.274-8.668-.626-23.7-.41-39.165.622-44.484 5.122-54.897 9.441-59.216 2.82-2.82 9.424-9.423 103.618-8.005 34.684.522 93.288 2.728 102.891 6.421 4.435 1.706 5.985 6.365 7 11.145 5.107 24.068 4.281 104.77 2.021 166.564-1.316 35.977-3.231 69.654-5.394 94.829-3.86 44.924-7.055 48.119-9.388 50.452-2.927 2.927-5.953 5.953-100.025 7.957-44.168.941-102.138 1.44-165.828 1.44zM35.703 319.003c24.671 3.015 144.752 5.559 285.96 5.937 154.653.416 271.502-1.989 289.555-5.884 3.664-11.557 8.694-68.386 11.252-149.645 2.688-85.397.832-138.725-2.487-150.196-9.55-1.712-46.037-4.21-93.627-4.999-57.807-.958-89.996 1.431-96.162 4.122-1.031 1.787-4.716 10.895-5.207 50.216-.287 22.971.675 44.708.685 44.924a7.002 7.002 0 0 1-6.993 7.315c-3.422 0-12.528-.435-26.312-1.092-24.755-1.181-62.165-2.966-95.149-3.521-50.609-.851-62.157 1.763-64.74 2.849-1.002 1.615-4.878 10.237-6.424 48.192-.901 22.107-.54 43.035-.537 43.244.034 1.908-.712 3.748-2.066 5.093s-3.196 2.073-5.107 2.031c-78.955-1.967-166.202-1.237-177.597 3.344-1.06 1.622-5.329 10.84-5.75 54.428-.173 17.944.377 35.237.706 43.641zm574.951 1.492zm-578.84-2.171z" fill="#231f20"/></g></g><g transform="translate(362.7272727272727 111.81818181818181) rotate(0.0 792.2727272727271 1180.9090909090908) scale(3.0376750126918344 3.0320147142577043)"><g><path d="M372.178 263.106c3.434 19.316 10.443 37.773 10.443 37.773s49.507-14.849 62.098-18.887c18.263-5.856 42.066 19.745 18.887 32.622s-72.213 40.999-95.821 35.848-40.359-56.091-40.359-56.091" fill="#fff" fill-opacity="0.08"/><path d="M374.147 358.088c-2.781 0-5.406-.252-7.854-.786-26.744-5.835-43.674-55.141-45.517-60.744a7 7 0 0 1 13.299-4.373c6.011 18.228 20.884 48.314 35.202 51.438 20.026 4.371 65.838-21.152 87.854-33.417l3.075-1.712c7.139-3.966 6.434-7.961 5.282-10.62-2.616-6.042-11.511-11.5-18.632-9.217-12.511 4.011-60.2 18.318-62.225 18.926a7.004 7.004 0 0 1-8.555-4.22c-.296-.779-7.283-19.298-10.791-39.033a7 7 0 0 1 5.667-8.117 6.998 6.998 0 0 1 8.117 5.667c2.114 11.889 5.665 23.537 7.943 30.37 13.804-4.151 45.892-13.821 55.57-16.924 14.697-4.708 30.636 5.17 35.753 16.985 3.734 8.623 2.719 20.617-11.33 28.422l-3.061 1.704c-31.364 17.472-66.164 35.649-89.797 35.65z" fill="#231f20"/><path d="M221.496 617.134c-3.507 16.848-16.848 44.231-7.018 51.253s90.855 0 103.494 0 13.341-21.451-2.809-24.066-46.632-.903-48.03-16.153" fill="#fff" fill-opacity="0.08"/><path d="M242.252 678.496c-18.628 0-27.671-1.433-31.843-4.413-11.219-8.013-5.576-25.859-.119-43.118 1.771-5.6 3.443-10.89 4.353-15.258a7 7 0 1 1 13.706 2.854c-1.053 5.061-2.83 10.678-4.71 16.625-2.229 7.051-4.535 14.342-5.381 20.148-.78 5.348.052 7.002.249 7.303 1.212.515 7.133 2.223 31.802 1.804 16.281-.276 34.995-1.354 48.659-2.142 9.18-.529 15.813-.912 19.005-.912 1.427 0 2.229-.984 2.386-2.926.051-.627.302-6.159-6.313-7.23-3.328-.539-7.485-.895-11.886-1.271-8.103-.693-17.287-1.479-24.775-3.743-13.282-4.015-16.696-11.684-17.221-17.41a7 7 0 0 1 6.332-7.61 6.997 6.997 0 0 1 7.61 6.332c.553 6.027 18.515 7.564 29.248 8.482 4.671.399 9.083.777 12.931 1.4 12.841 2.08 18.79 12.729 18.03 22.174-.749 9.304-7.468 15.803-16.341 15.803-2.788 0-9.589.392-18.199.888-25.424 1.465-43.998 2.22-57.521 2.221zm-23.706-15.805h.01z" fill="#231f20"/><path d="M43.962 687.461c-4.487 11.019-14.695 30.899-8.926 39.505S62.645 771.96 74.56 771.96h49.648c14.564 0 3.773-23.831-6.388-25.817s-24.725-2.648-27.373-11.254-4.544-30.119-4.544-30.119" fill="#fff" fill-opacity="0.08"/><path d="M124.208 778.96H74.56c-11.912 0-25.165-16.845-42.689-44.025-1.079-1.673-1.976-3.066-2.649-4.071-7.054-10.524.217-27.348 6.059-40.866.807-1.868 1.562-3.613 2.198-5.176a7 7 0 0 1 9.123-3.843 7 7 0 0 1 3.843 9.123c-.67 1.646-1.464 3.483-2.314 5.45-2.405 5.564-5.13 11.871-6.674 17.603-1.979 7.347-.853 9.548-.607 9.915a315.37 315.37 0 0 1 2.787 4.28c3.786 5.872 10.123 15.7 16.593 23.917 10.241 13.004 14.248 13.676 14.413 13.698l49.565-.004h.095c-.058-1.273-.667-3.698-2.34-6.479-2.045-3.398-4.482-5.271-5.486-5.467-1.623-.317-3.402-.604-5.286-.908-10.675-1.721-23.96-3.863-27.435-15.158-2.785-9.051-4.626-29.286-4.827-31.563a6.999 6.999 0 0 1 6.358-7.587c3.853-.348 7.248 2.507 7.588 6.358.51 5.782 2.271 22.204 4.262 28.675.916 2.976 10.912 4.587 16.282 5.453 1.914.309 3.892.628 5.742.989 10.981 2.146 20.043 17.346 19.054 27.56-.713 7.367-6.212 12.127-14.009 12.127z" fill="#231f20"/><path d="M275.563 336.935c-8.018 15.473-66.223 198.732-74.291 213.139s-85.867 148.682-93.358 156.173c-7.492 7.492-69.731-16.712-70.883-25.357-1.153-8.644 71.002-148.329 76.188-158.59s49.227-190.284 49.227-190.284" fill="#fff" fill-opacity="0.08"/><path d="M102.518 714.675c-5.675 0-14.532-1.507-28.68-6.296-9.692-3.281-19.623-7.435-27.247-11.396-11.048-5.741-15.829-10.135-16.5-15.167-.528-3.963-1.327-9.951 73.484-156.03 1.702-3.324 2.88-5.625 3.395-6.643 3.789-8.082 31.869-120.093 48.675-188.791a7 7 0 1 1 13.599 3.327c-7.386 30.191-44.498 181.331-49.779 191.779-.52 1.029-1.709 3.352-3.429 6.709C59.252 643.046 46.831 671.952 44.46 679.334c3.382 2.76 13.212 8.193 28.1 13.734 17.651 6.569 27.905 7.906 30.953 7.567 9.833-12.617 81.155-135.241 91.651-153.982 3.846-6.868 22.943-64.008 38.288-109.92 19.767-59.144 32.047-95.592 35.896-103.019a6.998 6.998 0 0 1 9.436-2.994 7 7 0 0 1 2.994 9.436c-3.625 6.994-20.319 56.945-35.048 101.016-21.69 64.898-35.162 104.844-39.351 112.323-3.984 7.114-85.539 148.726-94.516 157.703-1.272 1.272-3.48 3.479-10.345 3.479zM43.99 681.114z" fill="#231f20"/><path d="M142.535 310.322c-14.984 28.808-35.332 71.844-15.575 103.276s134.399 66.525 134.399 66.525-44.004 114.051-44.004 130.216 65.316 24.247 73.519 11.675c8.203-12.573 71.066-151.769 55.799-186.793s-114.158-62.863-114.158-62.863" fill="#fff" fill-opacity="0.08"/><path d="M267.713 635.119c-12.368 0-25.632-2.237-34.004-4.727-15.496-4.608-23.354-11.355-23.354-20.054 0-15.135 30.701-96.763 41.81-125.801-10.544-3.434-31.389-10.494-53.24-19.41-42.696-17.421-68.902-33.505-77.89-47.805-23.007-36.602 2.86-86.332 15.291-110.231a6.999 6.999 0 0 1 9.44-2.98 7 7 0 0 1 2.98 9.44c-17.107 32.89-32.369 70.053-15.858 96.321 15.062 23.962 99.325 54.003 130.521 63.557a6.997 6.997 0 0 1 4.481 9.213c-16.742 43.395-43.252 116.095-43.533 127.519.863 1.733 7.576 6.227 22.848 9.071 20.25 3.772 35.562 1.254 37.849-1.11 3.937-6.113 21.45-43.668 35.943-83.48 25.209-69.255 21.867-90.643 19.26-96.624-11.427-26.214-83.017-51.422-109.638-58.923a7 7 0 0 1 3.795-13.476c1.027.29 25.462 7.212 52.199 18.595 37.042 15.771 59.409 31.99 66.479 48.209 7.237 16.602.865 52.604-18.938 107.007-14.61 40.136-32.785 79.31-37.416 86.408-4.508 6.909-16.291 9.28-29.023 9.28z" fill="#231f20"/><path d="M282.322 491.956c-5.553 0-14.832-.866-24.134-5.593a7.001 7.001 0 0 1 6.343-12.482c10.322 5.246 20.925 3.935 21.03 3.919 3.82-.504 7.344 2.177 7.863 5.995.519 3.817-2.126 7.334-5.94 7.872-.213.03-2.134.288-5.16.288z" fill="#231f20"/><path d="M341.677 193.139c16.337 15.023 22.581 40.75 30.502 69.966l-54.066 37.773-17.617-36.056" fill="#fff" fill-opacity="0.08"/><path d="M318.112 307.879a7.002 7.002 0 0 1-6.289-3.927l-17.617-36.056a7 7 0 0 1 12.578-6.145l14.025 28.705 43.328-30.271c-7.101-26.326-13.244-49.059-27.199-61.892a7 7 0 1 1 9.477-10.305c16.954 15.591 23.584 40.171 31.262 68.633l1.258 4.654a7 7 0 0 1-2.747 7.57l-54.066 37.773a6.995 6.995 0 0 1-4.009 1.262z" fill="#231f20"/><path d="M323.245 242.073c-7.726 16.74-38.704 80.697-47.682 94.862s-113.283 20.174-133.028-26.613c34.339-47.646 63.973-159.546 89.981-156.191 14.726 1.899 33.64 7.867 33.64 7.867l46.203 12.288c10.457 6.835 24.142 12.415 29.318 18.854" fill="#fff" fill-opacity="0.08"/><path d="M228.494 354.118c-5.515 0-10.75-.221-15.309-.599-23.228-1.927-64.132-9.749-77.099-40.475a6.996 6.996 0 0 1 .771-6.814c13.72-19.037 26.78-48.92 39.41-77.82 9.153-20.944 17.799-40.728 26.292-55.432 7.45-12.898 17.692-27.482 30.853-25.789 14.618 1.886 32.69 7.458 34.694 8.084l46.053 12.249a6.99 6.99 0 0 1 2.031.905c3.476 2.272 7.469 4.473 11.331 6.601 7.919 4.364 15.4 8.486 19.612 13.726a7.001 7.001 0 0 1-10.912 8.773c-2.48-3.085-9.078-6.721-15.458-10.237-3.755-2.069-7.628-4.204-11.27-6.522l-45.136-12.004a6.317 6.317 0 0 1-.306-.089c-.183-.058-18.511-5.805-32.43-7.601-.934-.122-6.149.224-16.939 18.906-8.101 14.026-16.594 33.461-25.587 54.037-12.206 27.93-24.806 56.759-38.462 76.933 10.007 17.677 35.457 24.451 50.298 26.949 34.123 5.746 64.788-.577 68.788-4.818 8.649-13.721 38.673-75.528 47.171-93.941a7 7 0 0 1 12.711 5.867c-8.084 17.515-38.868 81.071-48.125 95.676-6.442 10.164-31.763 13.436-52.982 13.436zm41.267-21.085z" fill="#231f20"/><path d="M319.687 151.63s-3.815 17.613-10.481 28.278-48.383-3.913-43.05-17.911l6.665-24.11" fill="#fff" fill-opacity="0.08"/><path d="M299.472 190.551c-8.277 0-17.647-2.929-24.092-6.133-13.121-6.522-19.033-15.677-15.896-24.558l6.59-23.839a7 7 0 0 1 13.494 3.73l-6.665 24.11a7.152 7.152 0 0 1-.205.626c.008.819 2.176 4.06 8.987 7.429 9.745 4.821 19.556 5.365 21.72 4.065 5.847-9.512 9.407-25.675 9.443-25.838.821-3.776 4.548-6.178 8.325-5.354a6.998 6.998 0 0 1 5.357 8.321c-.166.768-4.157 18.939-11.386 30.507-3.169 5.07-9.073 6.933-15.671 6.933z" fill="#231f20"/><path d="M275.697 142.616c-14.49 1.731-12.19-11.371-21.911-14.147-23.218-6.631-31.884-35.747-20.128-59.177 11.756-23.429 9.904-17.478 9.904-17.478s10.224-46.889 60.873-44.812 53.011 39.504 52.979 46.716 7.88 27.2 7.771 42.851c0 0 11.617 4.512 13.566 11.866s-10.935 47.156-29.49 52.029-44.826-6.614-44.826-6.614l-28.738-11.235z" fill="#fff" fill-opacity="0.08"/><g fill="#231f20"><path d="M275.697 149.615c-12.48 0-22.282-5.307-26.894-14.561-4.138-8.305-3.223-18.429 2.332-25.793 5.594-7.417 14.631-10.69 24.905-9.064 1.655-.191 6.98-1.148 10.682-5.751 4.005-4.98 5.147-13.267 3.303-23.964a7 7 0 1 1 13.797-2.379c2.61 15.139.46 27.037-6.391 35.365-8.515 10.351-21.041 10.759-21.569 10.771a7.117 7.117 0 0 1-1.443-.116c-5.323-.991-9.622.278-12.105 3.569-2.348 3.113-2.741 7.582-.978 11.12 2.187 4.388 7.288 6.805 14.363 6.805a7 7 0 1 1 0 14zm41.813-68.176a7 7 0 0 1-6.815-8.623c.087-.396 2.341-11.001-4.288-21.708a7.001 7.001 0 0 1 11.904-7.369c9.781 15.8 6.162 31.653 6.003 32.32a7.003 7.003 0 0 1-6.804 5.38z"/><path d="M357.378 67.93a7 7 0 0 1-6.787-5.302c-1.614-6.455-15.338-13.99-24.419-18.975-1.05-.577-2.075-1.139-3.062-1.688a7.001 7.001 0 0 1 6.799-12.239c.968.538 1.972 1.089 3.001 1.654 4.7 2.581 9.832 5.397 14.574 8.563-3.04-7.982-9-16.431-20.561-21.481-14.818-6.474-33.572-5.811-48.946 1.727-14.142 6.935-23.953 18.773-27.627 33.337a7.002 7.002 0 0 1-8.587 5.052c-8.49-2.258-24.545-11.821-24.545-31.849a7 7 0 1 1 14 0c0 8.068 4.264 12.8 8.113 15.427 5.904-14.958 17.207-27.046 32.483-34.537 19.253-9.44 41.95-10.184 60.714-1.986 28.651 12.517 33.338 42.143 31.813 56.06a7 7 0 0 1-6.962 6.238zm-103.583 67.539c-.363 0-.73-.028-1.1-.086-11.228-1.772-20.374-8.892-25.753-20.045-6.177-12.809-6.846-30.328-2.123-43.452-2.256-.573-5.346-.219-9.195 2.867a7 7 0 0 1-8.757-10.923c13.287-10.652 26.401-5.384 31.975.757a7 7 0 0 1 .907 8.156c-4.626 8.164-6.016 24.445-.196 36.514 3.421 7.095 8.578 11.232 15.326 12.297a7 7 0 0 1-1.083 13.916z"/><path d="M338.087 168.978c-17.951 0-35.739-8.367-36.667-8.81a7 7 0 1 1 6.031-12.635c6.553 3.11 26.485 10.297 39.763 6.237 13.377-4.091 24.709-36.503 24.715-43.561-.992-1.72-5.632-5.219-9.911-7.399a7.013 7.013 0 0 1-3.825-5.939c-.572-13.231-1.703-19.891-7.271-33.249a7 7 0 0 1 12.922-5.385c5.812 13.945 7.427 22.166 8.136 34.104 4.721 2.847 11.627 7.92 13.476 14.083 2.111 7.038-3.874 23.331-7.333 30.963-5.178 11.424-14.034 25.863-26.815 29.771-4.243 1.298-8.738 1.82-13.221 1.82zm33.959-58.532h.01zm-.13-.612z"/><circle cx="334.551" cy="93.535" r="7.125"/></g><path d="M444.72 281.992c0-10.558 23.076-28.847 32.778-34.983 19.286-12.197 37.075 6.401 37.133 25.812.054 18.137-39.465 35.377-51.024 41.793" fill="#fff" fill-opacity="0.08"/><path d="M463.613 321.616a7.001 7.001 0 0 1-3.404-13.122c1.741-.966 4-2.123 6.616-3.463 11.169-5.721 40.839-20.917 40.806-32.189-.026-8.754-4.654-17.399-11.255-21.022-4.757-2.61-9.849-2.239-15.136 1.105-14.07 8.899-29.52 24.112-29.52 29.067a7 7 0 1 1-14 0c0-17.615 35.676-40.671 36.036-40.899 9.639-6.096 20.065-6.644 29.356-1.546 11.036 6.057 18.478 19.42 18.519 33.254.054 18.325-24.967 32.677-48.424 44.691-2.504 1.282-4.667 2.39-6.203 3.243a6.984 6.984 0 0 1-3.391.881z" fill="#231f20"/><path d="M488.099 284.646a6.968 6.968 0 0 1-3.349-.858c-11.293-6.167-18.531-15.455-19.361-24.846-.596-6.738 2.148-12.915 7.727-17.392a7.001 7.001 0 0 1 8.763 10.919c-2.517 2.02-2.657 3.958-2.544 5.239.332 3.75 4.21 9.47 12.125 13.793a7 7 0 0 1-3.361 13.145z" fill="#231f20"/><path d="M444.72 281.992c.858-15.882 8.156-28.759 15.882-34.983s18.457 2.361 13.736 11.804c-4.722 9.443-3.863 19.745-3.863 19.745" fill="#fff" fill-opacity="0.08"/><path d="M444.726 288.992a7 7 0 0 1-6.996-7.378c1.049-19.402 10.234-33.414 18.48-40.057 6.067-4.889 14.184-4.917 20.197-.073 6.148 4.954 7.833 13.175 4.191 20.458-3.738 7.476-3.152 15.978-3.146 16.062.287 3.844-2.585 7.211-6.427 7.515a6.984 6.984 0 0 1-7.526-6.381c-.042-.5-.958-12.385 4.578-23.457.864-1.727.231-2.746-.452-3.295-.842-.678-1.728-.653-2.631.073-6.071 4.891-12.533 16.037-13.283 29.91a7 7 0 0 1-6.984 6.622z" fill="#231f20"/><path d="M153.409 187.169c-13.908 5.993-59.359 31.244-67.712 40.193s-57.952 91.461-63.321 100.653-15.949 31.971-15.352 46.289c.597 14.319 5.715 39.753 16.76 43.463 7.857 2.639 14.104-13.74 11.121-46.553 0 0 1.193 26.251 9.546 17.302s14.915-31.62 10.739-41.166c0 0 49.599-69.872 53.179-80.611l61.149-35.421" fill="#fff" fill-opacity="0.08"/><path d="M25.377 425.036a11.98 11.98 0 0 1-3.822-.632C2.054 417.854.104 376.36.03 374.597c-.708-17.002 11.527-41.938 16.302-50.112.516-.884 54.557-91.515 64.248-101.898 9.804-10.504 57.729-36.533 70.059-41.846a7 7 0 0 1 5.541 12.858c-15.432 6.65-58.41 31.09-65.365 38.542-7.248 7.765-54.711 86.254-62.395 99.407-6.087 10.422-14.875 31.126-14.402 42.467.656 15.74 5.833 32.731 10.854 36.496 1.718-2.863 4.785-12.32 3.484-33.181a88.543 88.543 0 0 1-.443-5.796 7 7 0 0 1 13.964-.952c.125 1.375.245 2.842.351 4.38.153 1.36.345 2.693.561 3.922 5.225-9.212 8.194-23.685 5.988-28.728a7 7 0 0 1 .705-6.857c20.345-28.661 50.005-72.049 52.246-78.773a6.998 6.998 0 0 1 3.132-3.844l61.149-35.42a7 7 0 1 1 7.017 12.114l-59.178 34.279c-7.259 14.789-40.219 61.757-50.987 76.977 2.713 13.396-4.356 35.085-13.292 44.661-2.603 2.789-5.196 3.793-7.327 4.021-.911 10.554-3.485 20.405-9.366 25.052-2.229 1.761-4.838 2.671-7.498 2.671zm.636-13.904h.01z" fill="#231f20"/><path d="M232.516 154.131c-21.832-3.951-78.184 22.286-89.981 29.452s13.261 68.975 28.773 63.426c15.512-5.548 44.746-19.867 44.746-19.867" fill="#fff" fill-opacity="0.08"/><path d="M169.172 254.393c-9.062.001-18.492-9.465-26.994-27.306-1.947-4.086-18.583-40.189-3.278-49.487 10.227-6.212 69.698-34.91 94.862-30.358a7.001 7.001 0 0 1-2.493 13.777c-17.592-3.178-69.394 19.244-84.52 28.199-1.301 3.746 1.289 19.173 9.863 35.431 6.389 12.114 11.318 15.358 12.564 15.688 15.031-5.414 43.51-19.34 43.798-19.481a7 7 0 0 1 6.158 12.574c-1.208.591-29.766 14.555-45.467 20.171-1.483.53-2.983.793-4.493.793z" fill="#231f20"/></g></g></svg>