<svg xmlns="http://www.w3.org/2000/svg" fill="none" viewBox="0 0 1000 1000" width="1000" height="1000"><defs><clipPath id="assetClipPath_RhuRTOlG"><path d="m0 0 h 709.75 v 563.325 h -709.75 v -563.325 z" id="path_bSAcakQZ" fill="#ffffff" /></clipPath><clipPath id="assetClipPath_4qQhBngo"><path d="m0 0 h 738.03 v 518.877 h -738.03 v -518.877 z" id="path_6AA9481d" fill="#ffffff" /></clipPath><clipPath id="assetClipPath_O2DLqNnw"><path d="m0 0 h 147.063 v 207.323 h -147.063 v -207.323 z" id="path_i9uFH-Lj" fill="#ffffff" /></clipPath><clipPath id="assetClipPath_zUXiE20H"><path d="m0 0 h 122.35 v 163.44 h -122.35 v -163.44 z" id="path_MybUcExJ" fill="#ffffff" /></clipPath></defs><g transform="translate(138 121) rotate(12.58664007446183 355.5 282.5)" data-asset-index="0"><g clip-path="url(#assetClipPath_RhuRTOlG)" transform="scale(1.0017611835153224 1.0017611835153224)" data-asset-index="0"><linearGradient id="linearGradient_vWDFOGt-" gradientTransform="matrix(.99683879 -.07945083 .07945083 .99683879 -465.517 198.325)" gradientUnits="userSpaceOnUse" x1="620.072" x2="970.643" y1="-106.634" y2="396.236"><stop offset="0" stop-color="#8FE2BE" /><stop offset=".55" stop-color="#E9ECFF" /><stop offset="1" stop-color="#8FE2BE" /></linearGradient><linearGradient id="linearGradient_bE47Gk_6" gradientTransform="matrix(.99683879 -.07945083 .07945083 .99683879 -465.517 198.325)" gradientUnits="userSpaceOnUse" x1="604.18" x2="994.981" y1="-100.751" y2="380.567"><stop offset="0" stop-color="#34C488" /><stop offset=".539" stop-color="#8FE2BE" /><stop offset="1" stop-color="#34C488" /></linearGradient><path d="m644.365 405.112c.254-.137.603-.297.862-.425-151.668-80.033-326.065-233.443-419.949-343.62-12.548 4.979-29.733 11.798-42.082-10.421l-126.262 91.848c15.47 15.208 12.316 34.816-1.116 40.2 162.466 191.235 397.555 340.953 421.531 343.854 13.796-12.061 35.193-9.312 44.71-2.802l126.262-91.848c-18.14-5.814-17.337-19.588-3.956-26.786z" fill="url(#linearGradient_vWDFOGt-)" id="y6BAp8GJK1VkgXgPY2uvk" /><path d="m477.348 528.048c-.06 0-.12-.004-.18-.011-24.073-2.912-259.805-152.875-422.494-344.372-.312-.368-.429-.863-.313-1.332.116-.468.45-.852.898-1.032 5.249-2.104 8.934-6.678 10.111-12.551 1.663-8.295-1.884-17.711-9.489-25.187-.314-.309-.477-.741-.444-1.18.033-.44.257-.843.614-1.102l126.262-91.848c.347-.253.786-.344 1.206-.252.419.093.779.36.988.736 11.709 21.067 27.516 14.795 40.218 9.755.597-.236 1.279-.067 1.695.421 93.792 110.068 268.007 263.322 419.508 343.266.499.263.808.784.8 1.348s-.332 1.075-.837 1.325l-.281.136c-.182.087-.377.18-.533.264-6.089 3.275-9.472 7.983-9.048 12.592.443 4.818 5.091 8.99 12.751 11.445.538.172.933.633 1.023 1.19s-.142 1.119-.599 1.451l-126.263 91.848c-.513.373-1.205.384-1.729.025-9.125-6.243-29.644-8.875-42.875 2.693-.275.24-.626.371-.987.371zm-419.11-344.823c160.864 188.693 391.651 336.511 418.661 341.734 13.948-11.667 34.938-9.302 45.11-3.031l123.147-89.582c-7.249-2.957-11.617-7.618-12.116-13.046-.496-5.4 2.851-10.758 9.025-14.59-150.888-80.275-323.599-232.22-417.232-341.853-12.046 4.76-29.513 10.985-42.103-10.017l-123.512 89.848c7.473 7.981 10.862 17.832 9.094 26.653-1.237 6.173-4.863 11.132-10.074 13.884z" fill="#071838" id="i5dECAdE_gbPxjJ3P3qjZ" /><path d="m447.385 240.846c-49.29-40.431-96.712-83.48-137.722-124.823-41.012-41.335-75.616-80.978-99.239-114.52-.544-.766-209.466 151.213-208.923 151.979 23.624 33.542 58.228 73.185 99.24 114.521 41.009 41.343 88.432 84.392 137.722 124.823 89.922 73.77 186.106 138.831 260.863 168.999.74.305 209.663-151.673 208.922-151.979-74.757-30.168-170.941-95.23-260.863-168.999zm74.673 282.9c-9.517-6.511-30.915-9.259-44.71 2.802-23.976-2.9-259.065-152.619-421.531-343.854 13.433-5.384 16.586-24.991 1.116-40.2l126.262-91.848c12.349 22.218 29.534 15.4 42.082 10.421 93.885 110.177 268.281 263.587 419.949 343.62-.259.127-.608.288-.862.425-13.382 7.198-14.185 20.972 3.956 26.786zm-239.951-258.954c46.246-33.667 114.826-30.28 143.885 7.108 44.732 57.553-35.01 125.591-111.814 116.401-68.233-8.165-97.103-71.924-32.071-123.508" fill="url(#linearGradient_bE47Gk_6)" id="iSZR68san8MOpRHJMTZm_" /><path d="m499.237 563.338c-.176 0-.313-.057-.483-.126-69.754-28.149-162.535-88.25-261.243-169.227-48.857-40.075-96.52-83.274-137.835-124.926-41.958-42.29-76.331-81.957-99.401-114.714-.872-1.228.027-1.926 1.996-3.456 1.138-.884 2.827-2.166 5-3.796 4.189-3.143 10.327-7.694 18.245-13.527 14.54-10.712 35.285-25.897 58.416-42.758 48.47-35.332 95.885-69.637 115.303-83.423 3.247-2.305 5.814-4.111 7.58-5.328 3.17-2.185 3.923-2.704 4.833-1.423 22.98 32.628 57.241 72.162 99.082 114.333 41.243 41.579 88.828 84.706 137.608 124.72 98.48 80.79 190.984 140.726 260.474 168.768.371.15.667.445.822.813s.157.787.004 1.156c-.199.482-.531 1.289-104.874 77.189-27.284 19.847-52.737 38.306-71.671 51.978-10.189 7.357-18.171 13.097-23.725 17.06-7.885 5.628-9.368 6.686-10.129 6.686zm-495.73-409.618c22.97 32.411 56.93 71.529 98.299 113.225 41.245 41.581 88.829 84.708 137.608 124.719 98.148 80.518 190.365 140.324 259.775 168.486 11.333-7.602 185.901-134.568 206.122-149.882-69.478-28.543-161.284-88.2-258.877-168.263-48.858-40.077-96.521-83.276-137.835-124.926-41.473-41.8-75.534-81.038-98.597-113.575-15.704 10.439-191.94 138.641-206.495 150.216zm-.783-1.106s.005.007.006.009c-.002-.003-.004-.006-.006-.009zm474.624 375.434c-.06 0-.121-.004-.181-.011-24.073-2.912-259.805-152.875-422.494-344.371-.312-.368-.429-.863-.313-1.332s.45-.853.898-1.032c5.249-2.104 8.934-6.678 10.111-12.551 1.663-8.295-1.884-17.711-9.489-25.187-.314-.309-.477-.741-.444-1.18.033-.44.257-.843.614-1.102l126.262-91.848c.347-.253.786-.344 1.206-.252.419.093.779.361.988.736 11.709 21.067 27.516 14.795 40.218 9.755.597-.236 1.279-.067 1.695.421 93.792 110.068 268.007 263.322 419.508 343.266.499.263.808.784.8 1.348s-.332 1.075-.837 1.325l-.282.136c-.182.087-.377.181-.533.264-6.089 3.275-9.471 7.982-9.048 12.592.443 4.818 5.091 8.99 12.751 11.445.538.172.933.633 1.023 1.19s-.142 1.119-.599 1.451l-126.263 91.849c-.513.373-1.205.383-1.729.025-9.124-6.242-29.644-8.875-42.875 2.693-.275.24-.626.371-.987.371zm-419.11-344.823c160.864 188.693 391.651 336.511 418.661 341.734 13.947-11.667 34.938-9.302 45.11-3.032l123.147-89.582c-7.249-2.957-11.617-7.618-12.116-13.046-.496-5.4 2.851-10.759 9.025-14.59-150.888-80.274-323.599-232.219-417.232-341.852-12.046 4.76-29.513 10.985-42.103-10.017l-123.512 89.848c7.473 7.981 10.862 17.833 9.094 26.653-1.237 6.173-4.863 11.132-10.074 13.884zm270.029 207.404c-4.803 0-9.572-.278-14.267-.84-34.567-4.136-60.57-22.712-67.86-48.477-7.33-25.902 5.44-54.221 35.035-77.696.016-.013.033-.025.049-.037 46.861-34.115 116.427-30.588 145.952 7.4 15.711 20.214 17.489 43.507 5.005 65.586-9.53 16.855-26.581 31.623-48.01 41.585-17.621 8.191-37.031 12.479-55.903 12.479zm-45.253-124.642c-28.58 22.681-40.969 49.838-33.988 74.509 6.955 24.578 31.988 42.325 65.33 46.315 4.464.534 8.989.794 13.524.794 41.337.002 84.158-21.512 101.688-52.516 11.85-20.958 10.158-43.072-4.762-62.269-28.586-36.78-96.162-40.033-141.793-6.833z" fill="#071838" id="A6lNld-i39OoFSKP5z3jy" /></g></g><g transform="translate(93 344) rotate(4.979790245853135 369 261)" data-asset-index="1"><g clip-path="url(#assetClipPath_4qQhBngo)" transform="scale(0.9999593512458843 0.9999593512458843)" data-asset-index="1"><linearGradient id="linearGradient_sGt2iUN2" gradientTransform="matrix(.99683879 -.07945083 .07945083 .99683879 -408.063 194.513)" gradientUnits="userSpaceOnUse" x1="447.319" x2="987.545" y1="-201.859" y2="387.217"><stop offset="0" stop-color="#8FE2BE" /><stop offset=".603" stop-color="#E9ECFF" /><stop offset="1" stop-color="#8FE2BE" /></linearGradient><linearGradient id="linearGradient_scG_p00H" gradientTransform="matrix(.99683879 -.07945083 .07945083 .99683879 -408.063 194.513)" gradientUnits="userSpaceOnUse" x1="537.905" x2="990.435" y1="-90.12" y2="352.533"><stop offset="0" stop-color="#34C488" /><stop offset=".539" stop-color="#8FE2BE" /><stop offset="1" stop-color="#34C488" /></linearGradient><path d="m666.237 346.335c.997-.83 2.419-1.822 3.504-2.533-167.804-50.377-348.537-181.185-445.448-281.403-11.793 14.68-32.491 10.123-41.164-3.905l-123.332 109.036c16.122 13.702 13.135 33.005-.192 40.467 123.244 125.516 306.418 241.233 445.448 281.403 13.428-15.244 37.015-15.904 45.371-11.97l123.332-109.036c-18.526-1.868-16.828-14.312-7.52-22.058z" fill="url(#linearGradient_sGt2iUN2)" id="lfIL1Qu-DNwdzWI_3xFwe" /><path d="m505.054 490.9c-.139 0-.279-.019-.417-.059-139.252-40.235-322.696-156.112-446.102-281.793-.328-.333-.481-.801-.415-1.263.066-.463.344-.868.752-1.096 5.896-3.302 9.652-9.041 10.305-15.746.769-7.907-3.004-16.024-10.352-22.269-.332-.282-.524-.694-.529-1.128-.004-.435.181-.85.506-1.138l123.332-109.036c.332-.293.774-.425 1.213-.36.438.064.824.319 1.057.695 4.344 7.026 12.038 11.698 20.08 12.193 7.286.445 13.906-2.548 18.638-8.439.27-.336.67-.539 1.101-.559.432-.021.848.146 1.147.456 96.781 100.083 277.255 230.71 444.801 281.01.559.167.969.644 1.053 1.221s-.174 1.151-.662 1.47c-1.313.861-2.572 1.77-3.366 2.431-4.761 3.962-7.104 8.923-5.968 12.637 1.119 3.658 5.621 6.064 12.679 6.775.593.06 1.095.465 1.277 1.033s.012 1.189-.434 1.584l-123.332 109.036c-.449.396-1.091.489-1.632.233-8.008-3.77-30.66-3.092-43.606 11.605-.289.328-.701.508-1.125.508zm-443.056-282.612c122.802 124.56 304.376 239.214 442.573 279.41 13.535-14.588 36.314-15.606 45.57-12.02l120.194-106.262c-8.156-1.554-11.034-5.337-11.975-8.414-1.513-4.948 1.138-11.01 6.918-15.821.335-.279.701-.564 1.07-.841-166.567-50.892-345.241-180.105-441.984-279.715-5.265 5.817-12.326 8.741-20.063 8.266-8.421-.519-16.494-5.119-21.468-12.134l-120.773 106.774c7.255 6.732 10.924 15.286 10.105 23.7-.686 7.048-4.357 13.166-10.167 17.056zm604.24 138.047h.01z" fill="#071838" id="EsAxzSYDlyUCCOOMGAJTW" /><path d="m459.668 216.86c-100.806-63.686-196.336-143.118-254.094-215.358-.583-.728-204.656 179.69-204.073 180.419 57.758 72.24 153.288 151.672 254.094 215.358 97.039 61.321 198.987 108.066 276.86 120.099.701.106 204.774-180.313 204.073-180.419-77.873-12.033-179.822-58.778-276.86-120.098zm90.757 260.569c-8.355-3.934-31.943-3.274-45.371 11.97-139.029-40.17-322.204-155.887-445.448-281.403 13.327-7.462 16.314-26.764.192-40.467l123.332-109.036c8.673 14.028 29.371 18.585 41.164 3.905 96.911 100.218 277.644 231.026 445.448 281.403-1.085.711-2.507 1.703-3.504 2.533-9.308 7.746-11.006 20.19 7.52 22.058l-123.332 109.036zm-256.957-213.537c49.374-43.685 122.377-40.965 152.235-9.476 44.399 46.824-33.475 133.385-117.36 130.452-64.849-2.268-94.501-63.652-34.875-120.975" fill="url(#linearGradient_scG_p00H)" id="N_GMkdSph829k0ETKtsx" /><path d="m532.482 518.886c-.083 0-.162-.012-.25-.025-73.224-11.314-174.344-55.167-277.438-120.314-103.772-65.56-198.899-146.191-254.464-215.69-.921-1.15-.261-1.765 2.192-4.052 1.371-1.279 3.4-3.134 5.998-5.488 5.005-4.535 12.283-11.066 21.63-19.41 17.308-15.452 41.026-36.508 66.784-59.291 46.603-41.221 99.954-88.142 106.961-93.751.261-.209.461-.363.6-.463 1.308-.942 2.158.047 2.25.163 55.368 69.251 150.218 149.635 253.725 215.027 102.758 64.935 203.461 108.631 276.288 119.884.817.126 1.379.892 1.256 1.709q-.116.769-32.328 29.453c-18.466 16.413-43.32 38.434-69.984 62.006-26.676 23.583-51.568 45.542-70.091 61.831-9.579 8.424-17.578 15.439-23.204 20.345-8.338 7.271-9.25 8.066-9.924 8.066zm-528.993-336.884c55.482 69.022 149.908 148.938 252.908 214.009 102.463 64.749 202.88 108.38 275.657 119.786 10.143-8.347 180.139-158.613 201.232-177.837-72.97-12.035-172.735-55.575-274.419-119.831-103.209-65.205-197.87-145.322-253.56-214.561-15.416 12.53-188.213 165.302-201.818 178.434zm501.565 308.898c-.139 0-.279-.019-.417-.059-139.252-40.235-322.696-156.112-446.102-281.793-.328-.333-.481-.801-.415-1.263.066-.463.344-.868.752-1.096 5.896-3.302 9.652-9.041 10.305-15.746.769-7.907-3.004-16.024-10.352-22.269-.332-.282-.524-.693-.529-1.128s.181-.85.506-1.138l123.332-109.036c.332-.292.774-.425 1.213-.36.438.064.824.319 1.057.695 4.343 7.026 12.038 11.698 20.08 12.193 7.286.445 13.906-2.548 18.638-8.439.27-.335.67-.539 1.101-.559.432-.021.848.146 1.147.456 96.781 100.083 277.255 230.71 444.801 281.01.559.167.969.644 1.053 1.221s-.174 1.151-.662 1.47c-1.313.861-2.572 1.77-3.366 2.431-4.762 3.963-7.104 8.923-5.969 12.637 1.119 3.658 5.621 6.064 12.679 6.775.593.06 1.095.465 1.277 1.033s.012 1.189-.434 1.583l-123.332 109.037c-.449.396-1.09.489-1.633.233-8.008-3.77-30.66-3.092-43.606 11.605-.289.328-.701.508-1.125.508zm-443.056-282.612c122.802 124.56 304.375 239.214 442.573 279.41 13.535-14.588 36.314-15.606 45.57-12.02l120.194-106.262c-8.156-1.554-11.034-5.337-11.975-8.414-1.513-4.948 1.138-11.01 6.918-15.82.335-.279.701-.564 1.07-.841-166.567-50.893-345.241-180.105-441.984-279.715-5.265 5.817-12.326 8.741-20.063 8.266-8.421-.519-16.494-5.119-21.468-12.134l-120.773 106.774c7.255 6.732 10.923 15.286 10.105 23.7-.686 7.048-4.358 13.165-10.167 17.055zm270.617 178.154c-1.44 0-2.877-.025-4.324-.076-31.18-1.09-56.091-16.257-65.013-39.58-9.945-25.997.68-56.604 29.151-83.976.015-.014.03-.028.045-.042 49.985-44.225 124-41.36 154.318-9.385 14.834 15.644 17.376 36.743 7.158 59.412-16.574 36.772-66.064 73.646-121.335 73.646zm-38.13-121.447c-27.541 26.489-37.896 55.91-28.405 80.719 8.613 22.514 31.909 36.59 62.316 37.654 55.744 1.941 106.22-34.978 122.82-71.805 9.684-21.485 7.34-41.414-6.6-56.115-29.392-30.997-101.369-33.573-150.13 9.548z" fill="#071838" id="f5wSMMFgFslCWeQXcV1oC" /></g></g><g transform="translate(735 290) rotate(85.68681849947797 74 104)" data-asset-index="2"><g clip-path="url(#assetClipPath_O2DLqNnw)" transform="scale(1.006371419051699 1.006371419051699)" data-asset-index="2"><linearGradient id="linearGradient_DmTbmK27" gradientUnits="userSpaceOnUse" x1="21.213" x2="137.775" y1="5.473" y2="188.449"><stop offset="0" stop-color="#FFD44C" /><stop offset=".496" stop-color="#FFEDBF" /><stop offset="1" stop-color="#FFD44C" /></linearGradient><linearGradient id="linearGradient_JASK0fCT" gradientUnits="userSpaceOnUse" x1="10.667" x2="109.61" y1="29.686" y2="196.397"><stop offset="0" stop-color="#DDAE22" /><stop offset=".416" stop-color="#FFD44C" /><stop offset="1" stop-color="#DDAE22" /></linearGradient><path d="m139.613 155.395c-1.416-3.994-3.038-8.183-4.842-12.52-4.825-11.605-10.943-24.275-17.84-37.134-9.903-18.465-21.412-37.319-33.003-53.969-7.408-10.642-14.851-20.384-21.929-28.549-1.807-2.085-3.548-4.017-5.22-5.799-11.975-12.757-20.409-17.744-24.471-15.338l-28.056 16.62c4.062-2.406 12.496 2.581 24.472 15.339 1.672 1.781 3.413 3.714 5.22 5.799 7.078 8.165 14.52 17.907 21.929 28.549 11.591 16.65 23.1 35.504 33.003 53.969 6.897 12.859 13.015 25.528 17.84 37.134 1.803 4.337 3.426 8.526 4.842 12.52 6.871 19.389 7.587 30.622 3.198 33.222l28.056-16.62c4.389-2.6 3.673-13.834-3.198-33.222z" fill="url(#linearGradient_DmTbmK27)" id="MYTYne68IBBpYu26Ruv1-" /><path d="m114.756 206.738c-.513 0-1.012-.263-1.292-.735-.422-.713-.187-1.633.526-2.055 2.914-1.727 3.433-10.89-3.847-31.432-1.383-3.903-3.002-8.091-4.813-12.445-4.733-11.384-10.714-23.832-17.776-37-10.003-18.65-21.384-37.262-32.912-53.821-7.602-10.919-14.947-20.482-21.831-28.424-1.768-2.038-3.51-3.975-5.181-5.754-15.914-16.956-21.324-15.832-22.609-15.08l-.005.004c-.712.422-1.633.186-2.055-.526-.422-.713-.187-1.633.526-2.056.004-.002.007-.004.011-.006l28.045-16.613c4.987-2.948 13.842 2.298 26.33 15.604 1.689 1.8 3.459 3.766 5.26 5.843 6.957 8.023 14.367 17.671 22.026 28.674 11.595 16.656 23.039 35.369 33.094 54.117 7.107 13.25 13.131 25.788 17.904 37.267 1.831 4.403 3.469 8.641 4.871 12.596 7.098 20.03 7.956 31.811 2.548 35.014l-28.052 16.617-.004.003c-.24.142-.503.209-.763.209zm-105.005-189.547c5.026 1.666 11.739 6.956 20.066 15.828 1.697 1.808 3.467 3.773 5.26 5.842 6.954 8.021 14.364 17.669 22.026 28.674 11.594 16.654 23.037 35.368 33.094 54.118 7.109 13.254 13.132 25.792 17.903 37.266 1.831 4.404 3.47 8.642 4.871 12.596 4.912 13.861 6.835 23.771 5.762 29.623l23.313-13.811c2.914-1.725 3.433-10.888-3.847-31.43-1.383-3.904-3.002-8.092-4.813-12.445-4.735-11.389-10.716-23.837-17.777-37.001-10.001-18.647-21.382-37.258-32.912-53.82-7.599-10.917-14.944-20.48-21.831-28.424-1.775-2.047-3.518-3.983-5.181-5.755-15.935-16.978-21.336-15.831-22.613-15.075l-23.321 13.813z" fill="#071838" id="RjiStMYHBLD6nqVq0FSyh" /><path d="m7.45 51.929c-14.117-39.838-2.254-45.246 26.493-12.086s63.496 92.334 77.614 132.172c14.116 39.834 2.255 45.246-26.493 12.086-28.747-33.16-63.498-92.338-77.614-132.172z" fill="url(#linearGradient_JASK0fCT)" id="klPmkHOM0PWzx390k0rM" /><path d="m112.498 207.311c-7.582 0-19.414-11.668-28.567-22.228-28.806-33.226-63.749-92.734-77.895-132.653-7.114-20.076-7.96-31.863-2.514-35.035 7.109-4.143 21.084 9.388 31.555 21.466 28.804 33.226 63.748 92.734 77.895 132.653 7.114 20.075 7.959 31.862 2.514 35.034-.894.521-1.896.763-2.987.763zm-105.908-187.696c-.625 0-1.143.129-1.559.371-2.929 1.706-3.46 10.861 3.833 31.441 14.041 39.624 48.732 98.7 77.333 131.69 15.722 18.135 24.655 22.654 27.778 20.838 2.929-1.706 3.46-10.861-3.832-31.44-14.042-39.625-48.734-98.7-77.333-131.69-13.628-15.719-22.157-21.21-26.22-21.21z" fill="#071838" id="rITEK402niEwT4oLrcOlt" /><path d="m25.014 72.188c-9.354-26.395-1.494-29.98 17.554-8.008 19.049 21.972 42.073 61.181 51.426 87.576 9.354 26.395 1.494 29.98-17.554 8.008-19.049-21.972-42.073-61.181-51.426-87.576z" fill="#DDAE22" id="ozJrJns-GroDAm4MXMVmG" /><path d="m94.617 175.652c-4.243 0-10.719-4.994-19.31-14.904-19.12-22.055-42.316-61.558-51.707-88.058-4.807-13.564-5.292-21.579-1.444-23.82 4.021-2.345 11.271 2.478 21.545 14.328 19.12 22.055 42.316 61.558 51.707 88.058 4.807 13.564 5.292 21.579 1.444 23.82-.659.384-1.404.575-2.235.576zm-70.191-124.363c-.321 0-.573.062-.76.172-.374.218-3.472 2.635 2.762 20.227 9.286 26.205 32.23 65.275 51.146 87.095 10.937 12.614 16.312 14.549 17.769 13.701.374-.218 3.472-2.635-2.762-20.227-9.286-26.205-32.23-65.275-51.146-87.095-9.528-10.99-14.838-13.873-17.008-13.873z" fill="#071838" id="Ly9MPGpbLk0G9tw9TVDEP" /></g></g><g transform="translate(464 166) rotate(134.35000893559388 61.5 81.5)" data-asset-index="3"><g clip-path="url(#assetClipPath_zUXiE20H)" transform="scale(1.005312627707397 1.005312627707397)" data-asset-index="3"><linearGradient id="linearGradient_MWsvr5fk" gradientUnits="userSpaceOnUse" x1="56.579" x2="107.271" y1="-1.317" y2="148.384"><stop offset="0" stop-color="#DDAE22" /><stop offset=".306" stop-color="#FFD44C" /><stop offset="1" stop-color="#DDAE22" /></linearGradient><linearGradient id="linearGradient_xmM7qlD0" gradientUnits="userSpaceOnUse" x1="8.924" x2="97.636" y1="31.992" y2="141.298"><stop offset="0" stop-color="#FFD44C" /><stop offset=".237" stop-color="#FFEDBF" /><stop offset="1" stop-color="#FFD44C" /></linearGradient><path d="m119.726 86.733c-2.894-20.971-11.209-42.16-23.013-58.288-4.69-6.407-9.93-12.016-15.6-16.494-12.164-9.606-24.237-12.379-34.374-9.185l-18.942 5.966c10.137-3.193 22.21-.42 34.373 9.186 5.67 4.478 10.91 10.086 15.6 16.494 11.804 16.127 20.119 37.317 23.013 58.288 1.454 10.537 1.539 21.019.011 30.776-3.187 20.338-12.723 33.275-25.183 37.2l18.942-5.966c12.46-3.925 21.996-16.862 25.183-37.2 1.529-9.756 1.443-20.238-.011-30.776z" fill="url(#linearGradient_MWsvr5fk)" id="t0wgQmMs8OuArm2Gpdvf0" /><path d="m75.611 162.174c-.637 0-1.229-.409-1.43-1.05-.249-.79.19-1.632.98-1.881 12.374-3.896 21.177-17.019 24.151-36.001 1.472-9.394 1.467-19.601-.015-30.338-2.868-20.787-11.156-41.784-22.738-57.607-4.723-6.453-9.877-11.904-15.319-16.202-11.281-8.908-22.998-12.083-32.993-8.933-.79.247-1.632-.189-1.881-.98-.249-.79.19-1.632.98-1.881.006-.002.012-.004.019-.006l18.923-5.96c10.973-3.454 23.671-.104 35.754 9.44 5.653 4.464 10.997 10.111 15.881 16.784 11.866 16.213 20.354 37.706 23.289 58.969 1.522 11.028 1.524 21.529.007 31.213-3.157 20.149-12.712 34.146-26.214 38.398l-18.942 5.966s0 0 0 0c-.15.047-.302.069-.451.069zm-35.061-155.886c7.383 1.023 15.083 4.557 22.55 10.454 5.654 4.466 10.998 10.112 15.88 16.784 11.866 16.212 20.354 37.705 23.289 58.969 1.522 11.027 1.524 21.529.007 31.213-2.169 13.84-7.356 24.776-14.766 31.646l6.593-2.076c12.375-3.897 21.178-17.021 24.152-36.002 1.472-9.394 1.467-19.601-.015-30.338-2.869-20.786-11.156-41.783-22.738-57.607-4.724-6.454-9.878-11.905-15.319-16.202-11.28-8.909-22.996-12.079-32.993-8.933l-6.639 2.092z" fill="#071838" id="t-_fmLd0cKs9qgNnUJzh" /><path d="m2.613 45.934c5.781-36.887 32.444-49.43 59.557-28.016 27.112 21.412 44.404 68.67 38.624 105.557-5.78 36.885-32.443 49.427-59.554 28.014-27.114-21.413-44.406-68.67-38.627-105.555z" fill="url(#linearGradient_xmM7qlD0)" id="iXMpt3PA2LbOIvROwi2X" /><path d="m67.261 163.445c-8.67 0-17.937-3.659-26.951-10.778-27.448-21.678-45.024-69.663-39.179-106.965 2.993-19.094 11.877-32.854 24.376-37.751 11.404-4.469 24.757-1.348 37.593 8.791 27.447 21.677 45.021 69.662 39.176 106.966-2.992 19.093-11.876 32.852-24.375 37.749-3.396 1.33-6.965 1.988-10.641 1.988zm-64.648-117.511 1.482.232c-5.696 36.347 11.384 83.067 38.074 104.146 11.963 9.449 24.266 12.415 34.637 8.35 11.48-4.498 19.683-17.408 22.505-35.42 5.696-36.349-11.383-83.069-38.071-104.147-11.965-9.449-24.265-12.415-34.64-8.352-11.479 4.5-19.682 17.41-22.505 35.424l-1.482-.232z" fill="#071838" id="Fz8mzfQXtN2yLrcHtRJEW" /><path d="m19.175 59.014c3.83-24.44 21.5-32.752 39.465-18.564s29.423 45.505 25.593 69.946c-3.83 24.44-21.497 32.751-39.462 18.563s-29.425-45.504-25.596-69.944z" fill="#DDAE22" id="g0AhQ2GfAVjnOc2QBXln8" /><path d="m62.01 137.387c-5.857 0-12.104-2.461-18.169-7.252-18.316-14.466-30.046-46.475-26.148-71.354 2.011-12.833 8.014-22.094 16.468-25.406 7.732-3.03 16.756-.936 25.408 5.897 18.315 14.465 30.043 46.475 26.145 71.355-2.011 12.833-8.013 22.093-16.467 25.405-2.312.906-4.739 1.354-7.237 1.354zm-41.353-78.14c-3.749 23.923 7.486 54.668 25.043 68.535 7.781 6.146 15.754 8.084 22.453 5.459 7.435-2.913 12.756-11.324 14.597-23.077 3.749-23.926-7.484-54.671-25.041-68.537-7.781-6.144-15.756-8.083-22.455-5.458-7.436 2.914-12.757 11.325-14.599 23.078z" fill="#071838" id="u_16HumKjEeNcM9nv_kGu" /></g></g></svg>