<svg xmlns="http://www.w3.org/2000/svg" fill="none" viewBox="0 0 1000 1000" width="1000" height="1000"><defs><clipPath id="assetClipPath_RhuRTOlG"><path d="m0 0 h 709.75 v 563.325 h -709.75 v -563.325 z" id="path_bSAcakQZ" fill="#ffffff" /></clipPath><clipPath id="assetClipPath_4qQhBngo"><path d="m0 0 h 738.03 v 518.877 h -738.03 v -518.877 z" id="path_6AA9481d" fill="#ffffff" /></clipPath><clipPath id="assetClipPath_O2DLqNnw"><path d="m0 0 h 147.063 v 207.323 h -147.063 v -207.323 z" id="path_i9uFH-Lj" fill="#ffffff" /></clipPath><clipPath id="assetClipPath_zUXiE20H"><path d="m0 0 h 122.35 v 163.44 h -122.35 v -163.44 z" id="path_MybUcExJ" fill="#ffffff" /></clipPath></defs><g transform="translate(138 121) rotate(12.58664007446183 355.5 282.5)" data-asset-index="0"><g clip-path="url(#assetClipPath_RhuRTOlG)" transform="scale(1.0017611835153224 1.0017611835153224)" data-asset-index="0"><linearGradient id="linearGradient_vWDFOGt-" gradientTransform="matrix(.99683879 -.07945083 .07945083 .99683879 -465.517 198.325)" gradientUnits="userSpaceOnUse" x1="620.072" x2="970.643" y1="-106.634" y2="396.236"><stop offset="0" stop-color="#8FE2BE" /><stop offset=".55" stop-color="#E9ECFF" /><stop offset="1" stop-color="#8FE2BE" /></linearGradient><linearGradient id="linearGradient_bE47Gk_6" gradientTransform="matrix(.99683879 -.07945083 .07945083 .99683879 -465.517 198.325)" gradientUnits="userSpaceOnUse" x1="604.18" x2="994.981" y1="-100.751" y2="380.567"><stop offset="0" stop-color="#34C488" /><stop offset=".539" stop-color="#8FE2BE" /><stop offset="1" stop-color="#34C488" /></linearGradient><path d="m644.365 405.112c.254-.137.603-.297.862-.425-151.668-80.033-326.065-233.443-419.949-343.62-12.548 4.979-29.733 11.798-42.082-10.421l-126.262 91.848c15.47 15.208 12.316 34.816-1.116 40.2 162.466 191.235 397.555 340.953 421.531 343.854 13.796-12.061 35.193-9.312 44.71-2.802l126.262-91.848c-18.14-5.814-17.337-19.588-3.956-26.786z" fill="none" stroke="#071838" stroke-width="13" stroke-linejoin="round" stroke-linecap="round" id="y6BAp8GJK1VkgXgPY2uvk" /><path d="m447.385 240.846c-49.29-40.431-96.712-83.48-137.722-124.823-41.012-41.335-75.616-80.978-99.239-114.52-.544-.766-209.466 151.213-208.923 151.979 23.624 33.542 58.228 73.185 99.24 114.521 41.009 41.343 88.432 84.392 137.722 124.823 89.922 73.77 186.106 138.831 260.863 168.999.74.305 209.663-151.673 208.922-151.979-74.757-30.168-170.941-95.23-260.863-168.999zm74.673 282.9c-9.517-6.511-30.915-9.259-44.71 2.802-23.976-2.9-259.065-152.619-421.531-343.854 13.433-5.384 16.586-24.991 1.116-40.2l126.262-91.848c12.349 22.218 29.534 15.4 42.082 10.421 93.885 110.177 268.281 263.587 419.949 343.62-.259.127-.608.288-.862.425-13.382 7.198-14.185 20.972 3.956 26.786zm-239.951-258.954c46.246-33.667 114.826-30.28 143.885 7.108 44.732 57.553-35.01 125.591-111.814 116.401-68.233-8.165-97.103-71.924-32.071-123.508" fill="none" stroke="#071838" stroke-width="13" stroke-linejoin="round" stroke-linecap="round" id="iSZR68san8MOpRHJMTZm_" /></g></g><g transform="translate(93 344) rotate(4.979790245853135 369 261)" data-asset-index="1"><g clip-path="url(#assetClipPath_4qQhBngo)" transform="scale(0.9999593512458843 0.9999593512458843)" data-asset-index="1"><linearGradient id="linearGradient_sGt2iUN2" gradientTransform="matrix(.99683879 -.07945083 .07945083 .99683879 -408.063 194.513)" gradientUnits="userSpaceOnUse" x1="447.319" x2="987.545" y1="-201.859" y2="387.217"><stop offset="0" stop-color="#8FE2BE" /><stop offset=".603" stop-color="#E9ECFF" /><stop offset="1" stop-color="#8FE2BE" /></linearGradient><linearGradient id="linearGradient_scG_p00H" gradientTransform="matrix(.99683879 -.07945083 .07945083 .99683879 -408.063 194.513)" gradientUnits="userSpaceOnUse" x1="537.905" x2="990.435" y1="-90.12" y2="352.533"><stop offset="0" stop-color="#34C488" /><stop offset=".539" stop-color="#8FE2BE" /><stop offset="1" stop-color="#34C488" /></linearGradient><path d="m666.237 346.335c.997-.83 2.419-1.822 3.504-2.533-167.804-50.377-348.537-181.185-445.448-281.403-11.793 14.68-32.491 10.123-41.164-3.905l-123.332 109.036c16.122 13.702 13.135 33.005-.192 40.467 123.244 125.516 306.418 241.233 445.448 281.403 13.428-15.244 37.015-15.904 45.371-11.97l123.332-109.036c-18.526-1.868-16.828-14.312-7.52-22.058z" fill="none" stroke="#071838" stroke-width="13" stroke-linejoin="round" stroke-linecap="round" id="lfIL1Qu-DNwdzWI_3xFwe" /><path d="m459.668 216.86c-100.806-63.686-196.336-143.118-254.094-215.358-.583-.728-204.656 179.69-204.073 180.419 57.758 72.24 153.288 151.672 254.094 215.358 97.039 61.321 198.987 108.066 276.86 120.099.701.106 204.774-180.313 204.073-180.419-77.873-12.033-179.822-58.778-276.86-120.098zm90.757 260.569c-8.355-3.934-31.943-3.274-45.371 11.97-139.029-40.17-322.204-155.887-445.448-281.403 13.327-7.462 16.314-26.764.192-40.467l123.332-109.036c8.673 14.028 29.371 18.585 41.164 3.905 96.911 100.218 277.644 231.026 445.448 281.403-1.085.711-2.507 1.703-3.504 2.533-9.308 7.746-11.006 20.19 7.52 22.058l-123.332 109.036zm-256.957-213.537c49.374-43.685 122.377-40.965 152.235-9.476 44.399 46.824-33.475 133.385-117.36 130.452-64.849-2.268-94.501-63.652-34.875-120.975" fill="none" stroke="#071838" stroke-width="13" stroke-linejoin="round" stroke-linecap="round" id="N_GMkdSph829k0ETKtsx" /></g></g><g transform="translate(735 290) rotate(85.68681849947797 74 104)" data-asset-index="2"><g clip-path="url(#assetClipPath_O2DLqNnw)" transform="scale(1.006371419051699 1.006371419051699)" data-asset-index="2"><linearGradient id="linearGradient_DmTbmK27" gradientUnits="userSpaceOnUse" x1="21.213" x2="137.775" y1="5.473" y2="188.449"><stop offset="0" stop-color="#FFD44C" /><stop offset=".496" stop-color="#FFEDBF" /><stop offset="1" stop-color="#FFD44C" /></linearGradient><linearGradient id="linearGradient_JASK0fCT" gradientUnits="userSpaceOnUse" x1="10.667" x2="109.61" y1="29.686" y2="196.397"><stop offset="0" stop-color="#DDAE22" /><stop offset=".416" stop-color="#FFD44C" /><stop offset="1" stop-color="#DDAE22" /></linearGradient><path d="m139.613 155.395c-1.416-3.994-3.038-8.183-4.842-12.52-4.825-11.605-10.943-24.275-17.84-37.134-9.903-18.465-21.412-37.319-33.003-53.969-7.408-10.642-14.851-20.384-21.929-28.549-1.807-2.085-3.548-4.017-5.22-5.799-11.975-12.757-20.409-17.744-24.471-15.338l-28.056 16.62c4.062-2.406 12.496 2.581 24.472 15.339 1.672 1.781 3.413 3.714 5.22 5.799 7.078 8.165 14.52 17.907 21.929 28.549 11.591 16.65 23.1 35.504 33.003 53.969 6.897 12.859 13.015 25.528 17.84 37.134 1.803 4.337 3.426 8.526 4.842 12.52 6.871 19.389 7.587 30.622 3.198 33.222l28.056-16.62c4.389-2.6 3.673-13.834-3.198-33.222z" fill="none" stroke="#071838" stroke-width="13" stroke-linejoin="round" stroke-linecap="round" id="MYTYne68IBBpYu26Ruv1-" /><path d="m7.45 51.929c-14.117-39.838-2.254-45.246 26.493-12.086s63.496 92.334 77.614 132.172c14.116 39.834 2.255 45.246-26.493 12.086-28.747-33.16-63.498-92.338-77.614-132.172z" fill="none" stroke="#071838" stroke-width="13" stroke-linejoin="round" stroke-linecap="round" id="klPmkHOM0PWzx390k0rM" /></g></g><g transform="translate(464 166) rotate(134.35000893559388 61.5 81.5)" data-asset-index="3"><g clip-path="url(#assetClipPath_zUXiE20H)" transform="scale(1.005312627707397 1.005312627707397)" data-asset-index="3"><linearGradient id="linearGradient_MWsvr5fk" gradientUnits="userSpaceOnUse" x1="56.579" x2="107.271" y1="-1.317" y2="148.384"><stop offset="0" stop-color="#DDAE22" /><stop offset=".306" stop-color="#FFD44C" /><stop offset="1" stop-color="#DDAE22" /></linearGradient><linearGradient id="linearGradient_xmM7qlD0" gradientUnits="userSpaceOnUse" x1="8.924" x2="97.636" y1="31.992" y2="141.298"><stop offset="0" stop-color="#FFD44C" /><stop offset=".237" stop-color="#FFEDBF" /><stop offset="1" stop-color="#FFD44C" /></linearGradient><path d="m119.726 86.733c-2.894-20.971-11.209-42.16-23.013-58.288-4.69-6.407-9.93-12.016-15.6-16.494-12.164-9.606-24.237-12.379-34.374-9.185l-18.942 5.966c10.137-3.193 22.21-.42 34.373 9.186 5.67 4.478 10.91 10.086 15.6 16.494 11.804 16.127 20.119 37.317 23.013 58.288 1.454 10.537 1.539 21.019.011 30.776-3.187 20.338-12.723 33.275-25.183 37.2l18.942-5.966c12.46-3.925 21.996-16.862 25.183-37.2 1.529-9.756 1.443-20.238-.011-30.776z" fill="none" stroke="#071838" stroke-width="13" stroke-linejoin="round" stroke-linecap="round" id="t0wgQmMs8OuArm2Gpdvf0" /><path d="m2.613 45.934c5.781-36.887 32.444-49.43 59.557-28.016 27.112 21.412 44.404 68.67 38.624 105.557-5.78 36.885-32.443 49.427-59.554 28.014-27.114-21.413-44.406-68.67-38.627-105.555z" fill="none" stroke="#071838" stroke-width="13" stroke-linejoin="round" stroke-linecap="round" id="iXMpt3PA2LbOIvROwi2X" /></g></g></svg>