<?xml version='1.0' encoding='utf-8'?>
<svg xmlns="http://www.w3.org/2000/svg" fill="none" viewBox="0 0 1000 1000" width="1000" height="1000"><defs><clipPath id="assetClipPath_n8DpaN-m"><path d="m0 0 h 3000 v 3000 h -3000 v -3000 z" id="path_jaZVW-sx" fill="#ffffff" fill-opacity="0.08" /></clipPath><clipPath id="assetClipPath_ZRSebVyR"><path d="m0 0 h 293 v 117 h -293 v -117 z" id="path_7MDDFao3" fill="#ffffff" fill-opacity="0.08" /></clipPath><clipPath id="assetClipPath_3v5MrGlW"><path d="m0 0 h 510 v 276 h -510 v -276 z" id="path_XouNhvaf" fill="#ffffff" fill-opacity="0.08" /></clipPath><clipPath id="clipPath_x_T6ni_s"><path d="m0 0 h 753.003 v 492.677 h -753.003 v -492.677 z" id="path_gItcueCn" /></clipPath><clipPath id="clipPath_FB0awSpc"><path d="m0 0 h 445.657 v 67.33 h -445.657 v -67.33 z" id="path_ewm0iJ3P" /></clipPath><clipPath id="clipPath__QtLvOCC"><path d="m0 0 h 694.311 v 351.077 h -694.311 v -351.077 z" id="path_AK4bO_cs" /></clipPath><clipPath id="clipPath_F6d0GGSB"><rect width="293" height="117" stroke="#00B3B0" style="stroke-width:0;vector-effect:non-scaling-stroke;" /></clipPath></defs><g transform="translate(150 110)" data-asset-index="0"><g clip-path="url(#assetClipPath_n8DpaN-m)" transform="scale(0.23333333333333334 0.23333333333333334)" data-asset-index="0"><defs /><g transform="translate(111.0 984.0) rotate(0.0 1207.5 789.0) scale(3.207158537216983 3.202909817182454)" id="ylyMVtZIdUTy_R4KhvjKt"><g clip-path="url(#clipPath_x_T6ni_s)" transform="matrix(1 0 0 1 0 0)" id="MteK64Ltj3sz66YX2PIfF"><path d="M185.952 43.112C-.265 80.361-82.877 366.448 216.94 452.805c149.105 42.947 231.26 58.253 386.787 10.137 205.846-63.684 177.702-253.806 43.076-334.85-142.056-85.515-325.981-111.958-460.851-84.98z" fill="#2FD1CD" fill-opacity="0.2" id="ozN8gNZVciLrtbpe_1fcw" /><path d="M417.889 490.941c-28.761 0-58.332-2.028-88.356-6.11-67.734-9.208-135.975-28.652-187.227-53.347-52.75-25.417-91.778-60.022-116.001-102.852-21.709-38.385-30.229-81.958-24.64-126.008 5.636-44.421 25.756-87.552 56.653-121.448 32.591-35.754 74.964-59.662 122.537-69.137 165.807-33.025 347.75 3.264 474.826 94.707 33.27 23.941 59.004 54.419 74.421 88.14 15.144 33.125 20.175 68.849 14.547 103.312-12.79 78.327-76.892 140.812-175.871 171.433-45.748 14.154-96.878 21.31-150.888 21.31zM183.59 25.769C94.383 43.537 26.854 115.318 15.553 204.386c-11.267 88.798 38.39 168.98 132.831 214.486 72.638 35 253.115 87.857 416.256 37.385 93.715-28.993 154.29-87.426 166.192-160.315 10.784-66.046-20.366-132.525-83.328-177.832C523.483 28.866 345.706-6.512 183.59 25.769z" fill="#231F20" id="pX1_J9UKiJdjWcBtCRxTG" /><path d="M147.995 406.633c-2.649 18.545-24.572 64.063-66.695 62.307 26.327 20.184 109.041 29.837 139.645-27.205" fill="#2FD1CD" fill-opacity="0.2" id="DSfgO2rR2agAWS8nDzeVN" /><g fill="#231F20" id="tupa5qyEn4Wls3YojG13"><path d="M139.52 491.715c-26.173 0-50.023-7.67-62.48-17.22a7 7 0 0 1 4.55-12.549c36.415 1.521 57.017-39.107 59.474-56.303a7.001 7.001 0 0 1 13.86 1.98c-1.532 10.727-8.332 27.942-20.067 42.221-8.949 10.889-19.336 18.493-30.706 22.592 16.381 5.239 38.296 7.288 59.009 2.826 16.43-3.539 38.721-12.802 51.615-36.835a7 7 0 0 1 12.337 6.619c-12.208 22.755-33.303 37.937-61.004 43.903-8.895 1.916-17.872 2.767-26.588 2.767z" fill="#231F20" id="x51nqe4h5BTuV1sLZo6G-" /></g></g></g><g transform="translate(630.0 1410.0) rotate(0.0 712.5 106.5) scale(3.1975263487390526 3.163522946680529)" id="pEBKwm-WlYlbehuaaRPoH"><g clip-path="url(#clipPath_FB0awSpc)" transform="matrix(1 0 0 1 0 0)" id="k65AGXRq_Ju_8XE4kFoK9"><path d="M6.998 67.331a7 7 0 0 1-6.493-9.612C13.748 24.772 43.108 3.205 79.045.027a7 7 0 1 1 1.233 13.945c-30.58 2.704-55.546 21.009-66.783 48.967a7.003 7.003 0 0 1-6.497 4.391Zm431.664-16.084a6.99 6.99 0 0 1-5.642-2.849c-10.644-14.452-24.709-21.937-44.262-23.555a7 7 0 0 1-6.399-7.553c.319-3.853 3.702-6.722 7.553-6.399 23.554 1.949 41.342 11.502 54.381 29.204a6.999 6.999 0 0 1-5.631 11.151Z" fill="#231F20" id="hM4A2-2_7yte63wMkc8C" style="stroke-width:0;" /></g></g><g transform="translate(627.0 528.0) rotate(0.0 1113.0 564.0) scale(3.206056075735513 3.212970374020514)" id="nO1n93te28-rXT7RgMbe9"><g clip-path="url(#clipPath__QtLvOCC)" transform="matrix(1 0 0 1 0 0)" id="R_FwDIHmXv_wsU9P0iFCs"><path d="M213.139 282.737s-20.465 46.868-123.071 3.461C9.662 252.182 64.904 143.625 64.904 143.625s74.49-2.836 103.539-6.022c28.709-3.149 96.874 15.752 139.748 19.85 13.855 1.324 122.603 21.309 120.497 23.819-128.751 153.399-215.549 101.466-215.549 101.466z" fill="#FFFFFF" fill-opacity="0.08" id="SO-lhtkLTKTtZCoPoTMf8" /><path d="M70.526 141.753c-23.452 3.014-26.633-10.409-35.736-18.412-64.038-56.3-5.36-138.394 82.014-109.355L105.73 29.149c27.102 3.914 29.015 46.525 49.994 43.367 0 0 23.496 59.218-38.92 72.236-20.525 4.498-33 5.217-46.278-2.998z" fill="#FFFFFF" fill-opacity="0.08" id="iAT1LdcaDWKUN2Fw2hEe2" /><g fill="#231F20" id="NBRZ7dbjR9rHlH_HXvWUt"><path d="M40.772 134.083a6.967 6.967 0 0 1-3.437-.907C-1.83 111.049-6.184 71.453 6.344 44.027c8.06-17.644 22.79-31.296 41.476-38.442 20.925-8.002 45.593-7.377 71.336 1.808a7 7 0 0 1-4.705 13.186c-48.709-17.38-82.998 2.175-95.373 29.265-10.291 22.527-6.507 53.262 25.144 71.144a7 7 0 0 1-3.45 13.096z" fill="#231F20" id="sFgSStK7g99aepkzZ5Jk1" /><path d="M111.351 151.629a7 7 0 0 1-.487-13.983c15.574-1.103 28.164-8.107 35.45-19.723 6.908-11.014 8.466-25.129 4.414-38.517-13.67-1.686-19.867-14.263-24.132-22.916l-.758-1.545c-4.594-9.393-7.629-15.598-21.744-18.99a7 7 0 0 1-5.17-8.442 6.998 6.998 0 0 1 8.442-5.17c20.524 4.933 26.115 16.365 31.048 26.452l.697 1.421c5.377 10.91 8.694 15.944 16.024 15.324a7.005 7.005 0 0 1 7.09 4.38c7.481 18.743 5.967 39.469-4.051 55.441-9.722 15.501-26.173 24.823-46.321 26.249a7.051 7.051 0 0 1-.501.018z" fill="#231F20" id="kZNAxAkQCWjgemYXOJglx" /><path d="M96.286 55.922a6.993 6.993 0 0 1-5.912-3.243c-2.639-4.147-10.889-4.825-17.894-3.658a7 7 0 1 1-2.302-13.809c5.445-.907 23.847-2.872 32.007 9.951a7 7 0 0 1-5.899 10.759zM81.161 82.385a7 7 0 0 1-6.454-4.285c-1.676-3.979-8.941-8.894-16.512-7.544a6.998 6.998 0 0 1-8.121-5.66 6.999 6.999 0 0 1 5.66-8.121c14.469-2.585 27.811 6.238 31.876 15.894a7 7 0 0 1-6.448 9.718zm-17.256 68.243c-7.595 0-14.65-2.438-20.408-7.282-8.068-6.787-11.578-17.103-8.733-25.668 2.768-8.333 10.711-13.482 21.793-14.127a7.001 7.001 0 0 1 .813 13.977c-2.972.173-8.135.995-9.32 4.563-.876 2.638.374 7.106 4.459 10.542 2.988 2.513 11.438 7.554 25.338.092a7 7 0 1 1 6.621 12.335c-6.927 3.719-13.95 5.568-20.563 5.568z" fill="#231F20" id="z-9MrEnH6gKKezSUIK8d_" /><circle cx="112.855" cy="78.097" r="7.125" fill="#231F20" id="HwvAb2fcwe-a9qkY1x_q" /></g><path d="M196.808 178.569c10.345-12.776 39.305-39.01 47.823-40.714s6.814 5.747 16.013 5.769c9.199.023 26.234 7.435 25.212 14.461s-35.811 22.667-39.37 38.185c-11.054-16.508-28.204-22.309-49.678-17.701z" fill="#FFFFFF" fill-opacity="0.08" id="A5MKFdWgAV0JFy-nE-BVn" /><path d="M246.485 203.27a7 7 0 0 1-5.815-3.105c-9.265-13.837-23.528-18.799-42.393-14.752a7 7 0 0 1-6.909-11.25c9.451-11.672 40.218-40.838 51.89-43.172 7.895-1.578 11.894 2.126 14.043 4.116 1.384 1.282 1.633 1.513 3.36 1.517 8.641.021 22.547 5.002 28.684 12.114 3.496 4.052 3.799 7.867 3.437 10.355-.851 5.85-6.82 10.086-16.71 17.105-8.467 6.009-21.263 15.09-22.765 21.637a6.999 6.999 0 0 1-6.824 5.435zm-32.215-33.125c12.224.78 22.703 5.396 31.066 13.715 5.715-7.072 14.54-13.334 22.635-19.079 3.434-2.437 7.873-5.587 10.112-7.624-3.031-2.699-11.65-6.518-17.456-6.532-7.194-.018-10.727-3.29-12.838-5.245a18.858 18.858 0 0 0-.871-.777c-.157.003-.45.024-.914.117-4.41 1.117-19.599 13.618-31.734 25.426z" fill="#231F20" id="DN0C0F3XRtjZ7ssg2yEZ-" /><path d="M230.276 153.692a6.97 6.97 0 0 1-4.157-1.373c-8.122-6.007-43.884-10.288-56.327-7.848a6.999 6.999 0 0 1-8.216-5.522 7 7 0 0 1 5.522-8.216c14.755-2.893 55.123 1.289 67.347 10.331a7 7 0 0 1-4.168 12.628z" fill="#231F20" id="cptx3eCvpIOJsKtbEUuE7" /><path d="M308.192 157.452C325.005 142.74 430.09 66.895 475.626 83.1c45.537 16.205 52.542 122.69 54.644 145.809 0 0-54.644 18.215-61.649 8.407-7.006-9.808-19.899-49.231-19.899-49.231" fill="#FFFFFF" fill-opacity="0.08" id="D0yikN6ycUlm_LSDGVoAn" /><path d="M478.73 247.194c-8.005 0-13.029-1.923-15.806-5.81-7.415-10.381-19.502-46.984-20.856-51.124a7 7 0 1 1 13.306-4.352c4.744 14.504 13.858 39.628 18.609 46.852 5.053 2.058 26.783-1.912 48.828-8.799-1.334-15.389-4.075-44.979-11.472-73.219-8.976-34.271-22.138-55.38-38.061-61.047C432.789 75.287 331.463 146.39 312.8 162.72a7 7 0 0 1-9.22-10.536c14.672-12.838 123.552-93.771 174.391-75.678 47.634 16.951 56.142 115.59 58.938 148.003.123 1.427.232 2.688.33 3.767a7.001 7.001 0 0 1-4.758 7.275c-.571.19-14.151 4.699-28.849 8.064-10.399 2.38-18.582 3.581-24.904 3.581z" fill="#231F20" id="vqRZ11Bjz9OT6qnpFNljt" /><path d="M563.196 330.49c14.163 7.609 40.363 16.827 50.552 12.46s48.033-21.348 63.073-41.725c15.041-20.377 18.437-45.607-20.863-29.111l-39.299 16.496-20.416-2.44z" fill="#FFFFFF" fill-opacity="0.08" id="wTKzvdCREw3nXXh_iQApa" /><path d="M606.901 351.048c-16.182 0-38.89-10.025-47.018-14.392a7.002 7.002 0 0 1-2.299-10.351l33.047-44.32a6.995 6.995 0 0 1 6.443-2.766l18.58 2.221 37.595-15.78c6.968-2.925 28.171-11.825 37.654.239 7.868 10.01.794 26.958-8.45 39.483-15.336 20.777-51.228 37.694-65.948 44.002-2.722 1.167-6.002 1.664-9.604 1.664zm-33.058-23.126c15.005 6.734 31.911 10.84 37.147 8.595 10.665-4.571 46.526-20.924 60.198-39.448 9.109-12.341 9.909-20.99 8.708-22.517-.611-.778-6.004-2.373-21.229 4.018l-39.299 16.496a6.986 6.986 0 0 1-3.54.496l-16.394-1.96-25.59 34.32z" fill="#231F20" id="UfdMuhOZqAl_YLAr32IWn" /><path d="M213.139 282.737c31.301 14.827 86.646 25.336 121.674 20.432s94.576-30.825 111.389-24.52 104.384 46.938 116.994 51.842c0 0 35.028-29.424 37.13-61.649 0 0-110.689-87.57-150.621-87.57s-115.593 5.604-148.519 26.621" fill="#FFFFFF" fill-opacity="0.08" id="HqT6yK2ig_Q_eHgGVYaw" /><path d="M563.195 337.49a6.986 6.986 0 0 1-2.536-.476c-5.719-2.224-25.336-11.098-48.052-21.373-27.963-12.649-59.656-26.986-68.863-30.438-7.653-2.869-34.281 5.142-55.676 11.58-18.327 5.515-37.279 11.217-52.285 13.318-38.726 5.423-95.37-6.699-125.641-21.038a7 7 0 1 1 5.993-12.653c28.569 13.533 82.684 24.729 117.707 19.825 13.943-1.952 32.371-7.497 50.192-12.859 32.695-9.838 53.36-15.508 64.625-11.282 9.639 3.615 41.557 18.052 69.717 30.791 17.939 8.115 35.05 15.855 43.406 19.439 7.791-7.364 27.846-28.201 31.172-50.373-32.562-25.419-113.471-83.681-143.25-83.681-38.913 0-113.19 5.375-144.753 25.522a7 7 0 0 1-7.533-11.801c42.211-26.943 141.144-27.721 152.285-27.721 17.973 0 49.661 15.13 94.182 44.97 32.517 21.794 60.503 43.889 60.782 44.11a7 7 0 0 1 2.642 5.945c-2.27 34.808-38.089 65.274-39.613 66.554a6.998 6.998 0 0 1-4.503 1.64z" fill="#231F20" id="lK0XYsuoW2yigbJvVQYSX" /><path d="M165.263 313.935c-19.674 0-42.784-5.363-65.983-15.54-22.921-10.055-50.045-27.381-57.433-45.851-11.443-28.608 3.2-71.96 13.891-103.613.885-2.619 1.733-5.13 2.524-7.512a7 7 0 1 1 13.286 4.411 1528.8 1528.8 0 0 1-2.547 7.581c-9.431 27.921-23.683 70.116-14.156 93.934 9.698 24.244 81.007 60.511 125.679 51.137 29.349-6.159 40.934-46.505 49.393-75.964 2.887-10.053 5.453-18.991 8.413-25.604-4.524-5.406-16.561-16.174-38.221-11.894-20.525 18.699-51.086 53.316-49.662 70.759a7 7 0 0 1-6.407 7.546 6.999 6.999 0 0 1-7.546-6.407c-2.495-30.562 49.688-78.23 55.646-83.565a6.985 6.985 0 0 1 3.103-1.607c31.58-7.25 51.297 10.587 57.31 21.031a7 7 0 0 1-.008 7c-3.038 5.248-5.88 15.145-9.171 26.605-9.441 32.88-22.372 77.91-59.973 85.802-5.595 1.174-11.683 1.752-18.137 1.752zm263.43-125.663a7.001 7.001 0 0 1-2.916-13.368c14.545-6.653 28.1-19.343 28.236-19.471a7 7 0 0 1 9.601 10.189c-.621.585-15.392 14.41-32.013 22.013a6.968 6.968 0 0 1-2.907.636z" fill="#231F20" id="CsJSF_ZWvmbFEknNbR4t1" /></g></g></g></g><g transform="translate(223 410)" data-asset-index="-1"><g clip-path="url(#assetClipPath_3v5MrGlW)" transform="scale(1 1)" data-asset-index="-1"><path fill="#231F20" d="M95.76 145.46L95.76 106.31L107.91 106.31L107.91 146.09Q107.91 150.50 109.71 153.52Q111.51 156.53 114.61 158.06Q117.72 159.59 121.77 159.59L121.77 159.59Q125.91 159.59 129.06 158.06Q132.21 156.53 134.01 153.52Q135.81 150.50 135.81 146.09L135.81 146.09L135.81 106.31L147.96 106.31L147.96 145.46Q147.96 151.67 145.80 156.26Q143.64 160.85 139.91 163.91Q136.17 166.97 131.44 168.46Q126.72 169.94 121.59 169.94L121.59 169.94Q114.75 169.94 108.86 167.24Q102.96 164.54 99.36 159.14Q95.76 153.74 95.76 145.46L95.76 145.46Z" /><path fill="#231F20" d="M196.47 169.31L185.85 169.31L184.95 163.82Q182.70 166.61 179.87 168.23Q177.03 169.85 172.26 169.85L172.26 169.85Q167.76 169.85 164.38 168.28Q161.01 166.70 159.12 163.87Q157.23 161.03 157.23 157.16L157.23 157.16Q157.23 151.49 161.32 147.76Q165.42 144.02 173.70 143.03L173.70 143.03L184.95 141.77L184.95 138.62Q184.95 136.73 183.24 135.11Q181.53 133.49 177.84 133.49L177.84 133.49Q174.60 133.49 172.22 135.07Q169.83 136.64 169.02 139.79L169.02 139.79L159.12 136.19Q160.92 130.16 165.96 126.92Q171 123.68 178.38 123.68L178.38 123.68Q187.38 123.68 191.93 128.14Q196.47 132.59 196.47 139.88L196.47 139.88L196.47 169.31ZM184.95 150.50L184.95 149.78L175.23 151.04Q172.26 151.40 170.73 152.80Q169.20 154.19 169.20 156.17L169.20 156.17Q169.20 158.06 170.73 159.37Q172.26 160.67 175.05 160.67L175.05 160.67Q178.20 160.67 180.41 159.50Q182.61 158.33 183.78 156.08Q184.95 153.83 184.95 150.50L184.95 150.50Z" /><path fill="#231F20" d="M207.00 169.31L207.00 124.31L217.44 124.31L218.25 128.90Q220.41 126.47 223.52 125.08Q226.62 123.68 230.22 123.68L230.22 123.68Q235.53 123.68 239.27 125.93Q243 128.18 245.03 132.46Q247.05 136.73 247.05 143.03L247.05 143.03L247.05 169.31L235.44 169.31L235.44 144.56Q235.44 139.34 233.37 136.73Q231.30 134.12 227.16 134.12L227.16 134.12Q222.93 134.12 220.73 136.78Q218.52 139.43 218.52 144.65L218.52 144.65L218.52 169.31L207.00 169.31Z" /><path fill="#231F20" d="M289.08 129.89L289.80 124.31L300.24 124.31L300.24 162.65Q300.24 170.30 296.46 175.84Q292.68 181.37 285.53 184.34Q278.37 187.31 268.38 187.31L268.38 187.31L266.58 177.59Q277.47 177.41 283.10 173.72Q288.72 170.03 288.72 163.10L288.72 163.10L288.72 162.92L290.25 162.38Q288.09 165.53 284.31 167.74Q280.53 169.94 275.31 169.94L275.31 169.94Q269.37 169.94 264.87 167.06Q260.37 164.18 257.81 159.01Q255.24 153.83 255.24 146.81L255.24 146.81Q255.24 139.79 257.81 134.57Q260.37 129.35 264.87 126.52Q269.37 123.68 275.31 123.68L275.31 123.68Q278.37 123.68 281.03 124.54Q283.68 125.39 285.71 126.79Q287.73 128.18 289.08 129.89L289.08 129.89ZM267.66 146.81L267.66 146.81Q267.66 152.48 270.54 155.95Q273.42 159.41 278.28 159.41L278.28 159.41Q281.07 159.41 283.41 157.93Q285.75 156.44 287.24 153.56Q288.72 150.68 288.72 146.81L288.72 146.81Q288.72 142.76 287.24 139.97Q285.75 137.18 283.37 135.70Q280.98 134.21 278.28 134.21L278.28 134.21Q273.42 134.21 270.54 137.68Q267.66 141.14 267.66 146.81Z" /><path fill="#231F20" d="M355.59 105.68L355.59 105.68Q361.62 105.68 366.30 107.93Q370.98 110.18 373.59 114.41Q376.20 118.64 376.20 124.67L376.20 124.67Q376.20 130.79 373.50 134.80Q370.80 138.80 366.12 140.78Q361.44 142.76 355.50 142.85L355.50 142.85L355.05 149.78L344.43 149.78L343.98 134.66L347.85 134.66Q351.36 134.66 354.33 134.26Q357.30 133.85 359.42 132.77Q361.53 131.69 362.70 129.71Q363.87 127.73 363.87 124.58L363.87 124.58Q363.87 121.88 362.88 119.99Q361.89 118.10 360.05 117.07Q358.20 116.03 355.41 116.03L355.41 116.03Q351.27 116.03 348.88 118.24Q346.50 120.44 346.50 124.58L346.50 124.58L334.98 124.58Q334.89 119.09 337.32 114.86Q339.75 110.63 344.38 108.16Q349.02 105.68 355.59 105.68ZM350.10 169.94L350.10 169.94Q346.77 169.94 344.66 167.87Q342.54 165.80 342.54 162.74L342.54 162.74Q342.54 159.68 344.66 157.57Q346.77 155.45 350.10 155.45L350.10 155.45Q353.34 155.45 355.45 157.57Q357.57 159.68 357.57 162.74L357.57 162.74Q357.57 165.80 355.45 167.87Q353.34 169.94 350.10 169.94Z" /></g></g></svg>