<svg xmlns="http://www.w3.org/2000/svg" fill="none" viewBox="0 0 1000 700" width="1000" height="700"><defs><clipPath id="assetClipPath_FUYDpvin"><path d="m0 0 h 754.622 v 348.256 h -754.622 v -348.256 z" id="path_1bcqT-GA" fill="#ffffff" fill-opacity="0.08" /></clipPath><clipPath id="assetClipPath_0u3Bj6fx"><path d="m0 0 h 382.798 v 408.405 h -382.798 v -408.405 z" id="path_BFuw_flZ" fill="#ffffff" fill-opacity="0.08" /></clipPath><clipPath id="assetClipPath_u3DcW5i-"><path d="m0 0 h 565.469 v 475.281 h -565.469 v -475.281 z" id="path_Ys2OTMYb" fill="#ffffff" fill-opacity="0.08" /></clipPath></defs><g transform="translate(191 53)" data-asset-index="0"><g clip-path="url(#assetClipPath_FUYDpvin)" transform="scale(0.9991757462676678 0.9991757462676678)" data-asset-index="0"><defs data-selector="defs[1]" /><path d="M540.14,162.474c-5.505,0-12.883-2.126-20.812-10.366-8.895-9.245-14.835-22.117-16.9-35.282-11.397,5.558-21.715,18.082-29.494,35.991-1.541,3.546-5.665,5.173-9.209,3.632-3.546-1.541-5.172-5.664-3.632-9.21,10.402-23.949,24.779-39.536,41.704-45.276.223-2.897.659-5.747,1.318-8.51,3.362-14.092,12.212-24.299,24.922-28.741,3.651-1.278,7.643.648,8.918,4.298,1.276,3.649-.648,7.642-4.298,8.917-10.32,3.608-14.356,12.201-15.924,18.775-.224.938-.414,1.895-.569,2.862,10.18.008,20.426,3.573,30.151,10.572,11.537,8.304,17.261,20.451,15.311,32.495-1.486,9.18-7.352,16.427-15.308,18.912-1.598.499-3.698.931-6.178.931ZM516.094,113.558c1.46,10.736,6.205,21.445,13.323,28.843,4.586,4.769,9.227,6.874,12.726,5.779,2.86-.894,5.03-3.877,5.663-7.786,1.084-6.694-2.531-13.758-9.668-18.895-7.345-5.285-14.704-7.941-21.965-7.941h-.079Z" fill="rgba(35,31,32,1)" id="T24zBvOjXlDGGe2S5S4zE" data-selector="path[2]" /><path d="M112.703,120.393c-.095,0-.189-.002-.285-.006-3.863-.154-6.869-3.411-6.715-7.274.498-12.438-5.582-25.29-17.12-36.186-4.655-4.395-9.946-8.183-15.477-11.202-1.457,4.177-3.958,8.577-7.941,13.04-13.566,15.2-26.36,11.323-31.232,8.949-9.78-4.765-15.977-16.631-14.108-27.016,1.688-9.386,9.281-15.632,20.31-16.708,5.547-.542,11.458-.136,17.459,1.112-7.867-13.176-29.254-26.279-52.085-31.264C1.73,13.015-.663,9.284.161,5.507.985,1.73,4.714-.672,8.493.161c26.707,5.829,57.519,23.376,64.737,45.632.487,1.501.907,3.15,1.194,4.923,8.52,3.916,16.71,9.365,23.771,16.032,14.525,13.716,22.159,30.381,21.498,46.925-.151,3.767-3.253,6.72-6.99,6.72ZM45.084,57.754c-1.222,0-2.418.056-3.59.17-7.069.69-7.687,4.125-7.89,5.253-.776,4.312,2.244,9.896,6.461,11.951,5.52,2.686,11.017-1.607,14.656-5.686,2.737-3.066,4.547-6.129,5.442-9.229-5.174-1.6-10.3-2.459-15.079-2.459Z" fill="rgba(35,31,32,1)" id="HVPbrW85DFA2HtSfJAoqW" data-selector="path[3]" /><path d="M686.416,348.248c-1.165,0-2.345-.291-3.43-.904-3.361-1.897-4.556-6.15-2.666-9.516.958-1.704,23.984-41.695,67.589-39.942,3.863.158,6.866,3.419,6.707,7.281s-3.406,6.869-7.281,6.707c-.723-.029-1.442-.044-2.152-.044-33.61,0-52.473,32.531-52.663,32.867-1.29,2.272-3.663,3.551-6.103,3.551Z" fill="rgba(35,31,32,1)" id="KHqS0IwKkOvQiEuHCFjNl" data-selector="path[4]" /></g></g><g transform="translate(494 240)" data-asset-index="1"><g clip-path="url(#assetClipPath_0u3Bj6fx)" transform="scale(1.0005276934571237 1.0005276934571237)" data-asset-index="1"><defs data-selector="defs[1]" /><path d="m188.245 245.191c-4.936 30.244 39.955 46.409 45.455 73.235s-6.113 70.013-35.973 82.98l56.507-8.028s32.667-53.25 17.981-87.332-55.243-40.566-56.76-87.875" fill="rgba(255,255,255,1)" fill-opacity="0.08" id="vkpuLRrQz0FmXYaPAnVj4" data-selector="path[2]" /><path d="m197.722 408.406c-3.089 0-5.869-2.049-6.731-5.098-.953-3.371.734-6.929 3.948-8.324 26.917-11.688 36.722-51.649 31.903-75.152-1.982-9.669-10.977-18.405-20.5-27.655-13.294-12.912-28.362-27.548-25.005-48.114.623-3.815 4.217-6.406 8.036-5.78 3.816.622 6.404 4.221 5.781 8.036-2.18 13.357 9.051 24.267 20.942 35.815 10.625 10.32 21.613 20.992 24.461 34.886 4.214 20.557-.84 52.596-18.081 73.799l27.401-3.893c6.145-10.991 27.195-51.921 15.91-78.111-5.298-12.296-14.517-20.76-24.276-29.721-15.022-13.793-32.049-29.426-33.051-60.699-.124-3.864 2.908-7.098 6.772-7.221 3.894-.155 7.097 2.909 7.221 6.771.813 25.392 13.656 37.183 28.526 50.836 10.414 9.562 21.183 19.448 27.666 34.493 15.939 36.992-17.032 91.462-18.443 93.763-1.091 1.778-2.917 2.977-4.982 3.271l-56.507 8.028c-.333.047-.663.07-.99.07z" fill="rgba(35,31,32,1)" id="fOlFWkq3uvPnBwTgx3QSd" data-selector="path[3]" /><path d="m239.742 193.991s-1.22 56.129 44.662 49.139 66.239-16.668 89.063 4.778l-32.019 38.092c-39.042-19.714-54.315.765-83.538-.725-29.663-1.513-48.58-33.511-42.454-67.104" fill="rgba(255,255,255,1)" fill-opacity="0.08" id="WNFZc0ggLW02uhIeB_GL" data-selector="path[4]" /><path d="m341.446 292.999c-1.069 0-2.148-.244-3.152-.751-22.794-11.511-35.88-8.099-51.033-4.15-8.965 2.337-18.237 4.749-29.707 4.167-14.17-.723-27.077-7.564-36.341-19.265-11.64-14.699-16.366-35.666-12.642-56.086.693-3.804 4.335-6.318 8.142-5.631 3.803.693 6.324 4.339 5.63 8.143-3.011 16.516.669 33.295 9.845 44.884 4.759 6.011 13.147 13.313 26.079 13.973 9.315.479 17.159-1.567 25.462-3.732 14.66-3.82 31.153-8.122 55.836 2.812l24.031-28.589c-13.985-10.169-27.751-7.655-54.491-2.775-6.976 1.274-14.883 2.718-23.646 4.053-14.191 2.161-25.985-.778-35.052-8.74-18.136-15.929-17.691-46.19-17.664-47.471.084-3.864 3.326-6.905 7.15-6.846 3.863.084 6.927 3.281 6.847 7.144-.007.483-.236 25.154 12.938 36.682 5.893 5.158 13.636 6.92 23.672 5.392 8.56-1.305 16.359-2.729 23.241-3.984 30.458-5.561 50.58-9.234 71.669 10.581 2.708 2.545 2.956 6.762.565 9.605l-32.019 38.091c-1.366 1.625-3.345 2.496-5.361 2.496z" fill="rgba(35,31,32,1)" id="a4TbkpawkrjZPvgixvFCc" data-selector="path[5]" /><path d="m316.919 15.815c26.075-29.127 72.36 21.398 55.131 43.497s-285.832 286.788-285.832 286.788c-22.167 22.555-108.545-11.846-79.218-51.404z" fill="rgba(255,255,255,1)" fill-opacity="0.08" id="OVxIX4hs3NRDI7iDFBSmh" data-selector="path[6]" /><g fill="rgba(35,31,32,1)" id="O6oUNVN9YST3PXJ8dKA9U" data-selector="g[7]"><path d="m86.217 353.1c-1.637 0-3.278-.571-4.6-1.725-2.759-2.405-3.198-6.531-1.008-9.465 8.583-11.49-.167-26.334-10.269-35.555-16.241-14.824-41.605-21.8-58.659-6.456-2.874 2.588-7.3 2.353-9.886-.521s-2.353-7.3.521-9.886l309.654-278.64c13.37-14.638 33.425-14.522 51.208.339 16.448 13.747 26.329 37.115 14.393 52.425-17.312 22.204-275.459 276.649-286.44 287.471-1.358 1.338-3.134 2.014-4.914 2.014zm-49.421-75.798c15.589.665 31.245 8.001 42.983 18.715 9.823 8.966 15.822 19.237 17.639 29.201 58.221-57.473 254.781-251.827 269.112-270.209 6.334-8.125-1.414-23.952-12.33-33.075-4.476-3.741-20.019-14.902-32.065-1.449-.168.188-.346.366-.533.534zm280.123-261.487h.01z" fill="rgba(35,31,32,1)" id="v69d7XXGaPVLy9PrAhh" data-selector="g[7]&gt;path[1]" /><path d="m64.192 361.578c-15.003 0-31.48-6.015-42.222-13.587-13.038-9.191-17.492-20.335-11.914-29.81 3.164-5.373 8.076-9.031 14.206-10.579 17.023-4.305 39.098 8.625 41.559 10.113 3.308 2 4.368 6.304 2.368 9.612s-6.303 4.368-9.612 2.368c-5.314-3.197-21.24-10.97-30.899-8.518-2.519.64-4.284 1.944-5.557 4.106-1.625 2.759 2.964 7.772 7.916 11.263 15.593 10.992 42.102 15.49 50.81 5.064 2.478-2.965 6.893-3.362 9.86-.884 2.967 2.479 3.363 6.893.884 9.86-6.582 7.878-16.61 10.989-27.398 10.989z" fill="rgba(35,31,32,1)" id="ICyUOuyUdzAP3CW-9D_bV" data-selector="g[7]&gt;path[2]" /><path d="m225.95 214.731c-1.098 0-2.204-.258-3.225-.788-2.705-1.405-4.189-4.399-3.671-7.403 2.226-12.893-5.882-23.032-10.914-27.93-12.322-11.993-31.072-17.947-46.657-14.823-3.087.625-6.217-.902-7.632-3.722-1.416-2.818-.771-6.235 1.573-8.345l27.462-24.712c.518-.466 1.102-.853 1.733-1.146 15.138-7.03 34.872-4.492 51.501 6.627 16.911 11.308 26.959 29.029 26.223 46.249-.075 1.756-.808 3.42-2.053 4.66l-29.398 29.291c-1.345 1.339-3.132 2.041-4.943 2.041zm-47.178-65.187c14.311 1.95 28.452 8.638 39.133 19.034 7.195 7.003 11.989 14.911 14.174 23.167l16.269-16.21c-.562-11.567-8.034-23.4-20.009-31.407-12.244-8.188-26.281-10.43-36.917-5.968z" fill="rgba(35,31,32,1)" id="OsvWB0x9blwoxAlBE9uGU" data-selector="g[7]&gt;path[3]" /></g></g></g><g transform="translate(43 147) rotate(-6.454635958161681 283 238)" data-asset-index="2"><g clip-path="url(#assetClipPath_u3DcW5i-)" transform="scale(1.000939043519627 1.000939043519627)" data-asset-index="2"><defs data-selector="defs[1]" /><path d="m434.923 96.404 61.803 76.841c16.213 55.203-149.948 173.248-231 182.204l-91.184-114.163z" fill="rgba(47,209,205,1)" fill-opacity="0.2" id="T69DTO18IS_9GhYVFmU9A" data-selector="path[2]" /><path d="m265.724 362.45c-2.114 0-4.132-.958-5.469-2.632l-91.184-114.164c-1.285-1.608-1.796-3.701-1.398-5.722.398-2.02 1.666-3.763 3.465-4.764l260.381-144.881c2.979-1.657 6.721-.927 8.858 1.73l61.803 76.842c.575.714 1.003 1.534 1.262 2.414 3.902 13.284-.407 29.46-12.806 48.076-18.785 28.207-57.014 62.319-102.261 91.253-46.063 29.453-90.487 48.336-121.881 51.806-.257.028-.515.042-.77.042zm-80.551-119.07 83.561 104.619c28.818-4.303 70.301-22.466 112.1-49.192 43.695-27.94 80.387-60.545 98.151-87.218 9.41-14.129 13.311-26.232 11.344-35.129l-57.16-71.069-247.995 137.989z" fill="rgba(36,31,32,1)" id="rEzC8Ursta8ZT0mhe_0g" data-selector="path[3]" /><path d="m186.647 114.657s339.403-80.476 348.872-76.423c9.468 4.053-193.142 210.552-205.581 212.86-12.439 2.309-311.385 78.551-322.53 78.551s166.501-207.896 179.239-214.988z" fill="rgba(47,209,205,1)" fill-opacity="0.2" id="TgOeXnpdwHrxG0ybkEjmY" data-selector="path[4]" /><g fill="rgba(36,31,32,1)" id="SF-sQ_VsKaf95dzv5jrFP" data-selector="g[5]"><path d="m7.408 336.645c-3.381 0-6.328-2.257-7.167-5.488-1.079-4.153.691-7.346 9.963-17.978 5.474-6.276 13.536-14.973 23.962-25.848 23.539-24.553 53.228-54.112 73.989-74.586 41.329-40.757 110.051-107.173 118.519-111.888.394-.22.807-.4 1.235-.54.797-.26 80.616-26.279 160.566-51.47 46.98-14.802 84.82-26.428 112.47-34.556 54.419-15.996 56.877-14.943 59.989-13.612 3.062 1.311 4.863 4.489 4.484 7.91-.347 3.127-.822 7.409-36.396 47.778-19.608 22.252-46.526 51.58-75.795 82.584-28.56 30.252-56.173 58.74-77.754 80.217-37.789 37.606-41.375 38.272-44.257 38.808-4.13.767-45.276 11.055-92.918 22.967-150.94 37.741-223.989 55.702-230.89 55.702zm225.704-223.298c-7.191 5.13-52.707 47.907-111.443 105.736-51.005 50.218-83.199 83.462-98.244 100.243 40.336-9.174 144.449-35.206 211.475-51.965 54.284-13.573 86.301-21.566 92.958-22.987 7.655-4.642 52.328-48.439 115.384-115.24 52.159-55.256 86.781-94.361 101.125-112.514-47.09 11.893-203.853 61.708-311.254 96.727z" fill="rgba(36,31,32,1)" id="QSK4XJN0HEs5rLjD9KC2" data-selector="g[5]&gt;path[1]" /><path d="m177.777 411.251c-.221 0-.443-.01-.667-.031-3.849-.364-6.674-3.779-6.31-7.628 6.26-66.175 17.257-112.583 35.658-150.476 18.137-37.35 42.976-64.995 71.2-94.721 2.662-2.806 7.093-2.919 9.896-.257 2.804 2.662 2.918 7.093.256 9.896-57.219 60.264-90.218 100.979-103.073 236.875-.343 3.625-3.392 6.341-6.96 6.341z" fill="rgba(36,31,32,1)" id="sdbVc2vOqpBhND4GHZWS2" data-selector="g[5]&gt;path[2]" /><path d="m177.768 404.252c-15.262 38.571-27.31 50.785-5.106 64.03 25.327-6.74 17.978-25.458 5.106-64.03z" fill="rgba(36,31,32,1)" id="LMO9aY6yCbuLGTWt2I_-c" data-selector="g[5]&gt;path[3]" /><path d="m172.662 475.281c-1.251 0-2.492-.336-3.586-.988-23.214-13.846-16.36-29.518-5.985-53.241 2.468-5.643 5.265-12.038 8.168-19.375 1.083-2.736 3.785-4.521 6.7-4.422 2.941.08 5.518 1.99 6.449 4.781l1.431 4.278c8.709 26.013 14.463 43.197 7.799 55.576-3.405 6.324-9.677 10.628-19.177 13.155-.592.157-1.197.235-1.8.235zm4.335-51.087c-.366.838-.725 1.66-1.078 2.468-10.053 22.986-11.614 27.704-2.244 33.99 5.846-2.07 7.164-4.519 7.636-5.397 2.958-5.496.407-16.265-4.314-31.061z" fill="rgba(36,31,32,1)" id="Wac60Q8RPUETkvnbVmZ0" data-selector="g[5]&gt;path[4]" /></g></g></g></svg>