<svg xmlns="http://www.w3.org/2000/svg" fill="none" viewBox="0 0 700 650" width="700" height="650"><defs><clipPath id="assetClipPath_-akbH8Pp"><path d="m0 0 h 304.423 v 262.239 h -304.423 v -262.239 z" id="path_Y2hg9Cus" fill="#ffffff" fill-opacity="0.08" /></clipPath><clipPath id="assetClipPath_ZwDnmFJk"><path d="m0 0 h 279.788 v 214.828 h -279.788 v -214.828 z" id="path_pVa0XI_2" fill="#ffffff" fill-opacity="0.08" /></clipPath><clipPath id="assetClipPath_JdHmcWyU"><path d="m0 0 h 206.186 v 166.363 h -206.186 v -166.363 z" id="path_PDmGxWi2" fill="#ffffff" fill-opacity="0.08" /></clipPath></defs><g transform="translate(295 123)" data-asset-index="0"><g clip-path="url(#assetClipPath_-akbH8Pp)" transform="scale(0.9986104860670842 0.9990886176350582)" data-asset-index="0"><path d="M235.872,77.907l25.557-2.371C192.047,171.069,111.571,198.712,10.811,207.547l9.833,54.692c129.267-8.491,230.858-110.641,252.673-183.554l16.793,17.053s-2.309-55.719-6.751-57.929c-4.443-2.211-47.485,40.098-47.485,40.098h0Z" fill="#2FD1CD" fill-opacity="0.2" id="IjrCRnC9OHRwWMnd0WJ2" /><path d="M18.175,249.898c-.089,0-.178,0-.267-.003h0c-4.918-.121-9.138-3.538-10.332-8.244C2.017,226.925-.443,212.745.062,198.332c-.233-2.576.446-5.125,1.952-7.263,1.682-2.388,4.193-3.979,7.071-4.478.317-.055.636-.096.958-.123,88.994-7.455,162.18-28.263,226.793-103.113-5.999.513-11.29-3.932-11.824-9.923-.257-2.889.668-5.815,2.539-8.03.113-.134,13.173-15.596,26.666-30.956,13.145-14.965,21.567-24.063,26.506-28.633C285.574,1.325,288.366-.091,292.299.007c3.129.075,6.021,1.407,8.142,3.751,3.377,3.731,5.237,5.787,3.042,48.656-.965,18.849-2.36,37.343-2.419,38.121-.457,6.014-5.701,10.53-11.734,10.079-2.567-.195-4.992-1.295-6.829-3.097l-4.937-4.838c-6.359,13.889-15.429,28.196-26.607,41.902-15.734,19.294-35.991,37.9-58.58,53.806-24.291,17.104-50.895,31.041-79.074,41.422-30.718,11.318-62.493,18.07-94.44,20.067-.237.014-.464.021-.688.021ZM14.016,200.18c-.234,11.755,1.833,23.426,6.301,35.57,29.795-2.087,59.442-8.502,88.145-19.077,27.037-9.961,52.558-23.33,75.854-39.733,21.56-15.181,40.853-32.888,55.791-51.206,12.87-15.782,22.688-32.287,28.392-47.729.823-2.227,2.717-3.885,5.033-4.405,2.315-.52,4.737.169,6.433,1.831l7.616,7.463c.501-7.127,1.3-19.087,1.92-31.196,1.083-21.146,1.05-31.051.736-35.653-4.442,4.132-12.982,13.388-25.501,27.64-8.439,9.607-16.667,19.207-21.657,25.061l9.17-.813c2.789-.253,5.445,1.184,6.775,3.641,1.33,2.457,1.071,5.468-.657,7.663-33.057,41.978-70.23,71.74-113.646,90.986-35.957,15.94-76.365,25.21-130.705,29.958Z" fill="#231F20" id="EfE_xBat6RmID0N_n6or" /></g></g><g transform="translate(312 243)" data-asset-index="1"><g clip-path="url(#assetClipPath_ZwDnmFJk)" transform="scale(1.0043318512588102 1.0054555272124677)" data-asset-index="1"><g id="OofPMwni68-BgNxsIHdG">
    <path d="M269.457,12.287c6.747,7.796,2.202,189.898-4.405,192.507-6.607,2.609-44.783,5.269-52.858,0-8.075-5.269-8.075-187.054,0-192.507,8.075-5.454,49.921-8.483,57.263,0h0Z" fill="#FFFFFF" fill-opacity="0.08" id="vXHgeLeAjhIEdf2xXLK9M" />
    <path d="M234.264,214.853c-10.799,0-21.134-1.091-25.894-4.197-3.449-2.25-5.669-5.541-7.415-32.207-.965-14.735-1.592-34.997-1.767-57.053-.208-26.219.233-52.752,1.209-72.797.53-10.895,1.203-19.645,1.998-26.007,1.254-10.033,2.683-13.946,5.881-16.106C214.487,2.292,229.726.405,240.887.064c17.62-.538,29.009,2.033,33.863,7.643h0c1.811,2.092,3.863,4.464,4.696,33.71.445,15.607.452,36.761.021,59.564-.785,41.478-3.034,89.264-6.289,102.522-.495,2.016-1.524,6.21-5.556,7.802-4.233,1.672-19.196,3.549-33.359,3.549ZM217.36,199.486c7.542,2.317,33.071,1.326,42.524-.524,1.941-9.572,4.346-43.578,5.422-90.43,1.175-51.145.051-84.654-1.656-91.975-2.295-1.206-9.694-2.964-23.077-2.475-11.538.42-19.882,2.204-23.18,3.417-2.131,8.029-4.253,41.127-4.256,91.039-.002,49.728,2.101,82.766,4.222,90.948ZM217.791,200.805s0,0,0,0h0ZM264.229,16.936h.01-.01ZM217.802,16.269h0ZM263.398,15.677h0s0,0,0,0Z" fill="#231F20" id="lB8sqPZ8rLXHVxDm2uUkT" />
  </g><g id="kBFULQyy5oNofAd9jnJ1D">
    <path d="M169.888,77.26c6.747,5.206,2.202,126.8-4.405,128.542-6.607,1.742-44.783,3.518-52.858,0-8.075-3.518-8.075-124.901,0-128.542,8.075-3.641,49.921-5.665,57.263,0h0Z" fill="#FFFFFF" fill-opacity="0.08" id="pWuwfKYhnpq1X-aKeS03R" />
    <path d="M134.62,214.835c-10.432,0-20.349-.681-24.791-2.616-3.922-1.709-9.85-4.291-10.246-65.958-.109-17.028.392-34.02,1.374-46.618,1.705-21.859,4.192-26.692,8.79-28.765,8.991-4.055,53.847-7.317,64.417.839h0c2.964,2.287,7.024,5.42,5.88,58.972-.527,24.673-2.346,55.928-5.221,70.134-.831,4.104-2.085,10.306-7.555,11.748-4.029,1.062-18.792,2.265-32.648,2.265ZM117.243,199.891c8.207,1.591,33.708.946,43.557-.345,1.597-6.723,3.851-26.617,4.936-58.037,1.195-34.589.003-53.598-1.2-59.141-8.039-2.694-37.815-1.83-47.247.672-1.679,5.888-3.718,26.05-3.72,58.489-.002,32.208,2.004,52.314,3.674,58.362ZM165.737,82.89h.01-.01ZM164.177,81.107h0Z" fill="#231F20" id="J-ZGXg-AUO3tVVv6Bf8U" />
  </g><g id="UgO_JRqw0y-Mlo4sVOco">
    <path d="M70.32,139.94c6.747,2.707,2.202,65.929-4.405,66.834-6.607.906-44.783,1.829-52.858,0-8.075-1.829-8.075-64.941,0-66.834,8.075-1.893,49.921-2.945,57.263,0Z" fill="#FFFFFF" fill-opacity="0.08" id="VVnRJrB3Pido1x7xxTUkt" />
    <path d="M34.474,214.812c-9.818,0-19.002-.313-22.964-1.21-6.529-1.479-8.646-9.095-9.855-16.349C.621,191.049.034,182.838.002,174.132c-.033-8.966.519-17.499,1.554-24.026,1.195-7.529,3.306-15.435,9.904-16.981,7.784-1.825,51.844-3.54,61.466.319h0c5.299,2.126,7.383,8.309,7.689,22.813.191,9.055-.431,20.43-1.663,30.428-2.348,19.051-5.511,26.123-12.087,27.024-3.522.483-18.582,1.102-32.392,1.103ZM16.665,200.26c9.125.988,35.735.537,45.581-.166,3.433-9.639,5.729-44.525,3.542-54.094-9.106-1.443-39.015-1.003-49.096.396-1.232,3.599-2.69,13.229-2.692,26.959-.002,13.658,1.438,23.26,2.665,26.904ZM67.713,146.437h.01-.01Z" fill="#231F20" id="CAjmWIHZ1OsHlEVbQ_4go" />
  </g></g></g><g transform="translate(91 291)" data-asset-index="2"><g clip-path="url(#assetClipPath_JdHmcWyU)" transform="scale(1.0039478917094273 1.0038289763949917)" data-asset-index="2"><path d="M6.996,144.089c26.621-50.85,186.069-79.81,192.19.006-59.529,15.615-123.563,15.716-192.19-.006Z" fill="#2FD1CD" fill-opacity="0.2" id="JLI_YUguk9P6tKUQvYez" /><path d="M199.179,150.675c-3.406,0-6.289-2.625-6.554-6.078-1.596-20.818-17.398-32.829-30.373-39.24-17.147-8.472-40.77-12.799-64.809-11.872-22.869.883-43.945,6.231-59.346,15.059-11.193,6.416-24.533,17.79-24.522,35.54.003,3.634-2.943,6.583-6.576,6.584h-.005c-3.633,0-6.578-2.943-6.581-6.577-.012-19.042,10.755-35.283,31.137-46.967,17.21-9.865,40.431-15.828,65.384-16.792,49.926-1.932,105.268,17.046,108.811,63.257.278,3.623-2.435,6.787-6.058,7.065-.171.013-.341.02-.51.02h0Z" fill="#231F20" id="qF2obJICmI22rrgpdFE9" /><path d="M81.807,46.71c3.753,30.471,60.511,30.746,60.511,1.366,0-41.423-64.545-34.119-60.511-1.366Z" fill="#2FD1CD" fill-opacity="0.2" id="QJQsvQJx0UdmvYvmcxR1a" /><path d="M102.934,66.832c-18.464,0-38.261-8.965-38.851-28.915-.41-13.913,5.548-25.308,16.778-32.088,12.61-7.615,29.849-7.783,42.897-.42,11.67,6.586,18.363,18.364,18.363,32.315,0,9.027-4.611,16.916-12.985,22.215-6.796,4.301-15.804,6.747-25.365,6.887-.278.004-.558.006-.838.006h0ZM102.584,13.165c-5.308,0-10.584,1.312-14.92,3.932-4.942,2.984-10.762,8.952-10.425,20.434.333,11.348,13.888,16.318,26.339,16.136,12.613-.185,25.382-5.721,25.382-15.942,0-11.791-6.347-17.848-11.67-20.852-4.382-2.472-9.559-3.706-14.705-3.706h0Z" fill="#231F20" id="A7XsAT450DF1ZIsB9R-zr" /><path d="M105.57,166.362c-1.018,0-1.951-.002-2.798-.005-13.203-.051-79.914-.795-96.688-10.48C.743,152.792-.02,148.741,0,146.601c.037-3.842,3.164-6.932,6.998-6.932.023,0,.046,0,.069,0,2.898.028,5.368,1.813,6.407,4.334,6.322,3.418,37.588,8.172,89.628,8.354,52.794.174,83.294-4.438,89.482-8.023.945-2.67,3.468-4.606,6.467-4.664,3.891-.077,7.059,2.999,7.133,6.864.042,2.213-.703,6.407-6.177,9.638-15.743,9.292-73.051,10.189-94.438,10.19Z" fill="#231F20" id="nujNiKbuPBL_0nQC-uzc" /></g></g></svg>