<svg xmlns="http://www.w3.org/2000/svg" viewBox="0 0 3000 2181" width="3000" height="2181"><g transform="translate(1317.2727272727273 226.36363636363635) rotate(0.0 759.5454545454544 885.0) scale(2.72964462673294 2.729480704730329)"><g><path d="M134.907 7c29.469 8.186 296.322 49.114 358.534 40.928 38.582-5.077-117.874 455.125-152.254 506.189-51.991 0-301.567-48.828-330.687-62.524C-17.347 478.496 129.995 103.657 134.907 7z" fill="#fff" fill-opacity="0.08"/><path d="M341.186 561.117c-28.343 0-109.107-13.561-175.239-26.251-67.173-12.89-142.211-29.311-158.427-36.938-8.71-4.097-8.208-17.377-6.567-29.829 1.636-12.417 5.39-29.557 11.475-52.398 11.239-42.185 28.577-96.947 46.932-154.924C91.946 157.854 125.64 51.426 127.915 6.645A7 7 0 0 1 136.78.256c14.724 4.09 90.454 16.516 166.023 26.407 96.53 12.635 163.908 17.723 189.724 14.325 4.412-.575 8.495 1.405 10.915 5.313 4.108 6.633 6.658 23.013-10.226 91.38-10.476 42.419-26.777 98.017-47.143 160.78-34.604 106.649-81.127 232.898-99.081 259.565a7.002 7.002 0 0 1-5.807 3.091zm-326.74-75.428c14.746 6.233 78.734 20.958 154.139 35.428 78.073 14.982 143.048 24.936 168.767 25.92 16.722-28.636 58.395-138.871 95.292-252.546 20.248-62.381 36.458-117.625 46.88-159.759 14.382-58.143 13.653-74.938 12.543-79.593-5.518.587-12.323.858-20.176.858-82.63.002-281.806-30.093-330.673-40.347-5.45 50.168-37.479 151.335-68.511 249.352-17.32 54.708-33.68 106.382-44.869 147.332-15.405 56.38-14.477 70.093-13.392 73.355zm.236.564h.01z" fill="#231f20"/><path d="M175.835 87.22c8.494-13.803 279.951 67.123 368.356 57.621 36.694-3.944-127.697 467.901-144.068 492.458S46.501 570.801 30.13 554.117C13.759 537.433 162.738 108.503 175.835 87.22z" fill="#fff" fill-opacity="0.08"/><g fill="#231f20"><path d="M382.206 648.468c-46.27 0-156.89-27.352-191.339-36.172-39.764-10.18-78.447-21.067-108.924-30.655-50.067-15.751-54.965-20.742-56.809-22.621-3.492-3.558-4.751-9.638-.858-30.185 2.452-12.941 6.868-30.969 13.126-53.583 10.822-39.109 27.379-92.724 47.881-155.046 35.379-107.552 77.28-224.774 84.591-236.654 5.452-8.862 20.77-6.888 126.08 16.248 83.434 18.329 197.7 43.437 247.49 38.082 4.183-.447 8.03 1.507 10.29 5.235 3.625 5.98 14.656 24.178-59.851 254.447-35.446 109.55-79.003 230.221-87.935 243.619-3.481 5.222-10.756 6.474-15.925 6.961-2.336.22-4.956.325-7.816.325zM35.888 549.724c2.88 1.776 14.512 7.603 58.467 21.115 33.945 10.435 77.2 22.319 118.673 32.605 46.832 11.615 88.37 20.517 120.125 25.743 49.416 8.133 59.71 4.701 61.403 3.822 7.227-11.994 46.55-117.91 85.657-238.677 20.687-63.882 37.248-119.543 47.894-160.968 15.095-58.735 15.055-76.265 14.148-81.306-4.441.378-9.276.557-14.449.557-56.685.002-154.606-21.512-234.857-39.143-47.148-10.358-100.319-22.032-112.072-20.856-8.21 16.842-44.985 118.971-79.981 224.94-20.038 60.675-36.536 113.663-47.71 153.235-16.749 59.31-17.735 74.91-17.298 78.933zm.16.89z"/><path d="M416.504 193.026a7.02 7.02 0 0 1-1.425-.146c-11.256-2.327-47.984-10.16-83.503-17.735-26.57-5.667-51.667-11.019-63.21-13.449a7 7 0 0 1 2.884-13.7c11.562 2.434 36.667 7.788 63.247 13.457 35.498 7.571 72.204 15.399 83.417 17.717a7 7 0 0 1-1.41 13.856zm36.673 104.225c-.249 0-.5-.013-.754-.041-36.697-3.931-229.471-37.89-281.25-59.751-3.562-1.503-5.23-5.61-3.726-9.171s5.611-5.229 9.171-3.726c48.568 20.505 234.571 54.151 277.296 58.729a7 7 0 0 1-.738 13.961zm-67.703 57.578a6.92 6.92 0 0 1-.73-.038c-25.358-2.63-158.62-25.365-194.467-40.013a7 7 0 1 1 5.296-12.96c32.6 13.321 162.086 36.089 190.615 39.047a7.001 7.001 0 0 1-.714 13.963zm8.345 80.926c-.277 0-.558-.016-.84-.05-32.633-3.903-204.082-37.621-250.159-59.333a7 7 0 0 1 5.968-12.664c43.028 20.275 207.958 53.564 245.853 58.096a7 7 0 0 1-.822 13.951zm-27.918 146.983c-5.273 0-10.153-1.241-14.598-3.722-7.245-4.043-11.619-10.587-14.102-15.715-31.359 11.669-47.19 1.409-54.016-6.144-4.351-4.813-7.259-10.911-8.725-17.749-6.963 1.047-13.911 1.514-20.887 1.829-3.864.182-7.134-2.814-7.309-6.676s2.814-7.135 6.676-7.309c7.104-.322 13.873-.772 20.482-1.81.533-10.339 3.762-21.406 9.689-31.814 8.635-15.163 21.94-23.466 35.599-22.208 9.543.879 17.201 6.407 19.983 14.428 2.945 8.487-.182 17.93-8.578 25.907-14.405 13.684-28.292 20.862-42.003 24.747.957 4.43 2.772 8.296 5.458 11.267 8.233 9.106 24.135 9.089 44.781-.053a7.002 7.002 0 0 1 9.648 4.799c.016.066 2.567 10.11 10.196 14.315 4.347 2.396 9.872 2.504 16.418.323a6.998 6.998 0 0 1 8.854 4.427 6.998 6.998 0 0 1-4.427 8.854c-4.607 1.536-8.997 2.303-13.142 2.304zm-49.875-97.441c-7.583 0-15.247 5.6-20.747 15.259-4.007 7.037-6.516 14.465-7.497 21.473 10.738-3.563 21.374-9.672 32.692-20.424 4.239-4.027 6.059-8.097 4.994-11.167-.944-2.72-4.1-4.713-8.041-5.076a15.255 15.255 0 0 0-1.401-.064z"/></g></g></g><g transform="translate(261.8181818181818 469.09090909090907) rotate(0.0 859.090909090909 643.6363636363636) scale(2.727385286030563 2.7303964859642966)"><g><path d="M200.844 110.369c-6.933 0-12.954-5.146-13.867-12.205-.364-2.812-.829-5.728-1.278-8.548-2.636-16.543-5.624-35.294 8.021-53.204 13.546-17.779 61.8-27.407 89.358-31.564 16.848-2.541 73.8-9.993 99.305.79 21.605 9.135 25.273 36.658 27.952 56.754.272 2.041.535 4.019.808 5.897 1.11 7.652-4.192 14.755-11.844 15.866-7.652 1.107-14.756-4.192-15.866-11.844a542.167 542.167 0 0 1-.853-6.22c-1.479-11.1-4.233-31.76-11.102-34.665-9.937-4.202-41.765-5.214-83.373.98-42.459 6.321-68.148 16.271-72.141 21.007-6.057 7.952-5.003 16.816-2.616 31.796.481 3.02.979 6.142 1.395 9.361.992 7.668-4.42 14.688-12.088 15.681a14.1 14.1 0 0 1-1.814.117z" fill="#231f20"/><path d="M97.649 109.449c66.193-11.707 369.562-50.968 410.973-53.823 41.411-2.856 72.826 7.14 85.677 59.974 12.852 52.834 27.131 191.346 28.559 222.76 1.428 31.415 6.899 81.756-37.368 88.896s-442.424 33.908-470.983 36.764-69.97-7.14-78.537-59.974c-8.568-52.834-3.36-160.613-6.216-203.451-2.856-42.839 25.124-83.581 67.895-91.146z" fill="#2fd1cd" fill-opacity="0.2"/><g fill="#231f20"><path d="M105.37 471.478c-33.294 0-68.343-17.184-76.31-66.312C20.882 354.734 3.367 230.151.426 186.034c-1.629-24.433 1.409-40.687 9.85-52.702 8.896-12.664 23.936-20.49 47.322-24.626 62.777-11.104 408.053-57.134 450.543-60.064 24.924-1.719 43.237 1.483 57.62 10.078 17.248 10.307 28.808 28.371 35.34 55.226 13.101 53.858 27.363 193.582 28.75 224.097 1.964 43.21-19.394 70.626-60.14 77.198-43.232 6.973-425.664 52.86-454.506 55.745-3.241.324-6.53.493-9.834.494zM60.036 122.492c-37.731 6.673-48.395 21.302-45.641 62.61 2.915 43.715 20.343 167.614 28.484 217.822 9.065 55.901 56.583 55.564 70.932 54.129 28.801-2.88 410.545-48.68 453.67-55.635 33.75-5.443 50.029-26.553 48.384-62.741-1.373-30.197-15.451-168.321-28.368-221.424-11.922-49.017-39.959-57.292-78.394-54.645-42.316 2.918-386.461 48.811-449.067 59.884zm-1.219-6.893h.01z"/><path d="M66.371 349.061c-11.129 0-22.33-2.129-31.66-8.496-11.257-7.682-18.201-20.384-20.638-37.753a7 7 0 0 1 5.959-7.905 6.997 6.997 0 0 1 7.905 5.959c1.893 13.489 6.689 22.692 14.666 28.135 14.103 9.624 36.331 5.833 51.824 2.144 20.814-4.956 235.357-33.32 363.542-50.268 44.435-5.875 76.54-10.119 81.815-10.918 25.887-3.922 68.574-16.237 63.611-54.644a6.999 6.999 0 0 1 6.045-7.839c3.835-.49 7.344 2.211 7.839 6.045 4.74 36.685-22.741 62.301-75.398 70.279-5.407.819-37.567 5.071-82.078 10.956-119.529 15.803-342.018 45.218-362.135 50.007-9.051 2.155-20.139 4.296-31.298 4.296z"/><path d="M279.272 278.25c9.101-11.155 94.268-24.864 104.89-18.428 10.622 6.437 21.243 54.234 15.933 60.873-5.311 6.639-104.823 23.614-114.117 16.833s-18.655-44.632-6.705-59.278z"/><path d="M297.601 346.046c-11.826 0-14.502-1.954-15.75-2.864-7.729-5.639-12.88-21.292-14.556-34.304-1.123-8.716-1.764-24.86 6.552-35.054 7.243-8.878 38.277-15.269 56.131-18.288 14.25-2.41 48.409-7.398 57.81-1.702 12.286 7.445 18.461 40.462 19.125 44.202 3.68 20.737.022 25.309-1.354 27.03-1.804 2.256-4.892 4.628-22.618 8.823-10.368 2.454-23.622 4.999-37.319 7.167-24.011 3.8-38.8 4.989-48.022 4.989zm-7.813-14.438c3.788 1.042 21.009.769 53.311-4.325 26.976-4.254 45.976-8.976 51.292-11.241.428-3.391-.127-12.743-3.517-25.908-4.029-15.652-8.557-22.988-10.244-24.257-3.596-1.34-21.376-1.134-48.896 3.563-28.233 4.818-44.495 10.652-47.066 13.271-3.58 4.427-4.883 13.535-3.486 24.38 1.653 12.837 6.225 22.265 8.607 24.517zm.315.265h.01zm105.379-16.376z"/></g></g></g></svg>