<?xml version='1.0' encoding='utf-8'?>
<svg xmlns="http://www.w3.org/2000/svg" fill="none" viewBox="0 0 1000 850" width="1000" height="850"><defs><clipPath id="assetClipPath_1J-sSaDx"><path d="m0 0 h 782.237 v 424.222 h -782.237 v -424.222 z" id="path_Mp8LqXyv" fill="#ffffff" fill-opacity="0.08" /></clipPath><clipPath id="assetClipPath_b-6bQnfQ"><path d="m0 0 h 212.747 v 238.398 h -212.747 v -238.398 z" id="path_et0gBmY6" fill="#ffffff" fill-opacity="0.08" /></clipPath><clipPath id="assetClipPath_RYYDlcQg"><path d="m0 0 h 89.206 v 97.386 h -89.206 v -97.386 z" id="path_KxXyPF1n" fill="#ffffff" fill-opacity="0.08" /></clipPath><clipPath id="assetClipPath_cVMCoYZ9"><path d="m0 0 h 145 v 176 h -145 v -176 z" id="path_ZylXIQdW" fill="#ffffff" fill-opacity="0.08" /></clipPath><clipPath id="assetClipPath_a2ANJo18"><path d="m0 0 h 249 v 230 h -249 v -230 z" id="path_7zLp8fuv" fill="#ffffff" fill-opacity="0.08" /></clipPath><clipPath id="clipPath__Pw2VUry"><circle cx="40" cy="40" r="40" stroke="#E00000" style="stroke-width:0;vector-effect:non-scaling-stroke;" /></clipPath></defs><g transform="translate(109 269)" data-asset-index="0"><g clip-path="url(#assetClipPath_1J-sSaDx)" transform="scale(0.9996970227693142 0.9971194327498338)" data-asset-index="0"><g id="aweenYFJDKTaWqZnNfIKA">
    <path d="M7.557,286.507l134.506,3.128,28.435,60.088c-38.71,9.665-71.48,11.648-114.2,9.248-8.98-.505-13.457-2.037-22.8-6-15.925-6.754-29.439-24.526-25.941-66.464Z" fill="#2FD1CD" fill-opacity="0.2" id="mzkbgdCDecHq1o8vkEupZ" />
    <path d="M86.892,366.898c-9.728,0-19.972-.319-30.988-.938-10.134-.569-15.443-2.431-25.141-6.544-16-6.787-34.224-25.045-30.183-73.49.308-3.69,3.449-6.501,7.138-6.416l134.505,3.128c2.647.062,5.032,1.611,6.165,4.004l28.436,60.088c.897,1.896.897,4.093,0,5.989s-2.597,3.289-4.631,3.797c-28.609,7.143-54.33,10.384-85.301,10.384ZM14.116,293.662c-1.201,28.356,6.225,46.125,22.115,52.865,8.668,3.677,12.419,5.004,20.459,5.456,41.112,2.308,71.044.33,103.788-7.069l-22.895-48.38-123.466-2.872Z" fill="#241F20" id="IAYgxehdghL8cml5o22kG" />
  </g><g id="tHB7IxyuD7fhzNChwoQut">
    <path d="M26.657,349.251c2.34,2.327,22.035,11.784,38.16,9.12,11.489-1.898,23.11-9.064,29.102-31.782,29.218-110.778,78.898-119.418,89.604-118.346l85.293,12.317s-32.773,23.134-55.907,65.546c-23.134,42.412-23.079,67.307-46.212,76.946,0,0-19.43.06-44.28-.08-30.715-.173-55.378-1.221-69.134-4.179" fill="#241F20" id="YUNEwyAk9TK9dg22faFji" />
    <path d="M155.751,370.063c-8.09,0-19.984-.017-33.374-.092-35.312-.199-57.735-1.577-70.566-4.335-.49-.105-.958-.26-1.398-.458-13.53-2.008-25.836-8.124-28.692-10.963-2.742-2.726-2.754-7.158-.028-9.899,2.657-2.672,6.934-2.751,9.687-.231,3.026,2.221,19.578,9.479,32.295,7.38,7.38-1.219,17.843-5.309,23.475-26.661,33.849-128.334,94.503-123.782,97.069-123.526.102.01.203.022.304.037l85.293,12.317c2.836.41,5.137,2.507,5.806,5.294.669,2.787-.428,5.7-2.77,7.353-.309.219-31.785,22.822-53.798,63.179-7.937,14.552-13,26.794-17.466,37.595-8.425,20.372-14.511,35.091-32.199,42.46-.847.353-1.754.536-2.671.539-.089,0-4.196.012-10.968.012ZM86.397,355.169c10,.459,21.948.723,36.06.802,20.687.117,37.793.094,42.762.083,11.43-5.326,15.767-15.815,23.433-34.353,4.374-10.576,9.816-23.738,18.114-38.949,14.823-27.176,33.318-46.585,45.396-57.526l-69.465-10.031c-4.935-.417-17.837,2.25-32.316,15.449-14.364,13.096-34.645,40.682-49.691,97.729-3.06,11.599-7.839,20.548-14.291,26.795ZM31.453,344.152c.047.044.094.09.14.136-.041-.041-.087-.087-.14-.136Z" fill="#241F20" id="qgT-ie26BLsi-HSpNHOMn" />
  </g><g id="kkQt-1CP7gYSaNePQInXS">
    <path d="M373.836,407.337c-25.698-6.126-51.847-56.178-62.418-76.686-36-69.84-50.404-95.262-94.103-115.81-15.422-7.252-33.791-6.599-33.791-6.599l138.591,9.065c18.823-.416,53.919,33.22,81.463,90.304,29.154,60.418,77.76,100.08,108.578,102.088" fill="#2FD1CD" fill-opacity="0.2" id="PMdwaTchmc8O1XoHvPhN9" />
    <path d="M512.162,416.7c-.153,0-.307-.005-.462-.015-17.273-1.125-38.279-12.109-59.146-30.927-21.738-19.604-41.371-46.276-55.281-75.104-28.663-59.401-61.667-86.661-75.004-86.348-.205.005-.408,0-.612-.013l-82.262-5.38c31.378,20.029,47.003,47.923,78.245,108.532,23.125,44.861,42.578,69.451,57.819,73.084,3.761.896,6.083,4.671,5.186,8.432s-4.672,6.082-8.432,5.186c-25.901-6.174-49.421-46.15-67.018-80.288-36.159-70.149-49.567-93.266-90.859-112.683-5.949-2.797-12.449-4.286-17.919-5.075l-13.35-.874c-3.721-.243-6.598-3.361-6.542-7.089.055-3.728,3.024-6.759,6.75-6.891.445-.017,6.414-.199,14.463.91l124.558,8.147c.052,0,.104,0,.156,0,24.335,0,60.994,39.476,87.431,94.266,28.142,58.321,75.235,96.354,102.729,98.145,3.858.251,6.781,3.583,6.53,7.44-.241,3.703-3.32,6.545-6.979,6.545Z" fill="#241F20" id="OCxdgc8TPBPhfZlSYl6ig" />
  </g><g id="wC4fHcuJP13DjJoUH32dU">
    <path d="M523.99,417.123c-30.325-.218-127.221-3.782-150.155-9.785,51.342,11.154,74.978-6.543,93.102-24.846,32.554-32.877,76.799-132.664,115.834-217.405,1.824-3.219.434-6.885-3.339-8.802l-43.958-22.342c11.773-7.102,172.912-125.889,178.202-126.942,3.22,3.716,24.005,77.865,43.778,132.899,7.137,19.867,13.601,39.352,17.784,52.259l-27.668-9.979c-2.423-.874-5.253-.945-7.816-.197-2.562.748-4.626,2.249-5.699,4.142-46.322,105.831-103.212,235.183-210.064,230.997Z" fill="#2FD1CD" fill-opacity="0.2" id="K2wfou-c9E-HWpHgBsNhD" />
    <path d="M529.087,424.223c-1.741,0-3.488-.033-5.257-.101-23.667-.176-96.733-2.579-134.357-7.105-1.98-.218-3.997-.481-6.065-.793-4.64-.664-8.497-1.368-11.345-2.114-3.685-.964-5.922-4.698-5.035-8.402.887-3.704,4.578-6.02,8.293-5.21,4.205.914,8.21,1.622,12.026,2.142.675.089,1.362.178,2.072.267,38.834,4.686,57.768-10.417,72.543-25.34,29.018-29.305,69.258-116.975,104.761-194.324,3.202-6.977,6.379-13.898,9.523-20.724l-43.945-22.335c-2.268-1.152-3.731-3.444-3.823-5.986-.093-2.542,1.201-4.934,3.379-6.248,4.665-2.814,36.494-25.884,70.192-50.308C702.608,4.756,708.904.812,712.309.135c2.467-.492,5.008.38,6.656,2.281,2.171,2.505,4.072,7.988,15.647,45.128,8.465,27.161,19,60.964,29.428,89.988,7.196,20.031,13.682,39.589,17.855,52.468.824,2.542.128,5.33-1.791,7.188-1.92,1.858-4.729,2.461-7.243,1.555l-27.669-9.979c-1.034-.373-2.334-.396-3.479-.062-.835.244-1.305.599-1.49.783-45.92,104.912-102.943,234.724-211.137,234.737ZM446.458,407.398c29.515,1.612,60.401,2.601,77.583,2.724.075,0,.149.002.224.005,1.568.062,3.126.092,4.673.092,99.391.001,154.383-125.641,198.704-226.901.096-.22.204-.435.322-.644,1.988-3.51,5.479-6.142,9.828-7.411,4.004-1.168,8.319-1.051,12.152.332l14.169,5.11c-3.734-11.246-8.324-24.735-13.248-38.439-10.529-29.306-21.113-63.267-29.618-90.556-4.095-13.138-8.288-26.591-10.955-34.413-17.024,11.52-64.152,45.677-100.026,71.678-28.438,20.611-49.348,35.752-61.11,44.068l33.448,17c3.703,1.881,6.341,4.906,7.429,8.516.971,3.222.613,6.644-1.005,9.674-3.162,6.865-6.359,13.83-9.58,20.848-37.746,82.235-76.776,167.271-107.537,198.335-7.404,7.478-15.56,14.545-25.454,19.982ZM716.291,13.47h0ZM707.857,10.855h0s0,0,0,0Z" fill="#241F20" id="tRjLo6C7WCWj10kk8a6w" />
  </g></g></g><g transform="translate(329 218)" data-asset-index="1"><g clip-path="url(#assetClipPath_b-6bQnfQ)" transform="scale(1.0058896247655666 1.0025251889697062)" data-asset-index="1"><g id="xB_Nb5WuNjJp9d7ShPT8M">
    <path d="M79.053,12.659c113.251-31.967,163.636,173.431,73.066,207.518-3.253,1.224-29.435,8.174-32.601,8.961C19.886,253.911-34.878,67.738,46.096,27.325c3.687-1.84,28.699-13.464,32.957-14.667Z" fill="#FFFFFF" fill-opacity="0.08" id="URF7eUHfmnPjjfdofCz" />
    <path d="M101.555,238.391c-17.438,0-34.185-5.924-49.245-17.554-17.723-13.686-32.626-35.171-41.966-60.498C.488,133.616-2.465,105.306,2.027,80.627,7.151,52.469,21.309,31.873,42.97,21.061c2.136-1.065,28.853-13.635,34.181-15.139h0c27.648-7.809,54.102-2.936,76.494,14.085,19.134,14.542,34.658,37.726,43.714,65.279,17.772,54.074,8.82,122.023-42.774,141.442-3.965,1.491-31.375,8.704-33.377,9.202-6.611,1.644-13.18,2.46-19.652,2.46ZM80.954,19.395c-3.292.94-26.73,11.696-31.733,14.193-22.186,11.072-30.42,33.054-33.421,49.545-3.992,21.931-1.193,48.307,7.679,72.362,12.385,33.584,39.554,68.906,78.012,68.91,5.241,0,10.686-.655,16.338-2.061,3.822-.95,29.135-7.713,31.826-8.72,43.436-16.349,50.145-76.073,34.404-123.968-13.786-41.946-49.061-85.512-103.104-70.263h0Z" fill="#231F20" id="M3MnKXHZHl_NtJYU__jf6" />
  </g><g id="cbnMTvtGurtcc-bpH4roH">
    <path d="M85.841,10.366c113.251-31.967,163.89,173.408,73.32,207.495C48.854,259.378-14.913,38.805,85.841,10.366Z" fill="#FFFFFF" fill-opacity="0.08" id="faa-9wbiuRrUtKdw3Agvk" />
    <path d="M131.743,230.109c-19.124,0-37.369-7.24-53.832-21.549C40.821,176.323,20.398,112.516,31.414,63.298c6.909-30.867,25.563-52.058,52.525-59.668,27.679-7.814,54.169-2.926,76.601,14.134,19.167,14.577,34.718,37.802,43.787,65.396,17.75,54.005,8.816,121.864-42.7,141.254-10.109,3.805-20.112,5.695-29.884,5.695ZM85.841,10.366l1.901,6.736c-27.916,7.88-38.61,31.134-42.666,49.253-9.828,43.906,9.022,102.959,42.019,131.639,14.472,12.579,38.294,25.101,69.601,13.316,43.359-16.318,50.05-75.954,34.332-123.779C177.211,45.494,141.873,1.831,87.742,17.102l-1.901-6.736Z" fill="#231F20" id="MUBdis8a09q3pbZ4rDbaA" />
  </g></g></g><g transform="translate(245 173)" data-asset-index="2"><g clip-path="url(#assetClipPath_RYYDlcQg)" transform="scale(0.9976907382911463 0.9960363912677387)" data-asset-index="2"><path d="M82.213,57.503c-2.29,0-4.534-1.123-5.875-3.186C52.081,17.003,23.22,14.084,22.004,13.978c-3.833-.334-6.702-3.702-6.393-7.538C15.92,2.603,19.245-.255,23.083.019c1.487.11,36.736,3.2,64.993,46.667,2.107,3.241,1.188,7.577-2.054,9.684-1.178.766-2.5,1.132-3.809,1.132Z" fill="#241F20" id="tXkYLLzcXRtm16rk35i4" /><path d="M55.757,97.386c-1.375,0-2.764-.404-3.98-1.246-16.567-11.478-46.298-19.558-46.596-19.638-3.733-1.004-5.945-4.845-4.941-8.579,1.005-3.733,4.845-5.944,8.579-4.941,1.314.354,32.392,8.806,50.931,21.648,3.178,2.202,3.969,6.562,1.768,9.741-1.359,1.962-3.542,3.014-5.761,3.014Z" fill="#241F20" id="OXx_3HwA_dDuEZpa8M-N4" /></g></g><g transform="translate(378 244) rotate(-14.85930453403514 72.5 88)" data-asset-index="3"><g clip-path="url(#assetClipPath_cVMCoYZ9)" transform="scale(1 1)" data-asset-index="3"><circle cx="40" cy="40" r="40" fill="#FFFFFF" fill-opacity="0.08" transform="scale(1.8125 2.2)" clip-path="url(#clipPath__Pw2VUry)" id="VD1kQt6tNs2QLw2PeHjNx" stroke="#E00000" style="stroke-width:0;vector-effect:non-scaling-stroke;" /></g></g><g transform="translate(326 217) rotate(-11.87533856420964 124.5 115)" data-asset-index="-1"><g clip-path="url(#assetClipPath_a2ANJo18)" transform="scale(1 1)" data-asset-index="-1"><path fill="#000000" d="M110.17 104.79L110.17 104.79Q110.17 101.27 108.04 99.17Q105.90 97.07 101.40 97.07L101.40 97.07L90.22 97.07L90.22 112.59L101.40 112.59Q104.40 112.59 106.35 111.66Q108.30 110.72 109.24 108.96Q110.17 107.19 110.17 104.79ZM80.10 88.59L101.70 88.59Q108.07 88.59 112.24 90.81Q116.40 93.02 118.46 96.73Q120.53 100.44 120.53 104.79L120.53 104.79Q120.53 107.72 119.47 110.61Q118.42 113.49 116.17 115.86Q113.92 118.22 110.36 119.64Q106.80 121.07 101.70 121.07L101.70 121.07L90.22 121.07L90.22 141.09L80.10 141.09L80.10 88.59ZM96.67 117.69L107.40 117.69L121.57 141.09L110.25 141.09L96.67 117.69Z" /><path fill="#000000" d="M137.25 135.47L137.25 135.47L138.45 135.32L138.45 156.09L128.85 156.09L128.85 103.59L137.55 103.59L138.15 108.24Q139.80 106.07 142.80 104.57Q145.80 103.07 149.70 103.07L149.70 103.07Q154.57 103.07 158.32 105.47Q162.07 107.87 164.21 112.18Q166.35 116.49 166.35 122.34L166.35 122.34Q166.35 128.19 164.21 132.54Q162.07 136.89 158.36 139.26Q154.65 141.62 149.70 141.62L149.70 141.62Q145.35 141.62 142.16 139.82Q138.97 138.02 137.25 135.47ZM156 122.34L156 122.34Q156 117.62 153.56 114.73Q151.13 111.84 147.22 111.84L147.22 111.84Q144.82 111.84 142.84 113.08Q140.85 114.32 139.65 116.61Q138.45 118.89 138.45 122.34L138.45 122.34Q138.45 125.72 139.65 128.04Q140.85 130.37 142.84 131.61Q144.82 132.84 147.22 132.84L147.22 132.84Q151.13 132.84 153.56 129.96Q156 127.07 156 122.34Z" /></g></g></svg>