<svg xmlns="http://www.w3.org/2000/svg" viewBox="0 0 3000 3000" width="3000" height="3000"><g transform="translate(505.0 230.0) rotate(0.0 980.0 1007.5) scale(2.5019147306612206 2.5030123101002446)"><g><path d="M7 407.06c0-542.4 769.4-526.85 769.4 7.61C776.4 904.41 7 949.41 7 407.06z" fill="#fff" fill-opacity="0.08"/><path d="M381.26 805.03c-101.16 0-194.44-34.62-262.68-97.48C41.01 636.08 0 532.17 0 407.06s41.53-232 120.11-305.74c35.26-33.09 76.82-58.69 123.54-76.1C288.56 8.49 336.29 0 385.5 0s99.14 8.8 145.54 26.16c48.08 17.99 91 44.32 127.57 78.26C740.25 180.2 783.4 287.48 783.4 414.68c0 60.84-11.72 117.36-34.84 167.98-21.45 46.96-52.3 88.16-91.72 122.47-37.11 32.29-80.47 57.42-128.9 74.66-47.03 16.75-96.38 25.25-146.68 25.25zM385.5 14C206.57 14 14 137 14 407.06c0 121.09 39.45 221.44 114.07 290.19 65.64 60.48 155.56 93.78 253.19 93.78 192.88 0 388.14-129.28 388.14-376.36 0-123.2-41.6-226.93-120.32-300C579.14 49.76 485.53 14 385.5 14z" fill="#231f20"/><path d="M576.8 109.89c-16.3-9.96-67.91-41.06-75.16 1.2-7.24 42.26 10.87 45.88 38.03 30.49 27.17-15.39 37.35 31.69 7.81 31.69s-88.95 8.25-81.7 27.27c7.24 19.02-62.73 36.19-25.33 63.94 29.71 22.04 84.74-42.31 106.47-28.72 21.73 13.58 52.52 4.53 69.73 22.64 17.2 18.11 24.45 44.37-6.34 36.22s-56.14-29.88-84.21-23.54-59.39 16.9-71.17 58.55c-11.77 41.65-38.4 110.23 30.42 108.97 27.98-.51 28.92-4.09 28.92-4.09s34.41 58.86 21.73 101.42 5.49 81.06 23.6 88.31c18.11 7.24 72.04-24.68 81.66-46.41s26.1-73.12 29.72-99.38 47.99-43.46 43.47-73.35c-4.53-29.88 19.92-39.84 28.07-67.01 10.5 14.54 12.36 81.65 33.19 101.78.46-8.26.7-16.65.7-25.18 0-168.68-75.74-260.38-180.64-324.45-.31 11.11-7.07 26.93-18.96 19.67zM72.38 434.03c16.48 7.46 30.74 18.51 42.9 31.91 53.85 49.62-3.95 82.35 71.09 133.91 13.36 6.05 21.21 17.25 23.55 31.71 12.6 41.7 32.35 87.1 67.33 114.25 12.5 4.92 22.46.55-1.09-34.89-15.84-23.85 43.58-93.99 51.91-107.34 23.4-37.5-12.91-78.6-48.29-81.7-14.73-1.29-30.06-17.08-42.02-25.79-36.73-22.93-94.57-19.33-104.21-80.72-3.18-20.26-42.12-2.34-46.65-45.39-2.56-24.36 29.69-33.07 48.62-11.95 5.67 13.21 44.74 35.56 46.75 17.42 8.22-74.2-10.65-111.49 59.27-122.53 68.82-10.87 4.27-116.26-29.67-85.1-11.82 10.86-1.45 35.82-15.26 43.99-27.43 12.18-42.25-25.53-25.25-45.12 8.61-18.08 50.61-24.77 44.45-46.78-8.17-13.66-25.72-3.46-36.67 1.25-18.09 6.29-39.73-3.25-48.71-19.86-30.67 27.56-57.15 61.2-77.62 100.95-13.28 78.17-46.12 202 19.56 231.75z" fill="#2fd1cd" fill-opacity="0.2"/><path d="M565.93 632.27c-3.21 0-6.23-.46-8.93-1.54-31.27-12.51-10.42-88.48-5.92-103.58 9.58-32.15-10.5-75.68-18.22-90.61-8.93 3.27-26.72 8.68-47.39 9.06-22.62.41-39.53-6.45-50.28-20.39-19.84-25.73-13.44-68.52-4.57-99.89 12.18-43.1 59.96-53.59 88.51-59.86 1.88-.41 3.69-.81 5.43-1.2 20.42-4.61 39.34 3.88 57.64 12.09 9.62 4.32 19.57 8.78 29.91 11.52 8.76 2.32 11.8.89 12.08.41 1.46-2.46-1.67-13.53-12.61-25.04-7.73-8.13-19.28-9.64-32.66-11.38-12.09-1.57-24.59-3.2-35.7-10.14-5.94-3.72-14.67 1.41-28.33 10.31-12.29 8-26.91 17.51-42.9 17.51-4.74 0-9.6-.83-14.56-2.79-3.38-1.34-13.68-5.4-15.04-14.26-1.42-9.21 7-16.02 15.91-23.24 5.83-4.72 14.63-11.86 13.28-15.42-1.6-4.2-2.42-10.79 2.79-18.35 11.51-16.7 48.1-29.18 73.14-29.18 5.33 0 8.76-1.99 10.2-5.91 1.64-4.46.25-10.39-3.09-13.23-2.8-2.37-6.65-2.19-11.47.53-17.88 10.13-30.98 11.96-40.06 5.58-9.46-6.65-12.18-20.82-8.32-43.34 2.11-12.31 7.75-20.63 16.75-24.72 19.71-8.95 48.8 6.4 68.96 18.72s.04.03.06.04c3.08-2.51 8.11-17.42 7.34-38.78-.09-2.57 1.24-4.99 3.46-6.29s4.98-1.27 7.18.07c56.24 34.35 100.85 80.86 132.59 138.23 34.71 62.75 52.31 135.92 52.31 217.49 0 8.47-.24 17.07-.71 25.57a6.993 6.993 0 0 1-4.44 6.13c-2.55 1-5.45.42-7.42-1.48-14.03-13.56-19.82-42.95-24.92-68.88-1.33-6.75-2.68-13.61-4.08-19.47-2.67 4.48-5.56 8.49-8.28 12.26-8.09 11.22-14.48 20.09-12.19 35.24 3.03 19.98-11.39 34.63-24.1 47.56-9.28 9.43-18.05 18.35-19.35 27.79-3.83 27.73-20.73 79.73-30.25 101.26-6.08 13.75-24.93 28.28-40.55 37.3-8.27 4.78-26.62 14.32-41.19 14.32zm-29.88-211.54c2.42 0 4.76 1.26 6.05 3.47 1.47 2.51 35.79 62 22.4 106.95-14.39 48.29-12.39 82.54-2.3 86.58 5.08 2.03 19.74-1.4 37.91-11.9 16.95-9.79 30.92-22.19 34.75-30.84 8.99-20.31 25.58-71.33 29.18-97.5 1.94-14.04 12.77-25.05 23.24-35.7 11.43-11.62 22.22-22.59 20.24-35.65-3.15-20.8 5.91-33.37 14.67-45.53 5.26-7.3 10.7-14.85 13.61-24.54a6.998 6.998 0 0 1 5.54-4.89c2.63-.45 5.28.64 6.84 2.8 5.12 7.09 7.92 21.31 11.46 39.32 2.6 13.22 5.58 28.33 9.75 40.72-.17-146.56-59.61-265.52-167.76-336.52-.97 15.14-4.69 33.08-14.4 38.76-4.36 2.55-9.49 2.4-14.09-.41-26.97-16.48-45.77-22.51-55.87-17.92-4.58 2.08-7.44 6.77-8.74 14.33-3.93 22.95.97 28.39 2.57 29.52 3.91 2.75 13.3.39 25.11-6.3 10.01-5.67 20.01-5.32 27.42.97 7.83 6.64 10.85 18.72 7.18 28.73-3.47 9.45-12.19 15.08-23.34 15.08-22.62 0-53.72 11.67-61.61 23.12-2.12 3.08-1.5 4.72-1.24 5.42 4.97 13.04-7.52 23.15-17.55 31.28-3.4 2.76-9.56 7.74-10.72 10.19.57.56 2.16 1.82 6.18 3.41 14.96 5.91 30.07-3.92 44.68-13.43 14.48-9.42 29.44-19.16 43.39-10.44 8.52 5.32 18.99 6.69 30.08 8.13 14.68 1.91 29.86 3.89 41.01 15.62 12.04 12.68 21.2 30.52 14.5 41.82-3.11 5.25-10.45 10.55-27.71 5.99-11.44-3.03-21.92-7.73-32.05-12.28-17.68-7.94-32.96-14.79-48.83-11.2-1.76.4-3.6.8-5.51 1.22-27.13 5.96-68.14 14.97-78.04 50-6.54 23.15-14.96 65.3 2.19 87.53 8.01 10.39 20.74 15.28 38.94 14.94 26.09-.48 47.73-10.14 47.94-10.24.93-.42 1.92-.62 2.89-.62zM284.57 754.49c-2.68 0-5.94-.6-9.88-2.15-.62-.24-1.2-.58-1.73-.98-30.02-23.3-52.83-61.82-69.74-117.76-.09-.3-.16-.6-.21-.9-2.05-12.62-8.62-21.52-19.53-26.45-.38-.17-.74-.37-1.08-.61-43.7-30.03-42.9-62.12-42.19-90.44.59-23.81 1.11-44.37-21.3-65.01-.15-.14-.3-.29-.44-.44-12.11-13.35-25.77-23.53-40.6-30.24-29.49-13.36-44.99-40.78-47.38-83.85-1.99-35.88 5.47-78.01 12.04-115.17 1.19-6.71 2.31-13.05 3.38-19.35.12-.71.35-1.39.68-2.03 20.24-39.3 46.88-73.94 79.17-102.95 1.6-1.43 3.76-2.06 5.87-1.69s3.94 1.68 4.96 3.57c7.5 13.87 25.77 21.46 40.02 16.65 1.12-.48 2.3-1.03 3.54-1.59 10.9-4.97 31.2-14.22 41.66 3.28.32.53.57 1.11.73 1.71 5.05 18.03-11.86 28.07-25.44 36.14-8.24 4.89-16.77 9.95-19.43 15.54-.27.57-.62 1.1-1.03 1.58-7.78 8.96-6.61 22.6-1.06 30.1 3.03 4.09 8.55 8.11 17.76 4.21 3.51-2.35 4.14-7.82 4.74-16.42.63-9.11 1.35-19.44 9.05-26.51 11.15-10.24 28-10.41 46.22-.46 24.9 13.6 48.84 43.89 44.78 67.3-1.33 7.69-7.11 21.16-30.85 24.91-63.9 10.09-88.26 38.69-96.52 113.34-1.32 11.89-8.89 14.28-12.08 14.75-10.54 1.56-23.7-9.36-29.06-20.56-8.96-9.4-20.51-10.38-27.62-7.22-3.45 1.53-9.09 5.45-8.13 14.52 2.19 20.84 12.63 23.67 24.71 26.95 8.86 2.41 19.9 5.4 21.89 18.09 5.72 36.42 36.82 43.61 69.74 51.22 16.66 3.85 33.88 7.83 47.02 16.03.14.09.28.18.42.28 6.73 4.91 10.12 12.87 13.11 19.89 3.4 7.99 5.75 12.86 9.64 13.2 27.88 2.44 60.8 14.48 71.47 35.87 3.94 7.89 6.52 20.67-3.52 36.75-1.62 2.6-5.15 7.37-10.04 13.96-11.2 15.13-28.13 37.99-40.96 59.91-19.85 33.91-16.78 43.51-15.36 45.64 15 22.58 18.79 35.44 12.68 43.01-1.56 1.93-4.63 4.42-10.11 4.42zm-3.85-14.84c1.07.38 1.94.6 2.61.72-.45-2.88-2.72-10.09-12.99-25.56-13.07-19.68 13.22-62.86 56.73-121.62 4.52-6.1 8.08-10.92 9.41-13.04 5.38-8.62 6.32-16.18 2.87-23.09-7.76-15.56-36.79-26.13-60.17-28.18-12.54-1.1-17.4-12.5-21.3-21.67-2.35-5.53-4.78-11.24-8.29-13.92-11.13-6.87-26.38-10.39-42.52-14.12-34.33-7.94-73.23-16.93-80.42-62.69-.49-3.1-2.46-4.23-11.73-6.75-12.65-3.43-31.77-8.62-34.97-39-1.33-12.68 4.94-23.7 16.38-28.78 14.4-6.39 32.66-1.69 44.42 11.42.51.57.92 1.21 1.22 1.91 3.13 7.29 11.35 13.3 14.32 13.42.16-.35.42-1.1.58-2.46 4.53-40.88 13.66-67.75 29.61-87.11 16.86-20.47 41.85-32.71 78.64-38.52 11.53-1.82 18-6.35 19.24-13.47 2.61-15.05-15.71-40.62-37.7-52.63-7.42-4.05-21.2-9.64-30.04-1.52-3.59 3.3-4.06 10.04-4.56 17.17-.67 9.6-1.5 21.55-11.88 27.69-.23.14-.48.26-.73.37-13.39 5.94-26.85 2.69-35.12-8.5-8.81-11.91-10.69-32.54 1.15-46.9 4.7-8.94 14.75-14.91 24.48-20.68 12.66-7.52 20.43-12.68 19.32-19.4-3.6-4.76-10.55-2.76-23.31 3.06-1.42.65-2.78 1.27-4.05 1.81-.15.07-.31.13-.47.18-18.03 6.27-39.77-.77-52.23-15.83-28.12 26.49-51.54 57.59-69.69 92.57-1.02 5.99-2.09 12.01-3.21 18.37-6.45 36.42-13.75 77.69-11.85 111.96 2.07 37.37 14.88 60.88 39.17 71.88 16.5 7.47 31.63 18.69 44.99 33.36 26.83 24.88 26.19 50.58 25.57 75.44-.67 27.05-1.31 52.6 35.64 78.21 14.75 6.89 24.04 19.4 26.91 36.22 15.86 52.3 36.8 88.2 63.97 109.67z" fill="#231f20"/><path d="M298.74 73.77c-7.24 35.32-7.36 84.23 11.62 84.23 21.57 0 62.96-36.75 81.34-56.67s-21.36-81.09-53.96-62.08c-32.6 19.02-39 34.51-39 34.51z" fill="#2fd1cd" fill-opacity="0.2"/><path d="M310.36 165c-5.37 0-10.14-2.37-13.8-6.86-14.08-17.26-9.21-63.66-4.68-85.78.09-.43.22-.86.39-1.27.75-1.81 8.28-18.25 41.95-37.88 13.78-8.04 28.15-5.19 38.44 7.61 13.63 16.97 18.3 50.25 3.65 66.13-4.57 4.96-9.33 10.98-14.37 17.35-15.82 20.01-32.19 40.69-51.57 40.69zm-4.94-88.94c-6.3 31.41-5.44 64.13 1.99 73.23 1.22 1.5 2.14 1.71 2.95 1.71 12.61 0 27.47-18.8 40.59-35.38 5.21-6.59 10.13-12.81 15.07-18.16 8.54-9.26 6.27-34.76-4.27-47.87-8.88-11.05-17.61-5.96-20.47-4.29-26.41 15.4-34.42 28.15-35.85 30.76z" fill="#231f20"/></g></g><g transform="translate(1342.5 1652.5) rotate(-33.856875820546506 770.0 428.75) scale(2.5061106789607126 2.5001749393543573)"><g><path d="M7 290.365c0-33.448 13.805-81.105 59.019-140.014 39.664-51.677 223.405-18.545 286.599-37.369s71.769 108.407 0 123.888c-38.872 8.385-134.657 22.433-159.249 47.455-14.54 14.795-24.159 42.864-24.159 42.864C77.535 359.997 7 290.365 7 290.365z" fill="#fff" fill-opacity="0.08"/><path d="M119.44 342.91c-22.969 0-46.116-5.169-68.624-15.464-29.875-13.665-47.977-31.353-48.733-32.099A6.999 6.999 0 0 1 0 290.365c0-29.879 10.49-79.163 60.466-144.276 26.764-34.871 106.144-34.25 182.91-33.646 43.36.34 84.315.662 107.243-6.168 16.251-4.843 31.255-1.479 42.245 9.467 16.381 16.315 21.959 47.688 13.564 76.293-8.042 27.403-27.118 46.239-52.335 51.679-6.916 1.492-15.414 3.123-25.254 5.011-41.793 8.021-111.742 21.444-130.478 40.508-13.231 13.463-22.439 39.964-22.531 40.23a7.004 7.004 0 0 1-4.262 4.318c-17.025 6.093-34.525 9.129-52.13 9.129zM14.039 287.331c5.416 4.802 20.874 17.521 43.043 27.586 35.71 16.212 71.588 18.479 106.699 6.745 3.101-8.136 12.001-29.427 24.596-42.243 21.796-22.177 88.858-35.047 137.825-44.444 9.756-1.872 18.182-3.489 24.941-4.947 27.444-5.919 38.002-28.815 41.853-41.936 6.904-23.523 2.694-49.779-10.01-62.432-7.395-7.366-16.94-9.374-28.369-5.969-24.938 7.428-66.912 7.1-111.35 6.751-69.923-.547-149.175-1.17-171.695 28.171C25.684 214.4 14.76 259.35 14.039 287.331z" fill="#231f20"/><path d="M66.019 150.351c25.54-29.278 56.507-66.608 89.264-82.982 54.594-27.29 121.682-39.257 165.066-53.884 43.263-14.586 64.539 21.513 37.648 47.06S267.851 90.9 243.116 128.417c-3.896 5.909-9.753 11.681-16.221 16.956" fill="#fff" fill-opacity="0.08"/><path d="M66.017 157.351a6.999 6.999 0 0 1-5.272-11.601c1.852-2.123 3.732-4.289 5.64-6.485 25.381-29.226 54.148-62.351 85.769-78.157 37.423-18.707 80.036-30.178 117.633-40.299 17.684-4.761 34.387-9.257 48.327-13.957 23.48-7.916 44.81-2.819 54.338 12.989 8.529 14.148 4.748 32.118-9.633 45.779-12.353 11.735-30.738 19.032-50.201 26.757-24.874 9.873-50.595 20.081-63.657 39.892-3.918 5.943-9.854 12.177-17.641 18.527a7 7 0 1 1-8.848-10.85c6.685-5.452 11.665-10.628 14.801-15.384 15.488-23.491 44.544-35.023 70.18-45.198 18.17-7.212 35.333-14.024 45.724-23.896 9.427-8.956 12.287-20.104 7.285-28.401-7.292-12.096-24.96-11.304-37.875-6.95-14.352 4.839-31.26 9.39-49.16 14.209-36.959 9.95-78.849 21.227-115.012 39.303-29.133 14.563-56.932 46.572-81.458 74.814a3927.293 3927.293 0 0 1-5.661 6.508 6.985 6.985 0 0 1-5.278 2.398z" fill="#231f20"/><path d="M369.903 146.079c41.681-12.101 80.495-14.91 97.974-24.322s52.705-44.025 75.105-57.178c41.55-24.398 71.308-1.933 57.862 15.939-5.829 7.748-68.466 79.911-91.324 93.842s-132.7 58.477-156.902 62.511" fill="#fff" fill-opacity="0.08"/><path d="M352.61 243.871a7 7 0 0 1-1.142-13.906c23.905-3.984 132.431-48.188 154.41-61.584 21.602-13.166 83.098-83.731 89.373-92.073 2.527-3.359 2.478-6.555-.148-9.499-5.594-6.272-23.73-10.786-48.576 3.804-10.893 6.397-25.259 18.35-39.152 29.909-13.867 11.538-26.966 22.436-36.179 27.396-10.598 5.707-26.848 8.904-47.422 12.952-15.743 3.097-33.587 6.608-51.919 11.93a7.001 7.001 0 0 1-3.903-13.445c18.926-5.494 37.092-9.068 53.12-12.222 18.647-3.668 34.751-6.837 43.487-11.541 7.976-4.295 20.55-14.757 33.862-25.833 14.325-11.919 29.138-24.243 41.018-31.219 30.233-17.753 55.464-12.99 66.113-1.051 7.044 7.897 7.393 18.587.888 27.234-4.905 6.52-68.436 80.472-93.274 95.611-23.519 14.333-134.018 59.209-159.395 63.438a7.034 7.034 0 0 1-1.159.096z" fill="#231f20"/><path d="M352.618 112.983c41.681-12.101 98.153-24.202 115.632-33.614s55.716-48.501 78.116-61.654c41.55-24.398 71.308-1.933 57.862 15.939-5.829 7.748-78.163 89.115-101.02 103.046-22.858 13.931-121.011 48.89-145.213 52.923" fill="#fff" fill-opacity="0.08"/><path d="M357.988 196.624a7 7 0 0 1-1.142-13.906c22.962-3.827 120.817-38.646 142.72-51.996 21.628-13.182 93.173-93.439 99.069-101.277 2.527-3.36 2.478-6.556-.148-9.499-5.594-6.272-23.729-10.786-48.576 3.804-10.891 6.395-26.103 19.567-40.813 32.306-14.554 12.603-28.3 24.506-37.53 29.476-12.267 6.605-41.067 14.064-71.558 21.962-15.405 3.99-31.334 8.116-45.441 12.211a6.999 6.999 0 0 1-8.674-4.771 7 7 0 0 1 4.771-8.674c14.302-4.152 30.332-8.304 45.834-12.319 28.344-7.341 57.653-14.933 68.431-20.736 7.87-4.238 21.663-16.182 35.002-27.732 15.188-13.151 30.893-26.75 42.889-33.794 30.233-17.752 55.463-12.989 66.112-1.051 7.044 7.898 7.393 18.588.888 27.235-6.365 8.461-78.888 90.137-102.971 104.815-23.901 14.567-122.393 49.632-147.705 53.851a7.034 7.034 0 0 1-1.159.096z" fill="#231f20"/></g></g><g transform="translate(1657.5 1652.5) rotate(33.693262012248965 -772.5 431.25) scale(-2.5142474019443513 2.51475321888412)"><g><path d="M7 290.365c0-33.448 13.805-81.105 59.019-140.014 39.664-51.677 223.405-18.545 286.599-37.369s71.769 108.407 0 123.888c-38.872 8.385-134.657 22.433-159.249 47.455-14.54 14.795-24.159 42.864-24.159 42.864C77.535 359.997 7 290.365 7 290.365z" fill="#fff" fill-opacity="0.08"/><path d="M119.44 342.91c-22.969 0-46.116-5.169-68.624-15.464-29.875-13.665-47.977-31.353-48.733-32.099A6.999 6.999 0 0 1 0 290.365c0-29.879 10.49-79.163 60.466-144.276 26.764-34.871 106.144-34.25 182.91-33.646 43.36.34 84.315.662 107.243-6.168 16.251-4.843 31.255-1.479 42.245 9.467 16.381 16.315 21.959 47.688 13.564 76.293-8.042 27.403-27.118 46.239-52.335 51.679-6.916 1.492-15.414 3.123-25.254 5.011-41.793 8.021-111.742 21.444-130.478 40.508-13.231 13.463-22.439 39.964-22.531 40.23a7.004 7.004 0 0 1-4.262 4.318c-17.025 6.093-34.525 9.129-52.13 9.129zM14.039 287.331c5.416 4.802 20.874 17.521 43.043 27.586 35.71 16.212 71.588 18.479 106.699 6.745 3.101-8.136 12.001-29.427 24.596-42.243 21.796-22.177 88.858-35.047 137.825-44.444 9.756-1.872 18.182-3.489 24.941-4.947 27.444-5.919 38.002-28.815 41.853-41.936 6.904-23.523 2.694-49.779-10.01-62.432-7.395-7.366-16.94-9.374-28.369-5.969-24.938 7.428-66.912 7.1-111.35 6.751-69.923-.547-149.175-1.17-171.695 28.171C25.684 214.4 14.76 259.35 14.039 287.331z" fill="#231f20"/><path d="M66.019 150.351c25.54-29.278 56.507-66.608 89.264-82.982 54.594-27.29 121.682-39.257 165.066-53.884 43.263-14.586 64.539 21.513 37.648 47.06S267.851 90.9 243.116 128.417c-3.896 5.909-9.753 11.681-16.221 16.956" fill="#fff" fill-opacity="0.08"/><path d="M66.017 157.351a6.999 6.999 0 0 1-5.272-11.601c1.852-2.123 3.732-4.289 5.64-6.485 25.381-29.226 54.148-62.351 85.769-78.157 37.423-18.707 80.036-30.178 117.633-40.299 17.684-4.761 34.387-9.257 48.327-13.957 23.48-7.916 44.81-2.819 54.338 12.989 8.529 14.148 4.748 32.118-9.633 45.779-12.353 11.735-30.738 19.032-50.201 26.757-24.874 9.873-50.595 20.081-63.657 39.892-3.918 5.943-9.854 12.177-17.641 18.527a7 7 0 1 1-8.848-10.85c6.685-5.452 11.665-10.628 14.801-15.384 15.488-23.491 44.544-35.023 70.18-45.198 18.17-7.212 35.333-14.024 45.724-23.896 9.427-8.956 12.287-20.104 7.285-28.401-7.292-12.096-24.96-11.304-37.875-6.95-14.352 4.839-31.26 9.39-49.16 14.209-36.959 9.95-78.849 21.227-115.012 39.303-29.133 14.563-56.932 46.572-81.458 74.814a3927.293 3927.293 0 0 1-5.661 6.508 6.985 6.985 0 0 1-5.278 2.398z" fill="#231f20"/><path d="M369.903 146.079c41.681-12.101 80.495-14.91 97.974-24.322s52.705-44.025 75.105-57.178c41.55-24.398 71.308-1.933 57.862 15.939-5.829 7.748-68.466 79.911-91.324 93.842s-132.7 58.477-156.902 62.511" fill="#fff" fill-opacity="0.08"/><path d="M352.61 243.871a7 7 0 0 1-1.142-13.906c23.905-3.984 132.431-48.188 154.41-61.584 21.602-13.166 83.098-83.731 89.373-92.073 2.527-3.359 2.478-6.555-.148-9.499-5.594-6.272-23.73-10.786-48.576 3.804-10.893 6.397-25.259 18.35-39.152 29.909-13.867 11.538-26.966 22.436-36.179 27.396-10.598 5.707-26.848 8.904-47.422 12.952-15.743 3.097-33.587 6.608-51.919 11.93a7.001 7.001 0 0 1-3.903-13.445c18.926-5.494 37.092-9.068 53.12-12.222 18.647-3.668 34.751-6.837 43.487-11.541 7.976-4.295 20.55-14.757 33.862-25.833 14.325-11.919 29.138-24.243 41.018-31.219 30.233-17.753 55.464-12.99 66.113-1.051 7.044 7.897 7.393 18.587.888 27.234-4.905 6.52-68.436 80.472-93.274 95.611-23.519 14.333-134.018 59.209-159.395 63.438a7.034 7.034 0 0 1-1.159.096z" fill="#231f20"/><path d="M352.618 112.983c41.681-12.101 98.153-24.202 115.632-33.614s55.716-48.501 78.116-61.654c41.55-24.398 71.308-1.933 57.862 15.939-5.829 7.748-78.163 89.115-101.02 103.046-22.858 13.931-121.011 48.89-145.213 52.923" fill="#fff" fill-opacity="0.08"/><path d="M357.988 196.624a7 7 0 0 1-1.142-13.906c22.962-3.827 120.817-38.646 142.72-51.996 21.628-13.182 93.173-93.439 99.069-101.277 2.527-3.36 2.478-6.556-.148-9.499-5.594-6.272-23.729-10.786-48.576 3.804-10.891 6.395-26.103 19.567-40.813 32.306-14.554 12.603-28.3 24.506-37.53 29.476-12.267 6.605-41.067 14.064-71.558 21.962-15.405 3.99-31.334 8.116-45.441 12.211a6.999 6.999 0 0 1-8.674-4.771 7 7 0 0 1 4.771-8.674c14.302-4.152 30.332-8.304 45.834-12.319 28.344-7.341 57.653-14.933 68.431-20.736 7.87-4.238 21.663-16.182 35.002-27.732 15.188-13.151 30.893-26.75 42.889-33.794 30.233-17.752 55.463-12.989 66.112-1.051 7.044 7.898 7.393 18.588.888 27.235-6.365 8.461-78.888 90.137-102.971 104.815-23.901 14.567-122.393 49.632-147.705 53.851a7.034 7.034 0 0 1-1.159.096z" fill="#231f20"/></g></g></svg>