<?xml version="1.0" encoding="UTF-8"?>
<svg id="_Слой_1" data-name="Слой 1" xmlns="http://www.w3.org/2000/svg" viewBox="0 0 1358.105 700.051">
  <path d="M201.826,59.468c-17.873,14.754-29.218,37.097-35.879,62.191-11.448,43.127,10.913,94.235,59.145,115.394l-10.673,26.485,10.26,23.666,10.723,2.265,56.133,10.958,25.001-40.017,2.35.802c38.37,17.053,70.182,18.203,89.53-4.21,6.562-7.602,6.9-39.957,12.046-52.331,15.033-11.344,15.365-17,11.557-22.33-3.318-6.418-15.843-17.381-22.427-32.145-1.134-5.039-2.033-10.606-2.681-16.7l-.013-2.946s10.406-.341,13.878-11.63c18.785-61.081-52.835-93.387-104.256-97.83-47.761-4.126-86.323,14.296-99.113,25.665l-15.58,12.713Z" style="fill: #fff; fill-opacity:0.08;"/>
  <path d="M406.583,236.626c-14.417,0-25.517-9.985-29.451-20.921-1.309-3.638.58-7.647,4.218-8.956,3.638-1.308,7.648.581,8.956,4.218,2.367,6.581,9.827,12.83,18.993,11.453,3.826-.577,7.388,2.058,7.963,5.88.575,3.823-2.058,7.388-5.88,7.963-1.634.246-3.237.363-4.799.363Z" style="fill: #241f20;"/>
  <path d="M327.617,233.912c-21.818,0-35.4-16.789-37.183-33.089-1.291-11.793,1.212-20.414,7.438-25.622,3.922-3.282,10.958-6.414,22.758-3.94,5.085-5.526,13.033-16.116,13.574-25.864.818-14.72-1.385-20.742-1.407-20.801l.058.142,12.868-5.515c.585,1.365,3.452,9.078,2.459,26.951-1.097,19.745-19.841,37.26-20.639,37.996-1.81,1.67-4.364,2.268-6.726,1.57-6.45-1.9-11.541-1.828-13.964.2-2.343,1.96-3.232,6.705-2.504,13.361,1.171,10.706,9.961,21.224,24.532,20.583,3.858-.154,7.129,2.829,7.296,6.691.167,3.862-2.829,7.129-6.691,7.296-.629.027-1.254.041-1.871.041Z" style="fill: #241f20;"/>
  <path d="M217.117,53.117c-2.543,0-4.997-1.391-6.236-3.81-5.912-11.538-4.432-24.134,3.861-32.872,2.661-2.804,7.091-2.921,9.896-.258,2.804,2.661,2.92,7.092.258,9.896-4.143,4.365-4.725,10.665-1.555,16.851,1.763,3.441.402,7.659-3.038,9.422-1.022.523-2.112.771-3.186.771Z" style="fill: #241f20;"/>
  <path d="M176.004,66.71c-2.218,0-4.399-1.051-5.759-3.012-2.203-3.177-1.414-7.538,1.764-9.741,18.189-12.614,29.529-5.388,34.668.043,2.658,2.808,2.536,7.238-.272,9.896-2.807,2.657-7.238,2.536-9.896-.272-1.503-1.588-5.495-5.807-16.522,1.839-1.216.843-2.606,1.248-3.982,1.248Z" style="fill: #241f20;"/>
  <path d="M214.417,270.541c-.871,0-1.756-.164-2.614-.509-3.585-1.445-5.321-5.523-3.876-9.109l8.211-20.376c-45.073-23.089-69.403-73.791-56.956-120.683,7.73-29.121,20.578-51.257,38.188-65.794,2.981-2.461,7.393-2.04,9.854.942,2.461,2.981,2.039,7.393-.942,9.854-15.31,12.638-26.604,32.351-33.569,58.589-11.247,42.369,12.48,88.45,55.191,107.188,3.465,1.52,5.095,5.518,3.681,9.026l-10.673,26.486c-1.1,2.728-3.724,4.385-6.495,4.385Z" style="fill: #241f20;"/>
  <path d="M406.894,137.55c-3.618,0-6.658-2.769-6.971-6.399-.871-10.104-.485-19.091,1.179-27.476.753-3.792,4.437-6.258,8.229-5.503,3.792.753,6.256,4.437,5.503,8.229-.765,3.852-1.207,7.793-1.333,11.994.216-.467.412-.977.583-1.533,5.062-16.458,3.096-31.527-5.843-44.787-17.817-26.432-59.208-41.15-92.325-44.011-44.452-3.843-81.162,12.636-93.86,23.923-2.889,2.567-7.313,2.309-9.882-.582-2.568-2.889-2.308-7.314.582-9.882,15.012-13.344,55.196-31.654,104.366-27.407,36.434,3.148,82.328,19.87,102.729,50.133,11.42,16.941,13.982,36.027,7.616,56.728-3.9,12.681-14.62,16.382-20.339,16.569-.078.003-.155.004-.232.004Z" style="fill: #241f20;"/>
  <ellipse cx="386.209" cy="153.228" rx="6.462" ry="7.1" style="fill: #231f20;"/>
  <path d="M266.646,242.41c-2.521,0-4.956-1.366-6.207-3.753-1.794-3.425-.472-7.655,2.953-9.449,13.869-7.265,21.763-28.246,21.841-28.457,1.34-3.622,5.361-5.48,8.986-4.144,3.624,1.335,5.484,5.348,4.154,8.973-.391,1.067-9.795,26.239-28.486,36.029-1.037.543-2.147.801-3.242.801Z" style="fill: #241f20;"/>
  <path d="M192.732,176.361c-2.054,0-4.088-.899-5.471-2.628l-6.29-7.863c-.169-.211-.326-.433-.47-.663-9.531-15.248-2.55-35.808-2.248-36.675,1.27-3.652,5.259-5.584,8.911-4.312,3.645,1.268,5.575,5.246,4.318,8.892h0c-1.409,4.128-3.982,16.441.7,24.361l6.011,7.515c2.415,3.019,1.925,7.424-1.094,9.839-1.291,1.032-2.834,1.534-4.368,1.534Z" style="fill: #241f20;"/>
  <path d="M232.832,184.468c-.694,0-1.399-.104-2.097-.323l-9.608-3.013c-.259-.081-.512-.177-.76-.288-16.419-7.333-22.102-28.288-22.336-29.176-.984-3.739,1.249-7.567,4.987-8.552,3.731-.983,7.554,1.241,8.546,4.968h0c1.135,4.212,5.873,15.864,14.178,19.823l9.182,2.879c3.689,1.157,5.741,5.085,4.584,8.774-.938,2.992-3.7,4.907-6.677,4.907Z" style="fill: #241f20;"/>
  <path d="M357.654,138.479c-1.792,0-3.583-.684-4.95-2.05-2.734-2.733-2.734-7.166,0-9.899,3.037-3.037,5.212-14.804,1.351-37.976-.636-3.813,1.94-7.42,5.754-8.056,3.816-.638,7.42,1.94,8.056,5.754,4.258,25.546,2.488,42.428-5.261,50.177-1.367,1.367-3.158,2.05-4.95,2.05Z" style="fill: #241f20;"/>
  <path d="M384.722,127.665c-1.654,0-3.314-.583-4.647-1.768-2.89-2.568-3.15-6.993-.583-9.882,3.039-3.419,3.028-17.151-3.214-28.39-1.877-3.379-.659-7.641,2.721-9.518,3.378-1.877,7.641-.66,9.518,2.721,8.689,15.646,9.335,35.603,1.439,44.487-1.383,1.556-3.305,2.35-5.235,2.35Z" style="fill: #241f20;"/>
  <path d="M284.026,329.449c-1.095,0-2.206-.258-3.243-.801-3.425-1.794-4.746-6.025-2.952-9.449l32.504-62.037c1.603-3.058,5.196-4.491,8.462-3.376l2.35.802c.197.067.391.143.581.228,38.042,16.908,65.426,16.104,81.388-2.388,2.336-2.707,4.303-16.432,5.477-24.633,1.44-10.055,2.801-19.551,5.404-25.812.478-1.149,1.253-2.15,2.247-2.9,7.847-5.921,10.02-9.163,10.617-10.569.276-.65.359-.846-.54-2.104-.194-.272-.369-.558-.522-.854-.888-1.718-3.341-4.665-5.938-7.785-5.125-6.156-12.144-14.587-16.664-24.724-.188-.423-.334-.863-.436-1.314-1.198-5.323-2.144-11.21-2.812-17.497-.409-3.844,2.376-7.292,6.221-7.701,3.837-.4,7.292,2.376,7.701,6.221.583,5.479,1.388,10.592,2.396,15.212,3.749,8.107,9.617,15.155,14.354,20.846,3.203,3.848,5.766,6.927,7.376,9.864,9.037,13.236-3.814,24.307-11.677,30.334-1.6,4.928-2.751,12.967-3.868,20.768-2.316,16.168-4.06,26.377-8.738,31.796-10.687,12.38-25.071,18.883-42.754,19.329-14.745.377-31.934-3.55-51.149-11.663l-29.578,56.453c-1.251,2.388-3.686,3.753-6.207,3.753Z" style="fill: #241f20;"/>
  <path d="M226.309,272.003s14.816,8.137,35.398,14.08c16.602,4.794,48.441,1.681,48.441,1.681,0,0,26.013,18.908,38.973,54.908,12.96,36-12.581,88.851-14.021,111.891-1.44,23.04-26.64,96.48-39.6,135.36-12.96,38.88-21.6,95.76-31.68,102.24-13.046,8.387-93.155,21.416-161.28-30.24-94.955-72-83.172-105.463-80.152-115.719,2.392-8.121,34.278-41.76,60.198-74.88s71.997-136.803,84.96-152.64c21.781-26.611,58.762-46.682,58.762-46.682Z" style="fill: #2fd1cd; fill-opacity:0.2;"/>
  <g>
    <g>
      <g>
        <path d="M391.471,533.57c3.921,3.275,109.551,10.209,137.364,6.815,31.789-3.879,36.352-74.11-1.504-57.194-37.997-5.79-117.027-22.142-117.027-22.142-26.509,28.073-35.13,46.954-18.48,73.456l-.352-.936Z" style="fill: #fff; fill-opacity:0.08;"/>
        <path d="M506.139,548.3c-20.761,0-45.827-1.295-55.341-1.833-15.21-.861-29.699-1.928-40.798-3.006-8.401-.816-13.503-1.491-16.724-2.106-2.811.598-5.788-.589-7.381-3.125-19.414-30.901-7.618-53.461,19.318-81.986,1.667-1.766,4.129-2.542,6.508-2.049.775.161,76.646,15.835,114.728,21.777,13.586-5.315,21.913-.594,25.751,2.817,10.334,9.185,10.702,26.937,6.482,40.455-4.989,15.981-15.83,26.482-28.999,28.089-5.787.706-14.233.967-23.544.967ZM395.871,527.623c14.708,2.9,105.852,9.019,132.116,5.814,11.188-1.366,16.094-14.401,17.332-18.364,3.243-10.39,2.181-21.731-2.419-25.819-2.658-2.362-6.936-2.252-12.713.329-1.226.547-2.582.733-3.91.529-32.933-5.018-97.168-18.061-113.531-21.413-23.227,25.281-27.5,39.949-16.874,58.925Z" style="fill: #241f20;"/>
      </g>
      <g>
        <path d="M528.835,540.386c11.51,14.424,58.489,24.012,68.01,26.467,9.522,2.455,46.678,11.625,55.994,12.733,9.317,1.108,16.608-7.693,5.877-14.36-6.607-4.105-27.784-13.171-27.784-13.171,21.254,2.701,37.679,2.008,44.026,1.921,13.061-.179,17.662-17.211,4.222-20.692,13.585-.344,21.522-18.742-.632-24.019-14.576-3.472-59.882-11.556-69.289-13.765-17.621-4.139-56.031-32.25-81.93-12.307" style="fill: #fff; fill-opacity:0.08;"/>
        <path d="M654.43,586.68c-.797,0-1.604-.047-2.417-.144-10.403-1.237-50.053-11.136-56.916-12.906-1.071-.276-2.632-.645-4.57-1.104-27.435-6.494-56.868-14.873-67.164-27.775-2.411-3.022-1.916-7.426,1.105-9.838,3.022-2.412,7.425-1.917,9.838,1.105,8.669,10.864,46.887,19.911,59.446,22.884,2.053.486,3.706.878,4.841,1.171,12.311,3.175,46.768,11.572,55.073,12.56,1.261.151,2.232-.081,2.85-.351-.331-.308-.813-.69-1.493-1.112-5.047-3.136-21.089-10.218-26.845-12.682-3.209-1.374-4.916-4.903-4-8.271.917-3.369,4.178-5.546,7.637-5.108,18.538,2.356,33.511,2.054,40.707,1.909.888-.018,1.67-.034,2.342-.043,3.603-.049,5.199-2.459,5.393-4.067.074-.614.247-2.052-2.832-2.85-3.378-.875-5.596-4.105-5.199-7.573.397-3.467,3.289-6.113,6.777-6.201,3.819-.097,6.201-2.731,6.388-4.515.225-2.148-3.177-4.438-8.464-5.697-8.055-1.919-25.912-5.318-41.667-8.317-12.528-2.385-23.348-4.444-27.601-5.443-5.174-1.215-11.291-3.957-18.374-7.132-18.6-8.337-41.748-18.716-57.685-6.442-3.063,2.358-7.458,1.788-9.817-1.275-2.358-3.063-1.788-7.458,1.275-9.817,22.569-17.377,52.288-4.055,71.953,4.76,6.16,2.762,11.978,5.37,15.849,6.279,3.962.931,15.161,3.062,27.018,5.319,15.902,3.027,33.926,6.458,42.292,8.451,15.335,3.653,19.944,13.126,19.144,20.773-.497,4.748-3.023,9.024-6.736,12.107,1.399,2.739,1.981,5.898,1.577,9.249-.967,8.028-7.839,16.237-19.102,16.391-.646.009-1.398.024-2.25.041-2.036.041-4.668.094-7.811.101,6.138,5.016,6.891,11.158,5.352,15.551-2.119,6.043-8.597,10.013-15.915,10.013Z" style="fill: #241f20;"/>
      </g>
      <g>
        <path d="M527.331,483.192c13.785-15.459,73.926-24.791,90.667-27.604,16.741-2.812,13.014,18.559-7.066,25.405-12.155,4.144-25.589,10.532-25.589,10.532,0,0-14.953,20.584-27.867,20.923" style="fill: #fff; fill-opacity:0.08;"/>
        <path d="M557.473,519.449c-3.781,0-6.895-3.014-6.994-6.816-.102-3.865,2.949-7.08,6.814-7.181,6.49-.17,17-10.654,22.391-18.045.687-.941,1.602-1.702,2.654-2.202.563-.268,13.942-6.61,26.336-10.836,9.102-3.104,12.874-9.597,12.918-11.985-.452-.066-1.25-.091-2.434.108l-2.674.445c-48.067,7.982-76.305,16.364-83.928,24.914-2.572,2.886-6.998,3.139-9.883.566-2.885-2.573-3.139-6.998-.566-9.883,13.095-14.687,56.09-23.431,92.084-29.407l2.648-.441c11.183-1.876,16.839,4.118,18.281,9.825,2.42,9.579-5.275,23.431-21.928,29.109-9.287,3.167-19.489,7.753-23.297,9.509-4.54,5.917-18.124,21.948-32.233,22.318-.062.001-.125.002-.187.002Z" style="fill: #241f20;"/>
      </g>
      <path d="M681.779,540.174c-.682,0-1.374-.1-2.06-.311-10.362-3.186-54.445-9.049-70.557-11.04-3.836-.474-6.563-3.969-6.089-7.806.474-3.836,3.968-6.564,7.806-6.089,2.415.298,59.3,7.354,72.954,11.552,3.695,1.136,5.77,5.053,4.634,8.748-.925,3.01-3.696,4.945-6.688,4.945Z" style="fill: #241f20;"/>
      <g>
        <line x1="606.719" y1="542.785" x2="644.584" y2="557.254" style="fill: #fff; fill-opacity:0.08;"/>
        <path d="M644.583,564.256c-.831,0-1.675-.149-2.497-.463l-37.865-14.469c-3.611-1.38-5.42-5.426-4.041-9.038,1.38-3.611,5.427-5.42,9.038-4.041l37.865,14.469c3.611,1.38,5.42,5.426,4.041,9.038-1.066,2.789-3.723,4.503-6.541,4.503Z" style="fill: #241f20;"/>
      </g>
    </g>
    <g>
      <path d="M491.782,471.02s24.981,26.654-16.431,76.494c-60.006,2.809-170.01-50.444-170.01-50.444l26.425-92.528c35.543,29.12,93.033,49.656,160.016,66.478Z" style="fill: #2fd1cd; fill-opacity:0.2;"/>
      <path d="M470.66,554.62c-61.772,0-163.935-49.103-168.37-51.25-3.062-1.482-4.615-4.951-3.681-8.223l26.425-92.528c.647-2.267,2.392-4.055,4.642-4.758,2.249-.704,4.702-.229,6.525,1.266,30.745,25.188,80.723,45.875,157.285,65.104,1.303.327,2.484,1.022,3.402,2.002,1.192,1.272,28.691,31.783-16.155,85.754-1.257,1.513-3.092,2.427-5.057,2.519-1.636.077-3.317.114-5.018.114ZM313.708,493.263c22.073,10.188,107.569,48.042,158.236,47.35,29.315-36.685,19.446-57.819,15.763-63.402-70.92-17.969-119.702-37.458-152.039-60.842l-21.96,76.894Z" style="fill: #241f20;"/>
    </g>
  </g>
  <g>
    <path d="M948.087,280.004c38.455,30.748,38.764,25.02,30.142,61.261-12.62,53.051,11.023,73.019,6.641,116.141-3.894,38.329-54.331,97.475-90.402,86.552,1.957-21.512-23.64-75.303-57.76-73.195-15.861-34.831,41.515-65.003,42.023-89.479l11.673-64.378,31.528-27.229,26.154-9.673Z" style="fill: #fff; fill-opacity:0.08;"/>
    <path d="M972.283,269.998c15.841,21.973,19.746,45.157,13.127,72.979-6.769,28.451-2.595,46.359,1.824,65.317,3.44,14.757,6.996,30.016,4.98,49.862-2.824,27.79-26.879,64.111-54.764,82.689-16.094,10.722-31.694,14.241-45.116,10.177-3.353-1.015-5.531-4.247-5.214-7.736.983-10.808-7.473-35.999-23.476-52.476-5.985-6.161-15.436-13.362-26.477-12.681-3.052.187-5.905-1.526-7.174-4.31-5.051-6.984,3.504-13.452,11.714-10.377,11.316.895,22.459,6.725,32.52,17.084,15.9,16.374,26.103,40.846,27.542,57.312,9.947.721,20.188-4.413,27.493-9.281,23.814-15.867,45.918-48.794,48.267-71.903,1.768-17.398-1.359-30.814-4.67-45.018-4.612-19.79-9.381-40.253-1.808-72.086,8.326-34.997-2.082-59.551-37.125-87.569-3.15-2.588-3.608-7.24-1.021-10.39,2.538-3.091,7.077-3.596,10.235-1.138,12.271,9.811,21.942,19.553,29.144,29.543h.002Z" style="fill: #241f20;"/>
    <g>
      <path d="M836.708,470.763s-86.151,54.428-116.316,62.296c-30.166,7.868-12.509,77.26,27.21,60.192,39.718-17.067,113.101-30.503,146.868-49.292-1.08-32.37-29.753-75.401-57.76-73.195h-.001Z" style="fill: #fff; fill-opacity:0.08;"/>
      <path d="M735.42,602.939c-7.455,0-14.482-2.551-20.57-7.591-12.608-10.44-19.344-30.811-15.669-47.384,2.484-11.202,9.572-19.104,19.444-21.678,28.772-7.504,113.492-60.902,114.344-61.44.961-.607,2.056-.971,3.189-1.061,11.047-.866,22.583,3.772,33.375,13.419,18.032,16.119,31.163,43.474,31.932,66.521.087,2.623-1.299,5.074-3.592,6.35-19.532,10.868-51.382,19.882-82.183,28.6-23.678,6.702-48.162,13.631-65.326,21.007-5.066,2.177-10.097,3.257-14.945,3.257ZM838.856,477.681c-12.309,7.719-87.777,54.607-116.698,62.15-4.813,1.255-7.945,5.011-9.31,11.163-2.533,11.423,2.37,26.482,10.93,33.57,5.965,4.938,13.05,5.696,21.059,2.255,18.001-7.735,42.932-14.791,67.041-21.615,27.97-7.916,56.826-16.083,75.283-25.307-2.029-18.354-12.908-39.699-26.958-52.257-5.165-4.617-12.938-9.936-21.347-9.959Z" style="fill: #241f20;"/>
    </g>
    <path d="M843.189,506.413c10.583,14.681,18.904,34.501,18.11,54.016-.127,4.074-3.533,7.272-7.607,7.143-4.074-.129-7.273-3.537-7.145-7.611.001-.046.003-.092.006-.138.844-20.756-11.688-42.849-23.691-54.592-6.877-6.73-12.312-8.94-15.104-8.765-4.066.256-7.572-2.834-7.83-6.901,0-.001,0-.003,0-.004-.257-4.068,2.832-7.573,6.9-7.828,10.192-.639,19.957,6.689,26.354,12.948,3.416,3.343,6.815,7.305,10.008,11.734h0Z" style="fill: #241f20;"/>
  </g>
  <g>
    <g>
      <path d="M948.934,290.905c24.976-3.475,52.394-3.424,52.394-3.424l87.539-20.469s52.299-13.955,71.412-20.597c19.113-6.643,90.342,162.091,28.195,183.88,2.271,36.415,10.901,91.241,38.4,129.46,19.902,64.681-236.821,112.58-241.218,49.926-3.296-46.948-19.866-92.665-47.794-125.264-24.579-28.69-29.902-54.123-13.031-111.887" style="fill: #fff; fill-opacity:0.08;"/>
      <path d="M1053.421,645.986c-19.645,0-37.175-2.333-50.15-7.476-19.221-7.619-23.984-19.616-24.597-28.338-3.273-46.626-20.087-90.802-46.127-121.2-27.672-32.3-31.179-61.07-14.435-118.403,1.083-3.711,4.97-5.841,8.682-4.757,3.711,1.084,5.841,4.971,4.757,8.682-17.002,58.215-9.797,80.361,11.629,105.37,27.953,32.63,45.981,79.768,49.46,129.328.18,2.556.726,10.332,15.791,16.303,21.286,8.438,61.008,8.623,103.662.481,42.921-8.192,80.463-23.335,97.977-39.519,8.885-8.209,12.293-15.953,10.395-23.636-29.314-41.531-37.004-100.484-38.975-132.089-.195-3.128,1.713-6.004,4.67-7.042,13.201-4.628,20.016-18.411,20.253-40.965.239-22.79-6.505-53.095-18.504-83.145-12.045-30.166-22.73-43.736-26.539-46.137-19.972,6.782-68.595,19.773-70.696,20.333-.07.019-.141.037-.211.053l-87.539,20.469c-.522.122-1.058.184-1.594.184-.009,0-.008,0-.037,0-.952,0-27.533.038-51.392,3.357-3.833.527-7.366-2.139-7.898-5.968s2.14-7.365,5.969-7.898c23.047-3.207,47.674-3.469,52.545-3.489l86.651-20.261c2.625-.702,52.565-14.076,70.815-20.418,10.279-3.574,19.791,9.65,26.052,19.908,7.679,12.582,15.418,29.568,21.792,47.827,9.745,27.917,14.921,54.928,14.575,76.059-.512,31.243-12.721,45.096-24.602,51.163,2.366,31.262,10.329,84.175,36.758,120.907.443.617.784,1.303,1.008,2.03,2.854,9.274,2.742,23.576-13.994,39.042-31.049,28.691-107.864,49.245-166.149,49.247Z" style="fill: #241f20;"/>
    </g>
    <path d="M1004.131,287.523c15.789,31.786,66.334,20.895,82.719-19.342l32.965-4.159c1.893,10.928.766,21.501-4.174,31.621,17.801-9.159,35.396-15.933,52.844-20.993l34.019-6.62s37.465-57.656-19.598-106.773c-25.498-21.948-13.58-60.423-31.667-97.112C1119.816.401,1017.416-4.794,967.937,27.942c-52.033,34.425-25.408,76.713-25.408,76.713-16.055,23.513-24.65,41.031-26.624,69.105,0,0-50.779,53.587-15.003,120.822,8.603,16.169,43.257,21.29,43.257,21.29l38.021-7.454c.2-12.262,8.076-18.812,21.95-20.895Z" style="fill: #fff; fill-opacity:0.08;"/>
    <path d="M1002.319,267.718c-30.659,0-62.921-11.4-82.171-40.328-27.1-40.724-5.037-107.078,30.947-145.202,2.798-2.964,7.47-3.1,10.436-.303s3.101,7.466.303,10.43c-27.992,29.656-53.78,90.257-29.393,126.904,26.474,39.783,78.062,36.366,101.643,29.001,3.88-1.253,8.041.875,9.294,4.753,1.253,3.878-.875,8.037-4.755,9.289-.045.015-.09.029-.135.042-11.092,3.465-23.495,5.414-36.169,5.414h.001Z" style="fill: #241f20;"/>
    <circle cx="965.402" cy="145.917" r="7.101" style="fill: #231f20;"/>
    <circle cx="1013.241" cy="153.014" r="7.101" style="fill: #231f20;"/>
    <g>
      <path d="M999.077,225.78c-8.119,0-15.61-2.225-21.298-6.45-3.266-2.439-3.936-7.062-1.496-10.327,2.431-3.252,7.034-3.931,10.3-1.518,4.252,3.157,11.02,4.292,18.109,3.031,6.793-1.207,12.622-4.412,15.214-8.366,2.266-3.388,6.85-4.299,10.24-2.034,3.346,2.235,4.284,6.736,2.11,10.121-4.817,7.349-14.156,12.885-24.98,14.806-2.706.485-5.45.731-8.199.735v.002ZM1000.216,119.173c-1.947.003-3.815-.766-5.196-2.138-9.347-9.257-13.835-20.196-12.979-31.634.973-13.013,8.885-25.572,22.276-35.364,3.291-2.406,7.91-1.69,10.317,1.599,2.407,3.289,1.691,7.906-1.6,10.312h0c-9.846,7.199-15.624,15.918-16.27,24.553-.53,7.096,2.378,13.842,8.649,20.051,2.896,2.868,2.917,7.54.047,10.435-1.386,1.398-3.274,2.185-5.243,2.185h0ZM1046.702,122.491c-1.867.002-3.666-.706-5.03-1.98-15.32-14.263-16.755-40.272-3.133-56.793,2.593-3.145,7.246-3.593,10.392-1.001,3.146,2.592,3.595,7.242,1.002,10.387h0c-9.602,11.646-6.757,28.642,1.802,36.612,2.983,2.778,3.149,7.446.37,10.428-1.397,1.499-3.354,2.35-5.403,2.349h.001Z" style="fill: #241f20;"/>
      <path d="M1204.241,267.646c-4.078-.006-7.38-3.315-7.374-7.391.002-1.484.452-2.933,1.29-4.157,20.645-30.125,13.896-60.15-20.055-89.24-15.302-13.111-17.497-30.755-19.82-49.436-1.878-15.1-4.007-32.216-13.531-49.759-12.49-23.01-35.261-40.086-64.116-48.084-35.758-9.91-76.486-4.409-108.949,14.718-23.167,13.65-31.223,33.849-28.928,47.812.819,4.987,3.119,8.833,5.593,9.353,3.99.838,6.545,4.75,5.706,8.738-.838,3.988-4.753,6.541-8.743,5.703-8.695-1.827-15.258-10.027-17.126-21.403-2.882-17.541,4.817-44.543,36-62.915,35.845-21.12,80.853-27.185,120.392-16.226,32.751,9.078,58.729,28.704,73.148,55.266,10.854,19.993,13.165,38.578,15.205,54.976,2.131,17.128,3.813,30.658,14.779,40.053,20.263,17.361,32.321,35.762,35.841,54.689,3.379,18.168-1.067,36.367-13.215,54.093-1.377,2.012-3.659,3.213-6.098,3.21h-.001Z" style="fill: #241f20;"/>
      <path d="M1168.489,282.028c-4.077.001-7.383-3.301-7.385-7.376,0-2.174.957-4.237,2.619-5.64,11.22-9.469,15.801-19.274,14.417-30.86-.454-4.05,2.462-7.701,6.513-8.155,4.011-.45,7.64,2.404,8.146,6.406,1.971,16.506-4.607,31.271-19.554,43.883-1.33,1.125-3.016,1.742-4.758,1.74h.001ZM904.925,307.061c-2.105.003-4.111-.895-5.511-2.466-12.863-14.411-20.155-37.217-19.509-61.003.736-27.083,11.568-53.631,30.501-74.755,2.721-3.035,7.388-3.292,10.425-.572,3.037,2.719,3.293,7.384.573,10.419h0c-37.461,41.796-30.442,94.275-10.972,116.088,2.714,3.042,2.446,7.707-.598,10.419-1.351,1.204-3.097,1.87-4.907,1.871h-.001Z" style="fill: #241f20;"/>
      <path d="M944.157,323.251c-1.081,0-2.148-.238-3.127-.697-19.194-8.981-28.911-23.989-28.88-44.611.006-4.07,3.31-7.367,7.382-7.367h.012c4.077.006,7.377,3.315,7.372,7.39-.012,7.951,1.854,14.495,5.746,19.859.091-5.741,1.333-12.188,4.76-18.785,1.896-3.608,6.359-4.996,9.968-3.101,3.585,1.882,4.984,6.3,3.135,9.901-7.033,13.539-.007,26.278.064,26.404,2.006,3.546.756,8.046-2.792,10.051-1.11.627-2.363.956-3.638.955h-.002ZM1035.41,313.111c-19.751,0-34.829-9.328-38.442-23.803-.146-.584-.219-1.184-.219-1.786v-27.275c0-4.075,3.305-7.378,7.382-7.378s7.382,3.303,7.382,7.378v26.263c2.785,8.729,14.474,11.844,23.915,11.844h.144c17.061-.058,37.674-9.543,43.646-30.186-4.582-19.121.149-46.853.36-48.065.545-3.131,3.034-5.561,6.178-6.032,20.187-3.027,25.011-14.991,26.147-19.994,1.724-7.587-.885-13.935-4.352-16.283-3.798-2.572-8.666-.308-12.082,2.043-2.468,1.697-5.716,1.737-8.225.1-1.307-.854-31.914-21.322-24.732-58.652.769-4.001,4.638-6.621,8.641-5.852h.002c4.004.77,6.625,4.638,5.855,8.639-4.075,21.179,8.466,35.198,14.86,40.799,8.514-4.179,17.034-3.984,23.961.706,9.169,6.209,13.375,18.975,10.469,31.768-3.418,15.045-15.546,26.079-32.899,30.259-1.119,8.681-2.815,26.791.547,38.551.351,1.227.378,2.524.077,3.764-7.168,29.565-35.3,43.115-58.404,43.193h-.211v-.002Z" style="fill: #241f20;"/>
      <path d="M1115.641,303.021c-4.077,0-7.382-3.303-7.383-7.378,0-1.08.237-2.146.694-3.125,1.562-3.375,4.731-12.257,4.644-20.275l-25.823,3.258c-4.039.554-7.763-2.27-8.316-6.308-.554-4.037,2.272-7.759,6.311-8.312.052-.007.105-.014.157-.02l32.965-4.159c3.571-.451,6.947,1.738,7.99,5.181,1.973,6.508,1.752,13.473.728,19.59,9.717-6.759,17.513-16.177,19.649-23.318,1.129-3.916,5.219-6.176,9.137-5.048,3.918,1.128,6.179,5.217,5.05,9.132-.014.047-.028.094-.042.141-4.272,14.283-22.803,33.89-43.582,40.311-.706.218-1.441.329-2.18.33h0ZM982.181,315.795c-.966,0-1.924-.19-2.817-.559-15.025-6.202-21.868-22.227-21.868-34.492,0-4.075,3.305-7.378,7.382-7.378s7.382,3.303,7.382,7.378c0,4.835,1.827,10.62,5.309,15.054,4.035-7.955,12.468-13.161,25.213-15.53,4.008-.745,7.862,1.899,8.608,5.905.745,4.006-1.9,7.858-5.908,8.603-13.255,2.465-15.918,7.047-15.918,13.641,0,4.075-3.305,7.378-7.382,7.378h-.001Z" style="fill: #241f20;"/>
    </g>
  </g>
  <path d="M829.306,480.564c-.822,0-1.658-.146-2.472-.454-3.617-1.366-5.441-5.405-4.075-9.021,1.528-4.046,2.715-8.676,3.972-13.577,2.543-9.919,5.174-20.177,11.253-28.53,5.451-7.488,11.396-13.119,17.147-18.563,9.734-9.217,17.422-16.498,19.866-29.851,1.222-6.676,1.871-14.075,2.557-21.907,2.446-27.9,5.489-62.622,40.382-73.992,3.677-1.196,7.627.812,8.825,4.487,1.198,3.676-.811,7.627-4.487,8.825-26.092,8.502-28.365,34.441-30.773,61.903-.716,8.168-1.392,15.884-2.732,23.205-3.268,17.854-13.813,27.839-24.012,37.496-5.291,5.009-10.761,10.189-15.454,16.637-4.503,6.187-6.795,15.125-9.011,23.769-1.296,5.053-2.636,10.278-4.437,15.046-1.058,2.802-3.722,4.529-6.549,4.529Z" style="fill: #241f20;"/>
  <g>
    <path d="M1167.025,280.323c20.505-11.177,57.733-8.485,72.406,9.667,19.186,23.734,19.729,34.311,32.453,60.738,11.306,23.481,19.865,39.017,42.156,59.153,18.308,16.538,32.869,40.062,35.505,64.842,1.456,13.69,6.295,44.079-14.04,68.481-10.8,12.96-28.616,15.566-28.616,15.566,0,0-55.13,5.274-95.09-1.206" style="fill: #fff; fill-opacity:0.08;"/>
    <path d="M1260.257,567.813c-16.035,0-33.852-.789-49.577-3.339-3.816-.619-6.408-4.214-5.79-8.03.619-3.817,4.229-6.404,8.03-5.789,37.378,6.06,89.287,1.513,93.086,1.167,1.507-.262,15.683-2.972,24.122-13.1,17.248-20.697,14.317-46.709,12.742-60.683-.103-.912-.199-1.772-.285-2.576-2.271-21.348-14.386-43.359-33.237-60.388-23.465-21.196-32.565-38.037-43.77-61.311-3.853-8.001-6.619-14.598-9.061-20.417-5.608-13.374-9.661-23.036-22.53-38.956-12.646-15.646-46.107-17.462-63.611-7.921-3.395,1.85-7.646.6-9.497-2.796-1.85-3.394-.599-7.646,2.796-9.496,22.628-12.336,63.895-9.996,81.201,11.413,14.121,17.469,18.725,28.446,24.553,42.342,2.375,5.664,5.067,12.083,8.763,19.759,10.801,22.434,18.919,37.464,40.541,56.996,21.375,19.309,35.143,44.566,37.774,69.296.082.777.176,1.608.275,2.489,1.68,14.907,5.175,45.925-15.898,71.214-12.372,14.846-32.146,17.889-32.98,18.011-.115.017-.231.031-.347.042-1.397.133-22.155,2.074-47.3,2.074Z" style="fill: #241f20;"/>
  </g>
  <g>
    <g>
      <path d="M589.875,556.377c12.905-10.859,20.451-21.374,35.559-22.808,15.107-1.434,50.6,3.14,61.07,5.529,10.47,2.39,2.822,19.328-13.429,17.072-16.251-2.256-49.742,4.235-49.742,4.235" style="fill: #fff; fill-opacity:0.08;"/>
      <path d="M623.325,567.407c-3.286,0-6.217-2.324-6.865-5.67-.735-3.795,1.745-7.468,5.54-8.203,1.414-.274,34.83-6.684,52.037-4.297,4.5.625,7.213-.978,8.431-1.988.652-.541,1.101-1.095,1.392-1.562-11.102-2.308-44.121-6.446-57.764-5.149-9.401.892-15.324,6.344-23.521,13.89-2.558,2.354-5.203,4.79-8.193,7.305-2.957,2.489-7.373,2.109-9.863-.849-2.489-2.958-2.109-7.374.849-9.863,2.751-2.315,5.279-4.643,7.725-6.894,9.044-8.326,17.587-16.19,31.68-17.527,16.324-1.551,52.863,3.294,63.289,5.673,7.2,1.644,11.313,7.787,10.002,14.94-1.674,9.142-12.068,17.82-25.951,15.89-12.37-1.716-38.445,2.431-47.449,4.174-.449.087-.897.129-1.338.129Z" style="fill: #241f20;"/>
    </g>
    <g>
      <path d="M766.842,511.603c-7.492,4.034-44.346,21.803-44.346,21.803,0,0-62.855,10.111-78.992,22.972-16.137,12.861-47.26,50.323-61.669,67.613s-.576,34.004,17.29,13.256c0,0,1.265,23.464,24.207,9.627,0,0,6.973,13.582,20.748,3.666,36.886-26.55,85.299-30.008,100.284-52.486l34.581-15.189" style="fill: #fff; fill-opacity:0.08;"/>
      <path d="M634.455,661.156c-1.576,0-2.975-.202-4.166-.489-3.784-.911-6.706-2.907-8.83-4.93-7.214,3.158-13.52,3.347-18.798.551-3.103-1.644-5.293-4.051-6.839-6.598-9.109,6.165-16.989,4.773-21.641.832-6.697-5.673-8.176-18.471,2.276-31.013l.734-.881c14.776-17.733,45.523-54.634,61.949-67.725,16.41-13.078,71.086-22.573,81.228-24.243,5.72-2.762,36.533-17.654,43.154-21.22,3.404-1.833,7.649-.559,9.482,2.844,1.833,3.404.56,7.649-2.844,9.482-7.543,4.062-43.113,21.217-44.624,21.945-.61.294-1.259.499-1.928.606-16.981,2.733-63.692,11.931-75.742,21.535-15.31,12.202-45.439,48.361-59.919,65.739l-.735.882c-5.227,6.272-4.609,10.782-3.98,11.369.472.217,4.514-.108,10.588-7.163,1.865-2.165,4.858-2.979,7.563-2.058s4.577,3.396,4.731,6.249c.133,1.933,1.187,6.051,3.115,7.054,1.409.733,4.907.32,10.487-3.044,1.69-1.02,3.69-1.365,5.579-.799,1.89.565,3.411,1.816,4.263,3.595h0s1.647,2.847,4.062,3.392c2.082.47,4.611-.942,6.371-2.209,17.912-12.893,38.173-20.477,56.049-27.167,19.176-7.177,35.736-13.375,42.5-23.521.741-1.112,1.786-1.989,3.009-2.526l34.581-15.188c3.542-1.555,7.669.055,9.224,3.594,1.555,3.54-.055,7.669-3.594,9.224l-32.814,14.412c-9.621,12.753-27.47,19.433-47.998,27.117-17.055,6.383-36.385,13.619-52.778,25.418-5.289,3.807-9.995,4.934-13.715,4.934Z" style="fill: #241f20;"/>
    </g>
    <g>
      <path d="M599.123,641.289c-.867,0-1.742-.278-2.479-.852-1.762-1.371-2.079-3.911-.709-5.673,18.667-23.993,49.462-44.41,50.764-45.267,1.864-1.227,4.371-.711,5.599,1.152,1.228,1.864.713,4.371-1.152,5.599-.308.203-30.996,20.557-48.83,43.481-.797,1.024-1.989,1.56-3.194,1.56h0Z" style="fill: #231f20;"/>
      <path d="M623.332,650.917c-1.039,0-2.077-.398-2.867-1.193-1.574-1.583-1.566-4.143.017-5.717,1.3-1.292,2.565-2.553,3.801-3.787,13.86-13.823,24.808-24.742,42.338-35.53,1.901-1.17,4.391-.577,5.561,1.324s.577,4.391-1.324,5.561c-16.727,10.294-26.852,20.392-40.866,34.369-1.24,1.237-2.508,2.502-3.811,3.796-.788.784-1.819,1.175-2.849,1.175h0Z" style="fill: #231f20;"/>
    </g>
    <g>
      <path d="M630.31,559.177c6.423.884,12.771,2.15,18.613,4.026,19.34,6.214,54.257,23.25,67.616,35.37,13.359,12.12,3.927,25.764-6.401,21.247,0,0,2.044,17.927-18.835,17.426,0,0-8.393,14.439-28.775,9.627-12.981-3.065-75.998-9.627-86.693-22.012l-48.096-6.214,4.302-65.482c10.516,1.434,43.018,2.121,57.835,3.211l14.708-13.125" style="fill: #fff; fill-opacity:0.08;"/>
      <path d="M670.684,654.881c-2.98,0-6.231-.36-9.766-1.194-2.812-.664-8.804-1.604-15.743-2.691-31.83-4.992-61.276-10.265-72.488-19.482l-45.847-5.923c-3.665-.474-6.33-3.714-6.088-7.401l4.302-65.483c.127-1.937,1.053-3.735,2.557-4.963,1.503-1.228,3.447-1.779,5.374-1.514,5.913.806,20.298,1.412,32.99,1.945,7.97.335,15.566.655,21.433,1.02l12.512-11.166c2.885-2.574,7.309-2.323,9.883.562,2.574,2.884,2.323,7.31-.562,9.883l-14.708,13.125c-1.415,1.263-3.279,1.902-5.174,1.758-5.918-.435-14.688-.804-23.974-1.195-9.661-.407-19.554-.823-26.834-1.349l-3.398,51.734,41.577,5.371c1.708.221,3.275,1.063,4.401,2.367.903,1.046,5.425,4.822,25.703,9.522,13.389,3.103,29.064,5.561,40.51,7.356,7.52,1.179,13.458,2.11,16.791,2.897,14.561,3.438,20.531-5.397,21.164-6.417,1.254-2.307,3.548-3.453,6.17-3.396,4.528.119,7.746-.817,9.561-2.753,2.491-2.656,2.146-6.923,2.143-6.966-.284-2.488.788-4.896,2.802-6.383,2.013-1.487,4.673-1.745,6.968-.74,1.229.538,2.147.357,2.727-.539,1.106-1.708.378-5.288-3.835-9.11-11.937-10.831-45.747-27.688-65.053-33.89-4.98-1.6-10.68-2.828-17.425-3.756-3.83-.527-6.507-4.059-5.98-7.889s4.06-6.504,7.889-5.98c7.559,1.04,14.035,2.445,19.799,4.296,18.663,5.996,55.28,23.333,70.179,36.851,10.321,9.364,10.541,20.352,6.18,27.087-2.597,4.01-6.616,6.465-11.04,7.074-.771,2.995-2.237,6.35-4.963,9.332-3.988,4.362-9.564,6.806-16.607,7.287-3.673,4.185-11.436,10.711-24.127,10.712Z" style="fill: #241f20;"/>
    </g>
    <g>
      <path d="M729.38,535.81s-42.073-15.561-57.634-12.391-59.94,48.125-67.433,55.617c-7.492,7.492,12.679,17.29,29.97,4.611,17.29-12.679,23.63-19.595,23.63-19.595" style="fill: #fff; fill-opacity:0.08;"/>
      <path d="M616.299,596.768c-7.48,0-14.018-2.522-17.658-6.766-4.196-4.892-3.906-11.288.723-15.917l.968-.97c52.961-53.082,65.798-55.697,70.017-56.556,17.023-3.469,56.962,11.021,61.46,12.685,3.625,1.341,5.478,5.367,4.137,8.993-1.341,3.626-5.364,5.48-8.993,4.138-15.55-5.747-43.909-14.113-53.809-12.098-3.008.613-16.323,6.16-61.861,51.687,3.61,1.205,11.198,1.657,18.862-3.962,16.319-11.968,22.563-18.631,22.624-18.697,2.624-2.827,7.048-3.007,9.884-.392,2.835,2.615,3.028,7.024.421,9.868-.278.303-7.009,7.573-24.651,20.511-7.108,5.212-15.039,7.477-22.124,7.477Z" style="fill: #241f20;"/>
    </g>
    <g>
      <path d="M664.393,594.447c15.43,7.592,36.003,18.124,44.33,24.736" style="fill: #fff; fill-opacity:0.08;"/>
      <path d="M708.718,626.184c-1.525,0-3.062-.497-4.349-1.519-6.032-4.79-20.522-12.844-43.067-23.938-3.469-1.707-4.897-5.902-3.19-9.371,1.707-3.469,5.903-4.897,9.371-3.19,23.771,11.696,38.684,20.049,45.592,25.535,3.028,2.404,3.533,6.808,1.129,9.835-1.382,1.74-3.425,2.647-5.486,2.647Z" style="fill: #241f20;"/>
    </g>
    <g>
      <path d="M646.269,615.755s23.022,9.307,43.35,20.083" style="fill: #fff; fill-opacity:0.08;"/>
      <path d="M689.613,642.84c-1.106,0-2.228-.263-3.273-.817-19.779-10.485-42.467-19.686-42.694-19.778-3.584-1.449-5.315-5.529-3.866-9.113,1.449-3.584,5.529-5.316,9.113-3.866.954.386,23.592,9.567,44.005,20.388,3.416,1.811,4.717,6.047,2.906,9.463-1.257,2.371-3.682,3.723-6.19,3.723Z" style="fill: #241f20;"/>
    </g>
  </g>
  <g>
    <path d="M1279.455,613.512c-11.092,21.052-131.2,60.555-154.168,47.824-21.697-12.026-82.194-213.606-71.34-229.973,9.554-14.406,136.187-56.739,154.168-47.824,22.88,11.344,81.639,210.427,71.34,229.973Z" style="fill: #2fd1cd; fill-opacity:0.2;"/>
    <path d="M1139.59,670.804c-7.2,0-13.395-.962-17.695-3.346-3.478-1.927-12.714-7.047-34.388-66.852-11.869-32.753-24.281-73.729-32.393-106.938-13.695-56.079-9.173-62.898-7-66.175,8.447-12.737,66.139-31.768,77.618-35.453,18.636-5.983,36.63-10.841,50.666-13.677,23.324-4.714,30.862-3.062,34.827-1.096,4.399,2.181,10.938,8.062,22.536,34.39,7.181,16.301,15.206,37.998,23.21,62.745,9.68,29.932,18.449,61.695,24.06,87.145,9.945,45.115,6.211,52.202,4.616,55.228-10.441,19.82-76.833,40.105-84.369,42.353-16.63,4.96-42.666,11.677-61.688,11.677ZM1059.939,435.051c-.374,1.462-1.451,9.17,5.058,39.219,4.519,20.859,11.557,47.131,19.818,73.977,22.156,71.993,38.673,103.822,43.879,106.975,6.176,3.423,30.283,1.915,68.582-9.509,41.875-12.49,71.969-28.072,75.952-35.4,2.396-6.244-3.557-46.624-23.993-113.799-21.968-72.207-38.792-103.771-44.237-106.706-4.202-1.913-28.174.57-74.546,15.423-40.495,12.97-66.612,25.483-70.513,29.822ZM1060.01,434.814h0Z" style="fill: #241f20;"/>
  </g>
  <g>
    <g>
      <path d="M1079.145,551.066c-5.508,2.677-11.64,2.568-27.469,12.534-14.016,11.151-3.565,30.626,6.532,25.218,0,0-8.865,26.652,11.969,25.173,0,0-4.689,20.609,16.62,18.602,18.427-.973,33.209-3.146,47.235-7.927,5.702-1.943,22.17-9.439,22.17-9.439,35.524-12.308,103.797-29.452,140.763-55.604-1.149-32.368-29.913-73.337-57.915-71.072h-.001s-64.689,40.936-101.473,57.791c-4.711,2.159-15.506-2.979-19.939-5.662-10.35-6.265-16.066-13.023-23.727-26.122-2.632-7.238-4.932-9.939-9.557-20.517-2.689-6.15-18.142-3.217-19.106,3.576-.578,4.076-1.319,13.362.751,19.54,4.549,13.58,13.148,33.782,13.148,33.782" style="fill: #fff; fill-opacity:0.08;"/>
      <path d="M1084.056,639.725c-8.692,0-13.657-3.437-16.361-6.516-3.487-3.972-4.65-8.821-4.904-12.847-4.621-1.183-7.532-3.7-9.306-5.984-4.197-5.405-4.524-12.768-3.876-18.578-3.135-1.189-5.993-3.485-8.147-6.761-5.498-8.355-5.313-22.031,5.855-30.917.201-.16.411-.309.629-.446,10.524-6.626,17.11-9.104,21.958-10.707-2.947-7.165-7.558-18.672-10.545-27.591-2.783-8.311-1.503-19.511-1.044-22.746,1.059-7.457,8.684-11.77,15.771-12.737,7.837-1.069,14.232,1.743,16.68,7.341,2.049,4.688,3.615,7.749,4.997,10.45,1.613,3.152,3.017,5.896,4.498,9.865,7.303,12.401,12.266,17.852,21,23.139,5.219,3.16,11.61,5.364,13.652,5.17,35.978-16.538,99.749-56.82,100.391-57.226.998-.631,2.128-.994,3.284-1.07,11.402-.887,23.258,3.847,34.322,13.694,17.494,15.572,30.263,41.937,31.05,64.115.083,2.358-1.027,4.6-2.953,5.962-29.615,20.952-76.817,35.705-114.745,47.559-10.121,3.164-19.688,6.154-27.463,8.839-2.358,1.07-16.921,7.651-22.51,9.557-13.834,4.715-28.491,7.194-48.986,8.284-1.136.103-2.218.151-3.247.151ZM1070.177,606.99c2.033,0,3.978.886,5.312,2.442,1.442,1.683,2.004,3.949,1.512,6.11-.388,1.831-.613,6.379,1.232,8.45,1.612,1.81,5.187,1.885,7.906,1.629.096-.009.191-.016.287-.021,19.208-1.015,32.77-3.276,45.346-7.562,4.406-1.502,17.035-7.139,21.529-9.185.198-.09.401-.172.607-.243,8.031-2.783,17.816-5.841,28.177-9.079,33.718-10.539,79.429-24.827,107.611-43.424-1.889-17.619-12.453-38.25-26.096-50.392-5.358-4.77-13.448-10.258-22.293-10.258h-.097c-10.362,6.515-66.691,41.652-100.722,57.246-8.942,4.098-23.627-4.311-26.479-6.038-12.271-7.428-18.656-15.773-26.145-28.576-.213-.364-.393-.746-.537-1.142-1.268-3.488-2.426-5.752-4.029-8.886-1.316-2.572-2.935-5.736-4.969-10.324-1.659-.345-5.062.418-6.232,1.43-.651,5.027-.755,11.913.535,15.764,4.406,13.156,12.866,33.064,12.95,33.264.391.917.57,1.872.561,2.81.021,2.616-1.432,5.136-3.94,6.356-2.1,1.021-4.139,1.679-6.297,2.376-4.483,1.447-10.049,3.244-20.148,9.564-4.662,3.892-4.029,8.268-3.529,9.992.669,2.312,2.013,3.407,2.436,3.454,0-.001.078-.015.236-.1,2.527-1.353,5.624-1.031,7.815.817,2.192,1.847,3.037,4.843,2.133,7.563-1.461,4.47-2.384,12.105-.304,14.77.964,1.234,3.328,1.337,5.134,1.211.166-.012.332-.018.497-.018Z" style="fill: #241f20;"/>
    </g>
    <path d="M1245.604,524.185c10.615,14.658,18.977,34.461,18.225,53.977-.119,4.075-3.518,7.28-7.592,7.159-4.074-.121-7.28-3.522-7.162-7.596.001-.046.003-.092.005-.138.8-20.757-11.778-42.824-23.806-54.542-6.892-6.715-12.331-8.914-15.123-8.733-4.066.265-7.578-2.817-7.844-6.884,0-.001,0-.003,0-.004-.265-4.068,2.816-7.579,6.883-7.843,10.19-.661,19.971,6.647,26.382,12.892,3.423,3.336,6.831,7.29,10.033,11.712h0Z" style="fill: #241f20;"/>
  </g>
  <path d="M200.634,684.898c-1.291,0-2.59-.012-3.907-.036-26.149-.482-64.199-6.258-96.969-31.036C10.761,586.536-3.314,551.364.549,533.707c2.214-10.122,14.238-23.483,30.879-41.975,9.667-10.742,20.623-22.917,30.645-35.723,14.517-18.55,36.391-61.546,53.967-96.094,14.032-27.583,25.116-49.369,31.088-56.666,22.395-27.359,59.28-47.554,60.839-48.4,2.577-1.398,5.75-1.044,7.956.89.338.295,20.984,18.207,39.726,23.619,12.323,3.559,35.448.85,43.318-.495.706-.12,1.428-.132,2.139-.034,1.029.143,25.37,3.941,39.6,43.469,12.668,35.189,8.227,103.237,6.331,132.294-.114,1.753-.218,3.335-.305,4.727-.871,13.94-13.538,37.231-28.204,64.2-11.774,21.65-23.949,44.038-29.742,61.417-5.036,15.107-9.041,31.199-12.574,45.396-7.324,29.426-10.899,42.584-18.928,46.116-6.489,2.854-28.475,8.45-56.649,8.45ZM210.582,269.492c-9.992,5.922-36.125,22.472-52.621,42.625-5.014,6.125-16.88,29.451-29.444,54.146-18.78,36.915-40.066,78.755-55.42,98.374-10.318,13.184-21.446,25.55-31.263,36.459-12.874,14.306-26.187,29.1-27.609,35.603-1.095,5.001-1.707,33.615,93.976,105.96,56.353,42.608,131.621,25.706,142.982,21.167,3.163-3.61,7.746-22.021,11.442-36.875,3.595-14.445,7.67-30.818,12.878-46.442,6.184-18.553,18.66-41.494,30.724-63.678,12.71-23.371,25.852-47.538,26.53-58.385.088-1.403.192-2.998.307-4.765,1.681-25.762,6.148-94.195-5.533-126.641-9.836-27.324-23.963-33.09-27.612-34.15-6.361.985-32.18,4.531-48.157-.082-16.721-4.829-33.719-17.349-41.182-23.316ZM250.989,664.033h0ZM214.646,267.154h0Z" style="fill: #241f20;"/>
  <g>
    <path d="M304.343,287.241s38.268,21.112,45.313,35.473c21.743,44.319,65.225,121.067,88.009,143.369,15.708,15.376,113.32,82.441,113.32,82.441,0,0,13.599,64.439-25.281,74.519-59.239-4.32-167.239-64.8-167.239-64.8l-107.44-116.441" style="fill: #2fd1cd; fill-opacity:0.2;"/>
    <path d="M525.705,630.043c-.17,0-.339-.006-.509-.019-60.101-4.383-165.685-63.174-170.15-65.674-.643-.36-1.225-.819-1.724-1.36l-107.44-116.44c-2.622-2.841-2.444-7.27.397-9.892,2.842-2.622,7.271-2.443,9.892.397l106.674,115.61c10.708,5.898,107.829,58.668,162.172,63.301,26.741-8.105,21.441-51.992,19.595-63.332-15.496-10.678-97.1-67.118-111.843-81.549-23.782-23.279-67.404-100.458-89.397-145.289-4.417-9.005-28.358-24.669-42.41-32.428-3.384-1.868-4.614-6.126-2.746-9.511,1.867-3.384,6.124-4.616,9.509-2.747,4.115,2.27,40.424,22.636,48.216,38.519,22.42,45.7,64.996,120.281,86.621,141.45,12.082,11.826,78.798,58.596,112.388,81.674,1.481,1.018,2.514,2.566,2.885,4.324.147.699,3.595,17.325,2.066,35.511-2.757,32.799-19.163,43.787-32.439,47.229-.575.149-1.165.224-1.757.224Z" style="fill: #241f20;"/>
  </g>
</svg>